<?xml version="1.0" encoding="UTF-8"?>
<!--Generator: Apple Native CoreSVG 175.5-->
<!DOCTYPE svg
PUBLIC "-//W3C//DTD SVG 1.1//EN"
       "http://www.w3.org/Graphics/SVG/1.1/DTD/svg11.dtd">
<svg version="1.1" xmlns="http://www.w3.org/2000/svg" xmlns:xlink="http://www.w3.org/1999/xlink" width="3300" height="2200">
 <!--glyph: "uni1015CB.medium", point size: 100.0, font version: "18.0d9e1", template writer version: "84"-->
 <g id="Notes">
  <rect height="2200" id="artboard" style="fill:white;opacity:1" width="3300" x="0" y="0"/>
  <line style="fill:none;stroke:black;opacity:1;stroke-width:0.5;" x1="263" x2="3036" y1="292" y2="292"/>
  <text style="stroke:none;fill:black;font-family:sans-serif;font-size:13;font-weight:bold;" transform="matrix(1 0 0 1 263 322)">Weight/Scale Variations</text>
  <text style="stroke:none;fill:black;font-family:sans-serif;font-size:13;text-anchor:middle;" transform="matrix(1 0 0 1 559.711 322)">Ultralight</text>
  <text style="stroke:none;fill:black;font-family:sans-serif;font-size:13;text-anchor:middle;" transform="matrix(1 0 0 1 856.422 322)">Thin</text>
  <text style="stroke:none;fill:black;font-family:sans-serif;font-size:13;text-anchor:middle;" transform="matrix(1 0 0 1 1153.13 322)">Light</text>
  <text style="stroke:none;fill:black;font-family:sans-serif;font-size:13;text-anchor:middle;" transform="matrix(1 0 0 1 1449.84 322)">Regular</text>
  <text style="stroke:none;fill:black;font-family:sans-serif;font-size:13;text-anchor:middle;" transform="matrix(1 0 0 1 1746.56 322)">Medium</text>
  <text style="stroke:none;fill:black;font-family:sans-serif;font-size:13;text-anchor:middle;" transform="matrix(1 0 0 1 2043.27 322)">Semibold</text>
  <text style="stroke:none;fill:black;font-family:sans-serif;font-size:13;text-anchor:middle;" transform="matrix(1 0 0 1 2339.98 322)">Bold</text>
  <text style="stroke:none;fill:black;font-family:sans-serif;font-size:13;text-anchor:middle;" transform="matrix(1 0 0 1 2636.69 322)">Heavy</text>
  <text style="stroke:none;fill:black;font-family:sans-serif;font-size:13;text-anchor:middle;" transform="matrix(1 0 0 1 2933.4 322)">Black</text>
  <line style="fill:none;stroke:black;opacity:1;stroke-width:0.5;" x1="263" x2="3036" y1="1903" y2="1903"/>
  <g transform="matrix(1 0 0 1 263 1933)">
   <path d="M9.24805 0.830078Q10.8691 0.830078 12.2949 0.214844Q13.7207-0.400391 14.8096-1.49414Q15.8984-2.58789 16.5186-4.01367Q17.1387-5.43945 17.1387-7.05078Q17.1387-8.66211 16.5186-10.0879Q15.8984-11.5137 14.8047-12.6074Q13.7109-13.7012 12.2852-14.3164Q10.8594-14.9316 9.23828-14.9316Q7.62695-14.9316 6.20117-14.3164Q4.77539-13.7012 3.69141-12.6074Q2.60742-11.5137 1.9873-10.0879Q1.36719-8.66211 1.36719-7.05078Q1.36719-5.43945 1.9873-4.01367Q2.60742-2.58789 3.69629-1.49414Q4.78516-0.400391 6.21094 0.214844Q7.63672 0.830078 9.24805 0.830078ZM9.24805-0.654297Q7.91992-0.654297 6.7627-1.14746Q5.60547-1.64062 4.73145-2.51953Q3.85742-3.39844 3.36426-4.56055Q2.87109-5.72266 2.87109-7.05078Q2.87109-8.37891 3.35938-9.54102Q3.84766-10.7031 4.72168-11.582Q5.5957-12.4609 6.75293-12.9541Q7.91016-13.4473 9.23828-13.4473Q10.5762-13.4473 11.7383-12.9541Q12.9004-12.4609 13.7793-11.582Q14.6582-10.7031 15.1514-9.54102Q15.6445-8.37891 15.6445-7.05078Q15.6445-5.72266 15.1514-4.56055Q14.6582-3.39844 13.7793-2.51953Q12.9004-1.64062 11.7432-1.14746Q10.5859-0.654297 9.24805-0.654297ZM5.6543-7.05078Q5.6543-6.72852 5.85938-6.52832Q6.06445-6.32812 6.40625-6.32812L8.51562-6.32812L8.51562-4.20898Q8.51562-3.88672 8.71094-3.67676Q8.90625-3.4668 9.23828-3.4668Q9.56055-3.4668 9.77051-3.67676Q9.98047-3.88672 9.98047-4.20898L9.98047-6.32812L12.0898-6.32812Q12.4219-6.32812 12.627-6.52832Q12.832-6.72852 12.832-7.05078Q12.832-7.38281 12.627-7.58789Q12.4219-7.79297 12.0898-7.79297L9.98047-7.79297L9.98047-9.90234Q9.98047-10.2344 9.77051-10.4443Q9.56055-10.6543 9.23828-10.6543Q8.90625-10.6543 8.71094-10.4443Q8.51562-10.2344 8.51562-9.90234L8.51562-7.79297L6.40625-7.79297Q6.06445-7.79297 5.85938-7.58789Q5.6543-7.38281 5.6543-7.05078Z"/>
  </g>
  <g transform="matrix(1 0 0 1 281.867 1933)">
   <path d="M11.709 2.91016Q13.75 2.91016 15.5518 2.12891Q17.3535 1.34766 18.7305-0.0292969Q20.1074-1.40625 20.8887-3.20801Q21.6699-5.00977 21.6699-7.05078Q21.6699-9.0918 20.8887-10.8936Q20.1074-12.6953 18.7305-14.0723Q17.3535-15.4492 15.5469-16.2305Q13.7402-17.0117 11.6992-17.0117Q9.6582-17.0117 7.85645-16.2305Q6.05469-15.4492 4.68262-14.0723Q3.31055-12.6953 2.5293-10.8936Q1.74805-9.0918 1.74805-7.05078Q1.74805-5.00977 2.5293-3.20801Q3.31055-1.40625 4.6875-0.0292969Q6.06445 1.34766 7.86621 2.12891Q9.66797 2.91016 11.709 2.91016ZM11.709 1.25Q9.98047 1.25 8.47656 0.605469Q6.97266-0.0390625 5.83496-1.17676Q4.69727-2.31445 4.05762-3.81836Q3.41797-5.32227 3.41797-7.05078Q3.41797-8.7793 4.05762-10.2832Q4.69727-11.7871 5.83008-12.9297Q6.96289-14.0723 8.4668-14.7119Q9.9707-15.3516 11.6992-15.3516Q13.4277-15.3516 14.9365-14.7119Q16.4453-14.0723 17.583-12.9297Q18.7207-11.7871 19.3652-10.2832Q20.0098-8.7793 20.0098-7.05078Q20.0098-5.32227 19.3701-3.81836Q18.7305-2.31445 17.5879-1.17676Q16.4453-0.0390625 14.9414 0.605469Q13.4375 1.25 11.709 1.25ZM7.17773-7.05078Q7.17773-6.69922 7.41211-6.47461Q7.64648-6.25 8.01758-6.25L10.8887-6.25L10.8887-3.36914Q10.8887-2.99805 11.1133-2.76855Q11.3379-2.53906 11.6895-2.53906Q12.0605-2.53906 12.29-2.76855Q12.5195-2.99805 12.5195-3.36914L12.5195-6.25L15.4004-6.25Q15.7715-6.25 16.001-6.47461Q16.2305-6.69922 16.2305-7.05078Q16.2305-7.42188 16.001-7.65137Q15.7715-7.88086 15.4004-7.88086L12.5195-7.88086L12.5195-10.752Q12.5195-11.1328 12.29-11.3623Q12.0605-11.5918 11.6895-11.5918Q11.3379-11.5918 11.1133-11.3574Q10.8887-11.123 10.8887-10.752L10.8887-7.88086L8.01758-7.88086Q7.63672-7.88086 7.40723-7.65137Q7.17773-7.42188 7.17773-7.05078Z"/>
  </g>
  <g transform="matrix(1 0 0 1 305.646 1933)">
   <path d="M14.9707 5.66406Q17.0605 5.66406 18.96 5.01465Q20.8594 4.36523 22.4512 3.19336Q24.043 2.02148 25.2197 0.429688Q26.3965-1.16211 27.0459-3.06641Q27.6953-4.9707 27.6953-7.05078Q27.6953-9.14062 27.0459-11.04Q26.3965-12.9395 25.2197-14.5312Q24.043-16.123 22.4512-17.2998Q20.8594-18.4766 18.9551-19.126Q17.0508-19.7754 14.9609-19.7754Q12.8711-19.7754 10.9717-19.126Q9.07227-18.4766 7.48535-17.2998Q5.89844-16.123 4.72168-14.5312Q3.54492-12.9395 2.90039-11.04Q2.25586-9.14062 2.25586-7.05078Q2.25586-4.9707 2.90527-3.06641Q3.55469-1.16211 4.72656 0.429688Q5.89844 2.02148 7.49023 3.19336Q9.08203 4.36523 10.9814 5.01465Q12.8809 5.66406 14.9707 5.66406ZM14.9707 3.84766Q13.1641 3.84766 11.5283 3.2959Q9.89258 2.74414 8.53516 1.74805Q7.17773 0.751953 6.17676-0.610352Q5.17578-1.97266 4.62891-3.6084Q4.08203-5.24414 4.08203-7.05078Q4.08203-8.86719 4.62891-10.5029Q5.17578-12.1387 6.17188-13.501Q7.16797-14.8633 8.52539-15.8594Q9.88281-16.8555 11.5186-17.4023Q13.1543-17.9492 14.9609-17.9492Q16.7773-17.9492 18.4131-17.4023Q20.0488-16.8555 21.4111-15.8594Q22.7734-14.8633 23.7744-13.501Q24.7754-12.1387 25.3223-10.5029Q25.8691-8.86719 25.8691-7.05078Q25.8691-5.24414 25.3223-3.6084Q24.7754-1.97266 23.7793-0.610352Q22.7832 0.751953 21.4209 1.74805Q20.0586 2.74414 18.4229 3.2959Q16.7871 3.84766 14.9707 3.84766ZM9.19922-7.05078Q9.19922-6.66992 9.45801-6.4209Q9.7168-6.17188 10.1172-6.17188L14.0625-6.17188L14.0625-2.2168Q14.0625-1.81641 14.3115-1.55762Q14.5605-1.29883 14.9512-1.29883Q15.3516-1.29883 15.6104-1.55273Q15.8691-1.80664 15.8691-2.2168L15.8691-6.17188L19.8242-6.17188Q20.2246-6.17188 20.4785-6.4209Q20.7324-6.66992 20.7324-7.05078Q20.7324-7.46094 20.4785-7.71484Q20.2246-7.96875 19.8242-7.96875L15.8691-7.96875L15.8691-11.9141Q15.8691-12.3242 15.6104-12.583Q15.3516-12.8418 14.9512-12.8418Q14.5605-12.8418 14.3115-12.583Q14.0625-12.3242 14.0625-11.9141L14.0625-7.96875L10.1172-7.96875Q9.70703-7.96875 9.45312-7.71484Q9.19922-7.46094 9.19922-7.05078Z"/>
  </g>
  <text style="stroke:none;fill:black;font-family:sans-serif;font-size:13;font-weight:bold;" transform="matrix(1 0 0 1 263 1953)">Design Variations</text>
  <text style="stroke:none;fill:black;font-family:sans-serif;font-size:13;" transform="matrix(1 0 0 1 263 1971)">Symbols are supported in up to nine weights and three scales.</text>
  <text style="stroke:none;fill:black;font-family:sans-serif;font-size:13;" transform="matrix(1 0 0 1 263 1989)">For optimal layout with text and other symbols, vertically align</text>
  <text style="stroke:none;fill:black;font-family:sans-serif;font-size:13;" transform="matrix(1 0 0 1 263 2007)">symbols with the adjacent text.</text>
  <line style="fill:none;stroke:#00AEEF;stroke-width:0.5;opacity:1.0;" x1="776" x2="776" y1="1919" y2="1933"/>
  <g transform="matrix(1 0 0 1 776 1933)">
   <path d="M3.31055 0.15625Q3.70117 0.15625 3.91602-0.00976562Q4.13086-0.175781 4.26758-0.585938L5.52734-4.0332L11.2891-4.0332L12.5488-0.585938Q12.6855-0.175781 12.9004-0.00976562Q13.1152 0.15625 13.4961 0.15625Q13.8867 0.15625 14.1162-0.0585938Q14.3457-0.273438 14.3457-0.644531Q14.3457-0.869141 14.2383-1.17188L9.6582-13.3691Q9.48242-13.8184 9.17969-14.043Q8.87695-14.2676 8.4082-14.2676Q7.5-14.2676 7.17773-13.3789L2.59766-1.16211Q2.49023-0.859375 2.49023-0.634766Q2.49023-0.263672 2.70996-0.0537109Q2.92969 0.15625 3.31055 0.15625ZM6.00586-5.51758L8.37891-12.0898L8.42773-12.0898L10.8008-5.51758Z"/>
  </g>
  <line style="fill:none;stroke:#00AEEF;stroke-width:0.5;opacity:1.0;" x1="793.197" x2="793.197" y1="1919" y2="1933"/>
  <text style="stroke:none;fill:black;font-family:sans-serif;font-size:13;font-weight:bold;" transform="matrix(1 0 0 1 776 1953)">Margins</text>
  <text style="stroke:none;fill:black;font-family:sans-serif;font-size:13;" transform="matrix(1 0 0 1 776 1971)">Leading and trailing margins on the left and right side of each symbol</text>
  <text style="stroke:none;fill:black;font-family:sans-serif;font-size:13;" transform="matrix(1 0 0 1 776 1989)">can be adjusted by modifying the x-location of the margin guidelines.</text>
  <text style="stroke:none;fill:black;font-family:sans-serif;font-size:13;" transform="matrix(1 0 0 1 776 2007)">Modifications are automatically applied proportionally to all</text>
  <text style="stroke:none;fill:black;font-family:sans-serif;font-size:13;" transform="matrix(1 0 0 1 776 2025)">scales and weights.</text>
  <g transform="matrix(1 0 0 1 1289 1933)">
   <path d="M2.8418 1.86523L4.54102 3.57422Q5.18555 4.22852 5.90332 4.17969Q6.62109 4.13086 7.31445 3.35938L18.0078-8.42773L17.041-9.4043L6.42578 2.27539Q6.16211 2.57812 5.89355 2.61719Q5.625 2.65625 5.27344 2.30469L4.10156 1.14258Q3.75 0.791016 3.79395 0.522461Q3.83789 0.253906 4.14062-0.0195312L15.6152-10.8203L14.6387-11.7871L3.04688-0.898438Q2.30469-0.214844 2.25098 0.498047Q2.19727 1.21094 2.8418 1.86523ZM9.25781-16.3281Q8.94531-16.0254 8.90625-15.6348Q8.86719-15.2441 9.04297-14.9512Q9.21875-14.6777 9.55566-14.541Q9.89258-14.4043 10.3809-14.5215Q11.4746-14.7754 12.5977-14.7314Q13.7207-14.6875 14.7949-13.9844L14.209-12.5293Q13.9551-11.9043 14.0674-11.4404Q14.1797-10.9766 14.5801-10.5664L16.875-8.25195Q17.2363-7.88086 17.5781-7.82227Q17.9199-7.76367 18.3398-7.8418L19.4043-8.03711L20.0684-7.36328L20.0293-6.80664Q20-6.43555 20.1221-6.12305Q20.2441-5.81055 20.6055-5.44922L21.3672-4.70703Q21.7285-4.3457 22.1533-4.33105Q22.5781-4.31641 22.9297-4.66797L25.8398-7.58789Q26.1914-7.93945 26.1816-8.35449Q26.1719-8.76953 25.8105-9.13086L25.0391-9.89258Q24.6875-10.2539 24.3799-10.3857Q24.0723-10.5176 23.7109-10.4883L23.1348-10.4395L22.4902-11.0742L22.7344-12.1973Q22.832-12.6172 22.6953-12.9834Q22.5586-13.3496 22.1191-13.7891L19.9219-15.9766Q18.6719-17.2168 17.2607-17.8369Q15.8496-18.457 14.4189-18.4814Q12.9883-18.5059 11.665-17.959Q10.3418-17.4121 9.25781-16.3281ZM10.752-15.957Q11.6602-16.6211 12.7002-16.9043Q13.7402-17.1875 14.8047-17.085Q15.8691-16.9824 16.8701-16.5137Q17.8711-16.0449 18.7012-15.2051L21.1328-12.793Q21.3086-12.6172 21.3525-12.4512Q21.3965-12.2852 21.3379-12.0312L21.0156-10.5469L22.5195-9.0625L23.5059-9.12109Q23.6914-9.13086 23.7891-9.09668Q23.8867-9.0625 24.0332-8.91602L24.6094-8.33984L22.168-5.89844L21.5918-6.47461Q21.4453-6.62109 21.4062-6.71875Q21.3672-6.81641 21.377-7.01172L21.4453-7.98828L19.9512-9.47266L18.4277-9.21875Q18.1836-9.16992 18.042-9.2041Q17.9004-9.23828 17.7148-9.41406L15.7129-11.416Q15.5176-11.5918 15.4932-11.7529Q15.4688-11.9141 15.5859-12.1875L16.4648-14.2773Q15.293-15.3711 13.8281-15.791Q12.3633-16.2109 10.8398-15.7617Q10.7227-15.7324 10.6885-15.8057Q10.6543-15.8789 10.752-15.957Z"/>
  </g>
  <text style="stroke:none;fill:black;font-family:sans-serif;font-size:13;font-weight:bold;" transform="matrix(1 0 0 1 1289 1953)">Exporting</text>
  <text style="stroke:none;fill:black;font-family:sans-serif;font-size:13;" transform="matrix(1 0 0 1 1289 1971)">Symbols should be outlined when exporting to ensure the</text>
  <text style="stroke:none;fill:black;font-family:sans-serif;font-size:13;" transform="matrix(1 0 0 1 1289 1989)">design is preserved when submitting to Xcode.</text>
  <text id="template-version" style="stroke:none;fill:black;font-family:sans-serif;font-size:13;text-anchor:end;" transform="matrix(1 0 0 1 3036 1933)">Template v.2.0</text>
  <text style="stroke:none;fill:black;font-family:sans-serif;font-size:13;text-anchor:end;" transform="matrix(1 0 0 1 3036 1951)">Requires Xcode 12 or greater</text>
  <text id="descriptive-name" style="stroke:none;fill:black;font-family:sans-serif;font-size:13;text-anchor:end;" transform="matrix(1 0 0 1 3036 1969)">Generated from football</text>
  <text style="stroke:none;fill:black;font-family:sans-serif;font-size:13;text-anchor:end;" transform="matrix(1 0 0 1 3036 1987)">Typeset at 100 points</text>
  <text style="stroke:none;fill:black;font-family:sans-serif;font-size:13;" transform="matrix(1 0 0 1 263 726)">Small</text>
  <text style="stroke:none;fill:black;font-family:sans-serif;font-size:13;" transform="matrix(1 0 0 1 263 1156)">Medium</text>
  <text style="stroke:none;fill:black;font-family:sans-serif;font-size:13;" transform="matrix(1 0 0 1 263 1586)">Large</text>
 </g>
 <g id="Guides">
  <g id="H-reference" style="fill:#27AAE1;stroke:none;" transform="matrix(1 0 0 1 339 696)">
   <path d="M0.993347 0L3.6377 0L29.3282-67.1326L30.0301-67.1326L30.0301-70.459L28.1227-70.459ZM11.6882-24.4797L46.9818-24.4797L46.2311-26.7288L12.4382-26.7288ZM55.1193 0L57.7637 0L30.6381-70.459L29.4327-70.459L29.4327-67.1326Z"/>
  </g>
  <line id="Baseline-S" style="fill:none;stroke:#27AAE1;opacity:1;stroke-width:0.5;" x1="263" x2="3036" y1="696" y2="696"/>
  <line id="Capline-S" style="fill:none;stroke:#27AAE1;opacity:1;stroke-width:0.5;" x1="263" x2="3036" y1="625.541" y2="625.541"/>
  <g id="H-reference" style="fill:#27AAE1;stroke:none;" transform="matrix(1 0 0 1 339 1126)">
   <path d="M0.993347 0L3.6377 0L29.3282-67.1326L30.0301-67.1326L30.0301-70.459L28.1227-70.459ZM11.6882-24.4797L46.9818-24.4797L46.2311-26.7288L12.4382-26.7288ZM55.1193 0L57.7637 0L30.6381-70.459L29.4327-70.459L29.4327-67.1326Z"/>
  </g>
  <line id="Baseline-M" style="fill:none;stroke:#27AAE1;opacity:1;stroke-width:0.5;" x1="263" x2="3036" y1="1126" y2="1126"/>
  <line id="Capline-M" style="fill:none;stroke:#27AAE1;opacity:1;stroke-width:0.5;" x1="263" x2="3036" y1="1055.54" y2="1055.54"/>
  <g id="H-reference" style="fill:#27AAE1;stroke:none;" transform="matrix(1 0 0 1 339 1556)">
   <path d="M0.993347 0L3.6377 0L29.3282-67.1326L30.0301-67.1326L30.0301-70.459L28.1227-70.459ZM11.6882-24.4797L46.9818-24.4797L46.2311-26.7288L12.4382-26.7288ZM55.1193 0L57.7637 0L30.6381-70.459L29.4327-70.459L29.4327-67.1326Z"/>
  </g>
  <line id="Baseline-L" style="fill:none;stroke:#27AAE1;opacity:1;stroke-width:0.5;" x1="263" x2="3036" y1="1556" y2="1556"/>
  <line id="Capline-L" style="fill:none;stroke:#27AAE1;opacity:1;stroke-width:0.5;" x1="263" x2="3036" y1="1485.54" y2="1485.54"/>
  <line id="left-margin" style="fill:none;stroke:#00AEEF;stroke-width:0.5;opacity:1.0;" x1="1389.01" x2="1389.01" y1="1030.79" y2="1150.12"/>
  <line id="right-margin" style="fill:none;stroke:#00AEEF;stroke-width:0.5;opacity:1.0;" x1="1510.68" x2="1510.68" y1="1030.79" y2="1150.12"/>
 </g>
 <g id="Symbols">
  <g id="Black-L" transform="matrix(1 0 0 1 2851.09 1556)">
   <path d="M120.974 3.40055Q133.68-9.36378 140.885-24.905Q148.089-40.4462 149.673-56.4003Q151.256-72.3544 147.195-86.2321Q145.338-92.4193 142.396-95.3512Q139.454-98.2831 133.268-100.161Q119.354-104.28 103.428-102.668Q87.5027-101.055 71.9317-93.8796Q56.3607-86.7043 43.6327-73.9388Q30.8892-61.2328 23.7035-45.6618Q16.5177-30.0908 14.9051-14.1549Q13.2925 1.78098 17.4131 15.6951Q19.2895 21.8811 22.2221 24.824Q25.1546 27.7669 31.3405 29.6226Q45.2183 33.6836 61.1724 32.1002Q77.1265 30.5168 92.6677 23.3122Q108.209 16.1077 120.974 3.40055ZM109.47-8.1238Q99.0568 2.23072 87.0554 8.25981Q75.0541 14.2889 62.2138 15.7439Q49.3734 17.1989 36.5998 13.9493Q34.5841 13.4972 34.0613 12.9348Q33.5385 12.3723 32.9488 10.1189Q29.7772-2.61299 31.301-15.3845Q32.8248-28.1561 38.8143-40.1184Q44.8037-52.0807 55.1583-62.4144Q65.492-72.7689 77.4647-78.759Q89.4374-84.7491 102.199-86.2729Q114.96-87.7967 127.711-84.6459Q129.944-84.0342 130.507-83.5114Q131.07-82.9886 131.523-80.9729Q134.773-68.2201 133.317-55.3693Q131.862-42.5186 125.843-30.5172Q119.824-18.5159 109.47-8.1238ZM94.9255-98.4096L83.2207-86.7036L134.029-35.9326L145.697-47.5998ZM19.1643-22.6472L69.9729 28.1251L81.6401 16.4567L30.869-34.352ZM54.5231-22.1794L69.2126-7.46777Q70.4429-6.23868 72.2061-6.23868Q73.9693-6.23868 75.1996-7.46777Q76.4275-8.69805 76.4275-10.4716Q76.4275-12.2452 75.1996-13.4755L60.5088-28.1651Q59.2797-29.3942 57.5055-29.3942Q55.7313-29.3942 54.5231-28.1651Q53.294-26.936 53.294-25.1728Q53.294-23.4096 54.5231-22.1794ZM63.2683-30.9466L77.9799-16.235Q79.1506-15.006 80.9436-15.006Q82.7366-15.006 83.9656-16.235Q85.1947-17.4641 85.1947-19.2383Q85.1947-21.0125 83.9656-22.2416L69.2761-36.9115Q68.0458-38.1406 66.243-38.1406Q64.4402-38.1406 63.2683-36.9115Q62.0404-35.6825 62.0404-33.9291Q62.0404-32.1757 63.2683-30.9466ZM71.9771-39.6347L86.6887-24.9439Q87.9178-23.7732 89.7004-23.7732Q91.483-23.7732 92.7133-24.9439Q93.8827-26.1741 93.8827-27.9665Q93.8827-29.759 92.7133-30.9672L78.0213-45.6788Q76.7922-46.9067 74.9992-46.9067Q73.2062-46.9067 71.9771-45.6788Q70.7493-44.4485 70.7493-42.6561Q70.7493-40.8637 71.9771-39.6347ZM80.8612-48.4967L95.53-33.8059Q96.7602-32.5989 98.5339-32.5989Q100.307-32.5989 101.538-33.8059Q102.767-35.0362 102.767-36.7994Q102.767-38.5626 101.538-39.7929L86.8469-54.5033Q85.5971-55.7323 83.8437-55.7323Q82.0903-55.7323 80.8612-54.5033Q79.6333-53.2742 79.6333-51.5Q79.6333-49.7258 80.8612-48.4967ZM89.6285-57.264L104.298-42.5744Q105.469-41.3453 107.272-41.3453Q109.075-41.3453 110.304-42.5744Q111.533-43.8022 111.533-45.566Q111.533-47.3298 110.304-48.5589L95.5934-63.2717Q94.3643-64.4996 92.5817-64.4996Q90.7991-64.4996 89.6285-63.2717Q88.3994-62.0414 88.3994-60.2678Q88.3994-58.4942 89.6285-57.264ZM65.9259-12.9057L104.667-51.6467L98.6824-57.6325L59.9622-18.8903Z"/>
  </g>
  <g id="Heavy-L" transform="matrix(1 0 0 1 2555.35 1556)">
   <path d="M119.346 2.75026Q131.929-9.8773 139.051-25.2434Q146.173-40.6094 147.732-56.381Q149.291-72.1526 145.244-85.9151Q143.455-91.8673 140.689-94.618Q137.923-97.3687 131.977-99.1879Q118.205-103.279 102.453-101.698Q86.7014-100.117 71.3101-93.0173Q55.9189-85.9172 43.3002-73.2841Q30.7028-60.7012 23.5876-45.3099Q16.4725-29.9187 14.8916-14.1516Q13.3107 1.61557 17.4076 15.3869Q19.2211 21.3335 21.9747 24.1021Q24.7282 26.8707 30.6747 28.654Q44.4373 32.7007 60.2088 31.1422Q75.9804 29.5836 91.3465 22.4612Q106.713 15.3389 119.346 2.75026ZM108.93-7.69018Q98.4413 2.75372 86.31 8.82115Q74.1788 14.8886 61.2283 16.3372Q48.2779 17.7858 35.4586 14.4827Q33.3021 13.981 32.6914 13.3328Q32.0807 12.6847 31.4595 10.3039Q28.2256-2.45505 29.7339-15.3458Q31.2423-28.2365 37.2723-40.3332Q43.3023-52.4299 53.7463-62.8436Q64.1599-73.2876 76.2717-79.3204Q88.3835-85.3532 101.259-86.8615Q114.135-88.3698 126.918-85.1661Q129.269-84.5092 129.92-83.8984Q130.571-83.2877 131.078-81.1313Q134.381-68.3421 132.93-55.3766Q131.478-42.4111 125.426-30.2798Q119.374-18.1486 108.93-7.69018ZM93.4177-97.3686L82.6974-86.6428L132.945-36.4093L143.651-47.115ZM19.2269-23.1722L69.4748 27.067L80.1806 16.3556L29.9471-33.8924ZM54.1526-22.3271L68.3776-8.06637Q69.5075-6.94202 71.1135-6.94202Q72.7195-6.94202 73.8494-8.06637Q74.9681-9.19628 74.9681-10.8174Q74.9681-12.4384 73.8494-13.5683L59.6188-27.7933Q58.4945-28.9176 56.8706-28.9176Q55.2467-28.9176 54.1526-27.7933Q53.0283-26.669 53.0283-25.063Q53.0283-23.457 54.1526-22.3271ZM62.8356-31.0459L77.0964-16.7852Q78.1761-15.6609 79.8072-15.6609Q81.4383-15.6609 82.5626-16.7852Q83.6869-17.9095 83.6869-19.5334Q83.6869-21.1573 82.5626-22.2816L68.3377-36.4819Q67.2078-37.6063 65.5643-37.6063Q63.9209-37.6063 62.8356-36.4819Q61.7169-35.3577 61.7169-33.764Q61.7169-32.1703 62.8356-31.0459ZM71.5098-39.6899L85.7705-25.4593Q86.8949-24.3797 88.5109-24.3797Q90.1269-24.3797 91.2568-25.4593Q92.3309-26.5892 92.3309-28.2176Q92.3309-29.846 91.2568-30.94L77.0207-45.2008Q75.8963-46.3194 74.2652-46.3194Q72.6341-46.3194 71.5098-45.2008Q70.3911-44.0709 70.3911-42.4425Q70.3911-40.8142 71.5098-39.6899ZM80.3179-48.4622L94.5126-34.2317Q95.6425-33.1431 97.2637-33.1431Q98.8848-33.1431 100.015-34.2317Q101.139-35.3616 101.139-36.9676Q101.139-38.5736 100.015-39.7035L85.7841-53.9586Q84.6296-55.0829 83.0359-55.0829Q81.4422-55.0829 80.3179-53.9586Q79.1992-52.8343 79.1992-51.2104Q79.1992-49.5865 80.3179-48.4622ZM89.0367-57.1811L103.237-42.956Q104.317-41.8318 105.96-41.8318Q107.604-41.8318 108.728-42.956Q109.852-44.0747 109.852-45.6835Q109.852-47.2924 108.728-48.4166L94.4727-62.683Q93.3485-63.8017 91.7324-63.8017Q90.1163-63.8017 89.0367-62.683Q87.9123-61.5531 87.9123-59.932Q87.9123-58.3109 89.0367-57.1811ZM65.0891-13.5669L103.023-51.5007L97.5624-56.967L59.6587-19.0275Z"/>
  </g>
  <g id="Bold-L" transform="matrix(1 0 0 1 2259.87 1556)">
   <path d="M117.28 1.92109Q129.71-10.5374 136.732-25.6808Q143.754-40.8242 145.278-56.3728Q146.803-71.9215 142.764-85.5605Q141.067-91.1909 138.539-93.7001Q136.011-96.2093 130.393-97.9443Q116.776-102.012 101.236-100.473Q85.6952-98.9347 70.5306-91.9269Q55.3659-84.919 42.8854-72.4474Q30.4647-60.0181 23.438-44.8534Q16.4112-29.6888 14.8725-14.1291Q13.3338 1.43054 17.4149 15.0475Q19.1365 20.6646 21.6524 23.1995Q24.1683 25.7343 29.7854 27.418Q43.4244 31.4568 58.9731 29.9327Q74.5217 28.4087 89.6651 21.3862Q104.808 14.3637 117.28 1.92109ZM108.291-7.09268Q97.6805 3.48866 85.3544 9.60967Q73.0283 15.7307 59.9172 17.1642Q46.8061 18.5977 33.933 15.2105Q31.5923 14.64 30.8926 13.9066Q30.193 13.1733 29.5259 10.6312Q26.1927-2.16594 27.6745-15.2288Q29.1562-28.2916 35.2436-40.5909Q41.3309-52.8901 51.9125-63.4334Q62.4557-74.015 74.774-80.109Q87.0922-86.203 100.136-87.6846Q113.18-89.1663 126.002-85.8712Q128.506-85.1529 129.246-84.4531Q129.986-83.7534 130.57-81.4129Q133.957-68.5777 132.517-55.4477Q131.077-42.3176 124.975-29.9915Q118.873-17.6654 108.291-7.09268ZM91.5356-96.1745L82.104-86.7299L131.727-37.0977L141.168-46.538ZM19.1845-23.8103L68.8079 25.8351L78.2481 16.3816L28.616-33.2419ZM53.5054-22.4817L67.2882-8.64767Q68.2951-7.65384 69.7052-7.65384Q71.1153-7.65384 72.1222-8.64767Q73.1027-9.6546 73.1027-11.0836Q73.1027-12.5127 72.1222-13.5196L58.3261-27.3024Q57.3325-28.2962 55.8968-28.2962Q54.4611-28.2962 53.5054-27.3024Q52.5115-26.3088 52.5115-24.8987Q52.5115-23.4886 53.5054-22.4817ZM62.1562-31.1837L75.9902-17.3497Q76.9548-16.3561 78.3861-16.3561Q79.8173-16.3561 80.8111-17.3497Q81.8047-18.3435 81.8047-19.7792Q81.8047-21.2149 80.8111-22.2085L67.0283-35.9666Q66.0214-36.9604 64.5777-36.9604Q63.1339-36.9604 62.1562-35.9666Q61.1757-34.973 61.1757-33.5753Q61.1757-32.1776 62.1562-31.1837ZM70.829-39.8187L84.663-26.0225Q85.6569-25.0581 87.0692-25.0581Q88.4815-25.0581 89.4884-26.0225Q90.4397-27.0295 90.4397-28.4543Q90.4397-29.8791 89.4884-30.8346L75.6792-44.6688Q74.6853-45.6491 73.2541-45.6491Q71.8228-45.6491 70.829-44.6688Q69.8485-43.6619 69.8485-42.2371Q69.8485-40.8123 70.829-39.8187ZM79.5897-48.5279L93.3344-34.732Q94.3413-33.7894 95.7705-33.7894Q97.1996-33.7894 98.2066-34.732Q99.2002-35.7389 99.2002-37.149Q99.2002-38.5591 98.2066-39.566L84.4104-53.3867Q83.3787-54.3806 81.981-54.3806Q80.5833-54.3806 79.5897-53.3867Q78.6092-52.3931 78.6092-50.9574Q78.6092-49.5217 79.5897-48.5279ZM88.2917-57.2302L102.05-43.4471Q103.014-42.4535 104.458-42.4535Q105.902-42.4535 106.895-43.4471Q107.889-44.4276 107.889-45.8444Q107.889-47.2611 106.895-48.2547L93.0746-62.1021Q92.081-63.0826 90.6685-63.0826Q89.2561-63.0826 88.2917-62.1021Q87.2979-61.0952 87.2979-59.666Q87.2979-58.2369 88.2917-57.2302ZM63.955-14.3145L101.031-51.3909L96.2238-56.2118L59.1853-19.1221Z"/>
  </g>
  <g id="Semibold-L" transform="matrix(1 0 0 1 1964.01 1556)">
   <path d="M115.856 1.34947Q128.18-10.9925 135.133-25.9824Q142.087-40.9722 143.587-56.3672Q145.087-71.7622 141.054-85.316Q139.421-90.7246 137.056-93.0674Q134.692-95.4101 129.302-97.087Q115.791-101.139 100.396-99.629Q85.0016-98.1194 69.9931-91.1751Q54.9847-84.2309 42.5994-71.8706Q30.3007-59.5471 23.3348-44.5387Q16.3689-29.5302 14.8593-14.1136Q13.3498 1.30298 17.42 14.8135Q19.0782 20.2036 21.4303 22.5772Q23.7823 24.9508 29.1723 26.5659Q42.7261 30.5992 58.1211 29.0989Q73.5161 27.5986 88.5059 20.6451Q103.496 13.6915 115.856 1.34947ZM107.851-6.68077Q97.1561 3.99532 84.6956 10.1533Q72.2351 16.3112 59.0133 17.7343Q45.7914 19.1573 32.8812 15.7123Q30.4136 15.0943 29.6526 14.3022Q28.8916 13.5102 28.1929 10.8568Q24.7913-1.96663 26.2547-15.1481Q27.7181-28.3296 33.845-40.7685Q39.9719-53.2074 50.6483-63.84Q61.2809-74.5164 73.7414-80.6526Q86.2019-86.7888 99.3618-88.2521Q112.522-89.7153 125.37-86.3572Q127.98-85.5967 128.781-84.8356Q129.583-84.0744 130.219-81.6071Q133.664-68.7401 132.232-55.4966Q130.8-42.2532 124.663-29.7927Q118.527-17.3322 107.851-6.68077ZM90.238-95.3514L81.6949-86.79L130.888-37.5724L139.456-46.1401ZM19.1552-24.2503L68.3482 24.9859L76.9159 16.3995L27.6983-32.7934ZM53.0592-22.5883L66.5372-9.04841Q67.4593-8.14457 68.7343-8.14457Q70.0094-8.14457 70.9315-9.04841Q71.8167-9.97056 71.8167-11.2672Q71.8167-12.5638 70.9315-13.486L57.4349-26.964Q56.5314-27.8678 55.2254-27.8678Q53.9195-27.8678 53.0592-26.964Q52.1553-26.0605 52.1553-24.7854Q52.1553-23.5104 53.0592-22.5883ZM61.6878-31.2787L75.2276-17.7389Q76.1129-16.8354 77.4064-16.8354Q78.6999-16.8354 79.6037-17.7389Q80.5072-18.6427 80.5072-19.9487Q80.5072-21.2546 79.6037-22.1582L66.1257-35.6113Q65.2035-36.5151 63.8975-36.5151Q62.5914-36.5151 61.6878-35.6113Q60.8026-34.7077 60.8026-33.4452Q60.8026-32.1826 61.6878-31.2787ZM70.3597-39.9075L83.8996-26.4108Q84.8034-25.5259 86.0753-25.5259Q87.3471-25.5259 88.2693-26.4108Q89.1359-27.333 89.1359-28.6174Q89.1359-29.9019 88.2693-30.7619L74.7543-44.3021Q73.8505-45.187 72.557-45.187Q71.2636-45.187 70.3597-44.3021Q69.4745-43.3799 69.4745-42.0954Q69.4745-40.811 70.3597-39.9075ZM79.0877-48.5732L92.5221-35.0769Q93.4443-34.2349 94.7411-34.2349Q96.0379-34.2349 96.96-35.0769Q97.8636-35.9991 97.8636-37.2741Q97.8636-38.5491 96.96-39.4713L83.4634-52.9925Q82.5164-53.8963 81.2538-53.8963Q79.9912-53.8963 79.0877-52.9925Q78.2025-52.089 78.2025-50.783Q78.2025-49.4771 79.0877-48.5732ZM87.7782-57.264L101.231-43.7857Q102.116-42.8822 103.422-42.8822Q104.728-42.8822 105.632-43.7857Q106.536-44.6709 106.536-45.9553Q106.536-47.2396 105.632-48.1432L92.1107-61.7016Q91.2072-62.5868 89.9351-62.5868Q88.6631-62.5868 87.7782-61.7016Q86.8743-60.7795 86.8743-59.4827Q86.8743-58.1859 87.7782-57.264ZM63.1731-14.8299L99.6584-51.3152L95.301-55.6912L58.8589-19.1873Z"/>
  </g>
  <g id="Medium-L" transform="matrix(1 0 0 1 1667.94 1556)">
   <path d="M114.777 0.916048Q127.02-11.3376 133.921-26.211Q140.822-41.0845 142.305-56.3629Q143.787-71.6414 139.758-85.1306Q138.172-90.3711 135.932-92.5876Q133.692-94.804 128.474-96.4369Q115.044-100.476 99.76-98.9887Q84.4757-97.5012 69.5856-90.6051Q54.6956-83.7091 42.3826-71.4332Q30.1762-59.1901 23.2566-44.3001Q16.3369-29.41 14.8494-14.1019Q13.3618 1.20626 17.4238 14.6361Q19.034 19.854 21.2618 22.1054Q23.4896 24.3568 28.7075 25.9198Q42.1967 29.9489 57.4751 28.4667Q72.7536 26.9844 87.627 20.0831Q102.5 13.1818 114.777 0.916048ZM107.517-6.36845Q96.7584 4.3795 84.1961 10.5655Q71.6337 16.7514 58.3279 18.1666Q45.0221 19.5817 32.0838 16.0927Q29.5198 15.4387 28.7123 14.6021Q27.9048 13.7656 27.1822 11.0279Q23.7287-1.81551 25.1782-15.087Q26.6276-28.3584 32.7845-40.9032Q38.9414-53.448 49.6897-64.1483Q60.39-74.8966 72.9585-81.0648Q85.5269-87.2331 98.7747-88.6823Q112.023-90.1316 124.891-86.7258Q127.581-85.9332 128.429-85.1255Q129.277-84.3178 129.953-81.7543Q133.442-68.8632 132.016-55.5338Q130.589-42.2043 124.427-29.642Q118.265-17.0796 107.517-6.36845ZM89.2542-94.7273L81.3847-86.8355L130.251-37.9323L138.157-45.8385ZM19.1331-24.5839L67.9995 24.342L75.9058 16.4131L27.0025-32.4533ZM52.7208-22.6691L65.9677-9.35227Q66.8256-8.51666 67.9982-8.51666Q69.1708-8.51666 70.0287-9.35227Q70.8416-10.2101 70.8416-11.4064Q70.8416-12.6026 70.0287-13.4605L56.7592-26.7074Q55.9239-27.543 54.7164-27.543Q53.5088-27.543 52.7208-26.7074Q51.8852-25.8722 51.8852-24.6995Q51.8852-23.5269 52.7208-22.6691ZM61.3326-31.3508L74.6494-18.034Q75.4745-17.1988 76.6635-17.1988Q77.8525-17.1988 78.6881-18.034Q79.5234-18.8696 79.5234-20.0772Q79.5234-21.2847 78.6881-22.12L65.4413-35.3419Q64.5834-36.1775 63.3817-36.1775Q62.18-36.1775 61.3326-35.3419Q60.5197-34.5066 60.5197-33.3465Q60.5197-32.1864 61.3326-31.3508ZM70.0039-39.9748L83.3207-26.7052Q84.1563-25.8805 85.3216-25.8805Q86.487-25.8805 87.3449-26.7052Q88.1473-27.5631 88.1473-28.7412Q88.1473-29.9192 87.3449-30.7068L74.0531-44.024Q73.2175-44.8366 72.0285-44.8366Q70.8395-44.8366 70.0039-44.024Q69.1909-43.1661 69.1909-41.988Q69.1909-40.81 70.0039-39.9748ZM78.707-48.6076L91.9063-35.3385Q92.7641-34.5728 93.9606-34.5728Q95.157-34.5728 96.0149-35.3385Q96.8501-36.1963 96.8501-37.369Q96.8501-38.5416 96.0149-39.3994L82.7454-52.6936Q81.8625-53.5292 80.7024-53.5292Q79.5422-53.5292 78.707-52.6936Q77.8941-51.8584 77.8941-50.6508Q77.8941-49.4432 78.707-48.6076ZM87.3888-57.2897L100.611-44.0425Q101.435-43.2072 102.637-43.2072Q103.839-43.2072 104.674-44.0425Q105.51-44.8554 105.51-46.0394Q105.51-47.2233 104.674-48.0585L91.3798-61.398Q90.5446-62.2109 89.379-62.2109Q88.2135-62.2109 87.3888-61.398Q86.5531-60.5401 86.5531-59.3437Q86.5531-58.1472 87.3888-57.2897ZM62.5803-15.2207L98.6174-51.2577L94.6013-55.2965L58.6115-19.2367Z"/>
  </g>
  <g id="Regular-L" transform="matrix(1 0 0 1 1372.07 1556)">
   <path d="M113.368 0.350709Q125.507-11.7877 132.34-26.5093Q139.173-41.2309 140.632-56.3573Q142.091-71.4838 138.067-84.8888Q136.544-89.9099 134.466-91.9617Q132.388-94.0135 127.395-95.589Q114.07-99.6123 98.9298-98.1536Q83.7897-96.6948 69.0541-89.8616Q54.3186-83.0285 42.0998-70.8627Q30.014-58.7243 23.1545-43.9888Q16.2951-29.2532 14.8363-14.0866Q13.3776 1.0801 17.4288 14.4047Q18.9763 19.398 21.0421 21.49Q23.1078 23.582 28.1011 25.077Q41.5061 29.1008 56.6326 27.642Q71.759 26.1833 86.4806 19.3501Q101.202 12.517 113.368 0.350709ZM107.081-5.96107Q96.2397 4.88059 83.5445 11.1031Q70.8493 17.3256 57.434 18.7304Q44.0186 20.1353 31.0436 16.589Q28.3541 15.888 27.4859 14.9934Q26.6178 14.0987 25.8638 11.2511Q22.3427-1.61839 23.774-15.0072Q25.2053-28.396 31.4013-41.0789Q37.5973-53.7618 48.4394-64.5505Q59.2281-75.3926 71.9372-81.6025Q84.6464-87.8125 98.0089-89.2436Q111.372-90.6747 124.266-87.2065Q127.061-86.3721 127.969-85.5037Q128.878-84.6354 129.607-81.9463Q133.153-69.0238 131.734-55.5822Q130.315-42.1406 124.119-29.4454Q117.923-16.7502 107.081-5.96107ZM87.9709-93.9131L80.9801-86.8949L129.421-38.4017L136.464-45.4451ZM19.1042-25.019L67.5448 23.5021L74.5882 16.4309L26.095-32.0098ZM52.2795-22.7744L65.2249-9.7486Q65.999-9.00199 67.038-9.00199Q68.077-9.00199 68.8511-9.7486Q69.5698-10.5226 69.5698-11.5879Q69.5698-12.6532 68.8511-13.4273L55.8778-26.3727Q55.1316-27.1193 54.0524-27.1193Q52.9731-27.1193 52.2795-26.3727Q51.5329-25.6265 51.5329-24.5875Q51.5329-23.5485 52.2795-22.7744ZM60.8694-31.4448L73.8952-18.4189Q74.6419-17.6728 75.6946-17.6728Q76.7473-17.6728 77.494-18.4189Q78.2401-19.1655 78.2401-20.2448Q78.2401-21.324 77.494-22.0702L64.5485-34.9905Q63.7745-35.7371 62.709-35.7371Q61.6434-35.7371 60.8694-34.9905Q60.1507-34.2443 60.1507-33.2178Q60.1507-32.1914 60.8694-31.4448ZM69.5397-40.0625L82.5656-27.0892Q83.3122-26.3431 84.3387-26.3431Q85.3651-26.3431 86.1392-27.0892Q86.8579-27.8633 86.8579-28.9025Q86.8579-29.9418 86.1392-30.6349L73.1384-43.6613Q72.3918-44.3795 71.3391-44.3795Q70.2863-44.3795 69.5397-43.6613Q68.821-42.8872 68.821-41.848Q68.821-40.8087 69.5397-40.0625ZM78.2105-48.6524L91.1029-35.6796Q91.877-35.0134 92.9425-35.0134Q94.008-35.0134 94.7821-35.6796Q95.5282-36.4536 95.5282-37.4927Q95.5282-38.5317 94.7821-39.3057L81.8088-52.3037Q81.0096-53.0503 79.9831-53.0503Q78.9567-53.0503 78.2105-52.3037Q77.4918-51.5575 77.4918-50.4783Q77.4918-49.3991 78.2105-48.6524ZM86.8808-57.3232L99.8011-44.3773Q100.547-43.6312 101.613-43.6312Q102.678-43.6312 103.424-44.3773Q104.171-45.0961 104.171-46.149Q104.171-47.202 103.424-47.9482L90.4265-61.0019Q89.6804-61.7206 88.6537-61.7206Q87.627-61.7206 86.8808-61.0019Q86.1342-60.2279 86.1342-59.1623Q86.1342-58.0968 86.8808-57.3232ZM61.807-15.7304L97.2595-51.1829L93.6886-54.7816L58.2887-19.3013Z"/>
  </g>
  <g id="Light-L" transform="matrix(1 0 0 1 1076.38 1556)">
   <path d="M111.632-0.374614Q123.656-12.3985 130.431-26.9292Q137.207-41.4598 138.618-56.4527Q140.029-71.4456 135.948-84.8888Q134.54-89.4902 132.748-91.2653Q130.956-93.0404 126.402-94.4821Q113.039-98.5625 98.0233-97.1515Q83.0073-95.7405 68.453-88.9646Q53.8988-82.1887 41.7945-70.1185Q29.8039-58.0946 23.0113-43.5404Q16.2188-28.9861 14.8078-13.953Q13.3968 1.0801 17.5243 14.4428Q18.9189 18.9971 20.7176 20.8124Q22.5162 22.6277 27.0705 23.989Q40.5137 28.0702 55.5066 26.6592Q70.4995 25.2483 85.0301 18.4723Q99.5608 11.6964 111.632-0.374614ZM106.833-5.15943Q95.7244 5.94934 82.6762 12.2482Q69.6279 18.547 55.9453 19.8946Q42.2627 21.2422 29.2688 17.524Q26.3881 16.7278 25.5868 15.9095Q24.7855 15.0911 23.9553 12.1098Q20.2241-0.816751 21.5887-14.4823Q22.9533-28.1478 29.2351-41.203Q35.5169-54.2582 46.6264-65.3329Q57.7011-76.4424 70.7729-82.7477Q83.8448-89.0531 97.4937-90.4173Q111.143-91.7816 124.056-88.0845Q127.003-87.1738 127.845-86.3721Q128.687-85.5704 129.53-82.6905Q133.249-69.7299 131.877-56.0306Q130.506-42.3314 124.225-29.2831Q117.943-16.2349 106.833-5.15943ZM86.5777-93.7031L80.9227-88.0018L129.383-39.5086L135.071-45.1969ZM18.3025-25.3816L66.7624 23.1587L72.4507 17.4233L23.9575-31.0366ZM50.6192-22.6981L64.118-9.11884Q64.8157-8.46746 65.7116-8.46746Q66.6075-8.46746 67.3052-9.11884Q67.9094-9.81655 67.9094-10.7291Q67.9094-11.6416 67.3052-12.3393L53.7592-25.8382Q53.1086-26.4895 52.1725-26.4895Q51.2364-26.4895 50.6192-25.8382Q49.9678-25.1876 49.9678-24.2917Q49.9678-23.3958 50.6192-22.6981ZM59.4762-31.6356L73.0555-18.0563Q73.7068-17.4057 74.6259-17.4057Q75.5449-17.4057 76.1963-18.0563Q76.8469-18.7076 76.8469-19.6437Q76.8469-20.5798 76.1963-21.2304L62.6974-34.7423Q61.9997-35.3937 61.0868-35.3937Q60.1739-35.3937 59.4762-34.7423Q58.8719-34.0917 58.8719-33.1893Q58.8719-32.2869 59.4762-31.6356ZM68.4136-40.5397L81.9929-26.9937Q82.6443-26.3431 83.5466-26.3431Q84.449-26.3431 85.1467-26.9937Q85.751-27.6914 85.751-28.5877Q85.751-29.4839 85.1467-30.1004L71.5544-43.6805Q70.903-44.284 69.984-44.284Q69.065-44.284 68.4136-43.6805Q67.8093-42.9828 67.8093-42.0865Q67.8093-41.1903 68.4136-40.5397ZM77.3518-49.3967L90.8166-35.8515Q91.5143-35.2805 92.4272-35.2805Q93.3401-35.2805 94.0378-35.8515Q94.6884-36.5492 94.6884-37.445Q94.6884-38.3409 94.0378-39.0386L80.4918-52.5708Q79.8071-53.2222 78.9048-53.2222Q78.0024-53.2222 77.3518-52.5708Q76.7475-51.9202 76.7475-50.9841Q76.7475-50.0481 77.3518-49.3967ZM86.2892-58.3349L99.8011-44.8352Q100.452-44.1846 101.365-44.1846Q102.278-44.1846 102.928-44.8352Q103.58-45.4395 103.58-46.3589Q103.58-47.2783 102.928-47.9289L89.3959-61.5553Q88.7454-62.1596 87.8426-62.1596Q86.9398-62.1596 86.2892-61.5553Q85.6378-60.8576 85.6378-59.9447Q85.6378-59.0318 86.2892-58.3349ZM60.3949-15.7878L96.1715-51.5644L93.0778-54.7053L57.3345-18.8815Z"/>
  </g>
  <g id="Thin-L" transform="matrix(1 0 0 1 781.02 1556)">
   <path d="M109.335-1.33391Q121.207-13.2064 127.907-27.4845Q134.607-41.7626 135.955-56.5789Q137.303-71.3952 133.146-84.8888Q131.889-88.9351 130.476-90.3441Q129.063-91.7532 125.09-93.0181Q111.676-97.174 96.8244-95.8262Q81.9725-94.4784 67.6581-87.7782Q53.3437-81.078 41.3908-69.1341Q29.5261-57.2616 22.822-42.9473Q16.1178-28.6329 14.77-13.7764Q13.4223 1.0801 17.6507 14.4933Q18.843 18.467 20.2884 19.9163Q21.7338 21.3656 25.7075 22.5501Q39.2011 26.7072 54.0174 25.3594Q68.8336 24.0116 83.1118 17.3114Q97.3899 10.6111 109.335-1.33391ZM106.505-4.09919Q95.0429 7.36284 81.5277 13.7626Q68.0125 20.1623 53.9765 21.4342Q39.9404 22.7061 26.9214 18.7607Q23.788 17.8385 23.0751 17.1211Q22.3623 16.4037 21.4311 13.2455Q17.4221 0.243482 18.6985-13.7881Q19.9749-27.8196 26.3702-41.3671Q32.7654-54.9147 44.2286-66.3676Q55.6816-77.8309 69.2331-84.2624Q82.7845-90.6939 96.8121-91.9697Q110.84-93.2455 123.778-89.2456Q126.927-88.234 127.681-87.5205Q128.435-86.807 129.429-83.6748Q133.375-70.6637 132.067-56.6237Q130.759-42.5837 124.363-29.0686Q117.968-15.5534 106.505-4.09919ZM84.735-93.4253L80.8468-89.4658L129.332-40.9726L133.228-44.8686ZM17.2423-25.8613L65.7276 22.7045L69.6237 18.7359L21.1305-29.7495ZM48.4232-22.5972L62.6541-8.28592Q63.2508-7.76049 63.9573-7.76049Q64.6638-7.76049 65.2606-8.28592Q65.7135-8.8827 65.7135-9.59313Q65.7135-10.3036 65.2606-10.9003L50.9572-25.1312Q50.433-25.6566 49.6863-25.6566Q48.9396-25.6566 48.4232-25.1312Q47.8978-24.607 47.8978-23.9005Q47.8978-23.194 48.4232-22.5972ZM57.6335-31.8879L71.9448-17.5766Q72.4702-17.0524 73.2124-17.0524Q73.9545-17.0524 74.48-17.5766Q75.0042-18.102 75.0042-18.8487Q75.0042-19.5955 74.48-20.1197L60.2491-34.414Q59.6523-34.9395 58.9413-34.9395Q58.2303-34.9395 57.6335-34.414Q57.1806-33.8898 57.1806-33.1516Q57.1806-32.4133 57.6335-31.8879ZM66.9242-41.1707L81.2354-26.8673Q81.7609-26.3431 82.4991-26.3431Q83.2374-26.3431 83.8342-26.8673Q84.287-27.4641 84.287-28.1712Q84.287-28.8783 83.8342-29.3935L69.4594-43.7059Q68.934-44.1576 68.1918-44.1576Q67.4496-44.1576 66.9242-43.7059Q66.4713-43.1092 66.4713-42.4021Q66.4713-41.6949 66.9242-41.1707ZM76.2161-50.381L90.4379-36.0788Q91.0346-35.6338 91.7457-35.6338Q92.4567-35.6338 93.0535-36.0788Q93.5777-36.6756 93.5777-37.3821Q93.5777-38.0886 93.0535-38.6854L78.7501-52.9241Q78.2168-53.4495 77.4785-53.4495Q76.7403-53.4495 76.2161-52.9241Q75.7632-52.3999 75.7632-51.6531Q75.7632-50.9064 76.2161-50.381ZM85.5068-59.6729L99.8011-45.4408Q100.325-44.9166 101.036-44.9166Q101.747-44.9166 102.272-45.4408Q102.797-45.8937 102.797-46.6365Q102.797-47.3793 102.272-47.9035L88.0329-62.2873Q87.5087-62.7402 86.7698-62.7402Q86.031-62.7402 85.5068-62.2873Q84.9813-61.6905 84.9813-60.9795Q84.9813-60.2685 85.5068-59.6729ZM58.5272-15.8637L94.7325-52.0691L92.2699-54.6043L56.0724-18.3264Z"/>
  </g>
  <g id="Ultralight-L" transform="matrix(1 0 0 1 485 1556)">
   <path d="M108.158-1.82526Q119.953-13.6202 126.614-27.769Q133.275-41.9177 134.591-56.6435Q135.907-71.3693 131.711-84.8888Q130.532-88.6507 129.313-89.8724Q128.094-91.094 124.417-92.2683Q110.978-96.4628 96.2103-95.1474Q81.4425-93.832 67.2509-87.1705Q53.0593-80.5091 41.184-68.63Q29.3839-56.835 22.725-42.6435Q16.0661-28.4519 14.7507-13.6859Q13.4353 1.0801 17.7154 14.5192Q18.8042 18.1955 20.0686 19.4573Q21.333 20.7192 25.0093 21.8131Q38.5288 26.009 53.2546 24.6936Q67.9804 23.3782 82.1292 16.7167Q96.2779 10.0553 108.158-1.82526ZM106.337-3.55615Q94.6938 8.08683 80.9395 14.5383Q67.1851 20.9897 52.968 22.2228Q38.7509 23.456 25.7191 19.3941Q22.4562 18.4074 21.7887 17.7417Q21.1211 17.076 20.1382 13.8272Q15.9869 0.786528 17.2182-13.4325Q18.4494-27.6515 24.9027-41.4512Q31.3561-55.2509 43.0005-66.8977Q54.6472-78.5421 68.4443-85.0382Q82.2415-91.5343 96.4631-92.7648Q110.685-93.9954 123.636-89.8404Q126.889-88.7771 127.597-88.1088Q128.306-87.4405 129.378-84.179Q133.44-71.1421 132.164-56.9275Q130.888-42.713 124.435-28.9586Q117.981-15.2043 106.337-3.55615ZM83.7912-93.2831L80.8079-90.2156L129.306-41.7224L132.284-44.7005ZM16.6992-26.107L65.1976 22.4719L68.1757 19.4082L19.6825-29.0902ZM47.2984-22.5455L61.9042-7.8593Q62.4493-7.39839 63.0588-7.39839Q63.6683-7.39839 64.2134-7.8593Q64.5887-8.40438 64.5887-9.01131Q64.5887-9.61824 64.2134-10.1633L49.522-24.7691Q49.0626-25.23 48.4128-25.23Q47.7631-25.23 47.2984-24.7691Q46.8375-24.3096 46.8375-23.7001Q46.8375-23.0906 47.2984-22.5455ZM56.6897-32.0171L71.3759-17.3309Q71.8368-16.8715 72.4884-16.8715Q73.14-16.8715 73.6009-17.3309Q74.0604-17.7918 74.0604-18.4416Q74.0604-19.0913 73.6009-19.5508L58.9951-34.2459Q58.45-34.7068 57.8424-34.7068Q57.2347-34.7068 56.6897-34.2459Q56.3143-33.7864 56.3143-33.1322Q56.3143-32.478 56.6897-32.0171ZM66.1613-41.4939L80.8475-26.8026Q81.3084-26.3431 81.9626-26.3431Q82.6168-26.3431 83.1619-26.8026Q83.5372-27.3477 83.5372-27.9579Q83.5372-28.5681 83.1619-29.0313L68.3863-43.719Q67.9254-44.0929 67.2738-44.0929Q66.6222-44.0929 66.1613-43.719Q65.786-43.1739 65.786-42.5637Q65.786-41.9534 66.1613-41.4939ZM75.6344-50.8852L90.2439-36.1952Q90.789-35.8147 91.3966-35.8147Q92.0043-35.8147 92.5493-36.1952Q93.0088-36.7403 93.0088-37.3498Q93.0088-37.9593 92.5493-38.5044L77.858-53.105Q77.4022-53.5659 76.748-53.5659Q76.0938-53.5659 75.6344-53.105Q75.259-52.6455 75.259-51.9958Q75.259-51.3461 75.6344-50.8852ZM85.106-60.3582L99.8011-45.751Q100.261-45.2915 100.868-45.2915Q101.476-45.2915 101.935-45.751Q102.396-46.1263 102.396-46.7787Q102.396-47.431 101.935-47.8905L87.3348-62.6622Q86.8753-63.0376 86.2204-63.0376Q85.5655-63.0376 85.106-62.6622Q84.6451-62.1172 84.6451-61.5095Q84.6451-60.9019 85.106-60.3582ZM57.5705-15.9026L93.9955-52.3276L91.8561-54.5526L55.4259-18.042Z"/>
  </g>
  <g id="Black-M" transform="matrix(1 0 0 1 2868.93 1126)">
   <path d="M94.8884-4.84058Q104.822-14.8317 110.467-26.9967Q116.111-39.1618 117.353-51.6609Q118.595-64.16 115.428-75.0159Q113.947-79.9544 111.555-82.3441Q109.162-84.7338 104.223-86.2207Q93.3155-89.4441 80.8451-88.1739Q68.3747-86.9038 56.1812-81.2878Q43.9877-75.6718 34.0485-65.681Q24.0629-55.747 18.4442-43.5535Q12.8255-31.36 11.5553-18.8869Q10.2852-6.41377 13.5083 4.494Q14.9954 9.4328 17.385 11.8251Q19.7746 14.2174 24.7134 15.6991Q35.5693 18.8654 48.0684 17.6238Q60.5674 16.3822 72.7325 10.7377Q84.8976 5.09313 94.8884-4.84058ZM85.2411-14.4936Q77.2026-6.51217 67.9685-1.86379Q58.7344 2.78459 48.8448 3.90952Q38.9553 5.03446 29.0958 2.53962Q27.6292 2.21909 27.3087 1.86737Q26.9883 1.51565 26.5481-0.138745Q24.1161-9.98725 25.3009-19.817Q26.4857-29.6467 31.1028-38.8493Q35.7199-48.052 43.7013-56.0279Q51.6773-64.0094 60.8827-68.6263Q70.0881-73.2433 79.915-74.4281Q89.742-75.6128 99.5963-73.1864Q101.245-72.7409 101.597-72.4205Q101.948-72.1001 102.269-70.6335Q104.763-60.7795 103.639-50.8872Q102.514-40.9949 97.8682-31.7608Q93.2226-22.5267 85.2411-14.4936ZM74.6499-85.044L64.9165-75.311L104.765-35.5145L114.446-45.1962ZM14.6849-25.0794L54.533 14.7168L64.2148 5.03538L24.4183-34.8127ZM42.3347-24.9817L54.1897-13.1215Q55.2187-12.0922 56.7004-12.0922Q58.1821-12.0922 59.2112-13.1215Q60.2408-14.1506 60.2408-15.6351Q60.2408-17.1195 59.2112-18.1486L47.3566-30.0035Q46.3272-31.0329 44.8429-31.0329Q43.3586-31.0329 42.3347-30.0035Q41.3054-28.9742 41.3054-27.4925Q41.3054-26.0108 42.3347-24.9817ZM49.1997-31.8519L61.0599-19.9917Q62.0321-18.9624 63.5422-18.9624Q65.0523-18.9624 66.0817-19.9917Q67.111-21.0211 67.111-22.5054Q67.111-23.9897 66.0817-25.0191L54.2267-36.8682Q53.1977-37.8976 51.6847-37.8976Q50.1717-37.8976 49.1997-36.8682Q48.1701-35.8389 48.1701-34.3601Q48.1701-32.8812 49.1997-31.8519ZM56.0128-38.6595L67.8729-26.8048Q68.9023-25.8326 70.4097-25.8326Q71.917-25.8326 72.9461-26.8048Q73.9186-27.8339 73.9186-29.3442Q73.9186-30.8544 72.9461-31.8783L61.0917-43.7384Q60.0624-44.7681 58.5523-44.7681Q57.0421-44.7681 56.0128-43.7384Q54.9832-42.7094 54.9832-41.1991Q54.9832-39.6888 56.0128-38.6595ZM62.9972-45.6387L74.8466-33.784Q75.8757-32.7599 77.3601-32.7599Q78.8446-32.7599 79.8737-33.784Q80.903-34.8131 80.903-36.2948Q80.903-37.7765 79.8737-38.8056L68.019-50.666Q66.9842-51.6953 65.5053-51.6953Q64.0265-51.6953 62.9972-50.666Q61.9675-49.6366 61.9675-48.1523Q61.9675-46.668 62.9972-45.6387ZM69.8674-52.5089L81.7165-40.6539Q82.6888-39.6246 84.2018-39.6246Q85.7148-39.6246 86.7441-40.6539Q87.7735-41.6835 87.7735-43.1651Q87.7735-44.6467 86.7441-45.676L74.8837-57.5359Q73.8544-58.5655 72.347-58.5655Q70.8396-58.5655 69.8674-57.5359Q68.838-56.5068 68.838-55.0224Q68.838-53.5379 69.8674-52.5089ZM51.6034-17.3739L82.3553-48.1258L77.3332-53.1476L46.5868-22.396Z"/>
  </g>
  <g id="Heavy-M" transform="matrix(1 0 0 1 2573.08 1126)">
   <path d="M93.4565-5.40936Q103.281-15.2773 108.85-27.2888Q114.42-39.3003 115.641-51.6332Q116.863-63.9662 113.716-74.7059Q112.291-79.4535 110.044-81.6916Q107.798-83.9297 103.053-85.3717Q92.2881-88.5623 79.9758-87.3188Q67.6635-86.0752 55.6291-80.5276Q43.5946-74.9799 33.7516-65.1097Q23.9001-55.2853 18.3442-43.2509Q12.7883-31.2165 11.5448-18.896Q10.3012-6.57547 13.4941 4.18919Q14.9339 8.93444 17.1731 11.1819Q19.4124 13.4293 24.1576 14.8527Q34.8973 17.9997 47.2303 16.778Q59.5633 15.5562 71.5748 9.98675Q83.5862 4.41726 93.4565-5.40936ZM84.7363-14.1437Q76.6484-6.0995 67.3199-1.42068Q57.9913 3.25813 48.0188 4.38214Q38.0463 5.50615 28.1439 2.9748Q26.5573 2.61456 26.1448 2.17201Q25.7322 1.72946 25.2683-0.0371779Q22.7947-9.9068 23.9706-19.8275Q25.1464-29.7482 29.7952-39.0479Q34.444-48.3476 42.4882-56.3753Q50.516-64.4195 59.8239-69.0695Q69.1318-73.7194 79.0443-74.8952Q88.9567-76.0711 98.8405-73.6139Q100.591-73.1313 101.034-72.7188Q101.478-72.3062 101.841-70.7197Q104.372-60.8336 103.247-50.8529Q102.122-40.8722 97.4511-31.5437Q92.7805-22.2151 84.7363-14.1437ZM73.3044-84.0457L64.4103-75.1493L103.708-35.8784L112.575-44.7453ZM14.8201-25.5591L54.1183 13.7141L62.9852 4.84494L23.7142-34.4533ZM42.1258-25.1332L53.4754-13.7648Q54.4134-12.8291 55.7547-12.8291Q57.0959-12.8291 58.0339-13.7648Q58.9674-14.7028 58.9674-16.0523Q58.9674-17.4017 58.0339-18.3397L46.682-29.6894Q45.7463-30.6251 44.3957-30.6251Q43.0451-30.6251 42.1258-29.6894Q41.19-28.7537 41.19-27.4124Q41.19-26.0712 42.1258-25.1332ZM48.9052-31.9313L60.2736-20.563Q61.1657-19.6273 62.5299-19.6273Q63.8941-19.6273 64.8299-20.563Q65.7655-21.4987 65.7655-22.8493Q65.7655-24.1999 64.8299-25.1356L53.4802-36.4712Q52.5422-37.4069 51.1709-37.4069Q49.7996-37.4069 48.9052-36.4712Q47.9718-35.5355 47.9718-34.2013Q47.9718-32.8671 48.9052-31.9313ZM55.6598-38.6695L67.0282-27.3175Q67.9639-26.4255 69.3199-26.4255Q70.6759-26.4255 71.6139-27.3175Q72.5037-28.2555 72.5037-29.6186Q72.5037-30.9817 71.6139-31.901L60.2597-43.2694Q59.3239-44.2028 57.9597-44.2028Q56.5955-44.2028 55.6598-43.2694Q54.7264-42.3314 54.7264-40.9683Q54.7264-39.6052 55.6598-38.6695ZM62.5453-45.5363L73.8785-34.1843Q74.8165-33.2673 76.166-33.2673Q77.5154-33.2673 78.4534-34.1843Q79.3891-35.1223 79.3891-36.4636Q79.3891-37.8048 78.4534-38.7428L67.1015-50.1089Q66.1493-51.0446 64.8152-51.0446Q63.481-51.0446 62.5453-50.1089Q61.6118-49.1732 61.6118-47.8226Q61.6118-46.472 62.5453-45.5363ZM69.3434-52.3345L80.679-40.9848Q81.5711-40.0491 82.9423-40.0491Q84.3136-40.0491 85.2493-40.9848Q86.1851-41.9182 86.1851-43.2606Q86.1851-44.603 85.2493-45.5387L73.8833-56.9094Q72.9476-57.8428 71.5915-57.8428Q70.2355-57.8428 69.3434-56.9094Q68.4077-55.9714 68.4077-54.6219Q68.4077-53.2724 69.3434-52.3345ZM50.9157-18.0149L80.8486-47.9479L76.2947-52.5041L46.3781-22.5689Z"/>
  </g>
  <g id="Bold-M" transform="matrix(1 0 0 1 2277.32 1126)">
   <path d="M91.8547-6.04563Q101.556-15.7758 107.042-27.6155Q112.527-39.4552 113.727-51.6023Q114.926-63.7495 111.801-74.3592Q110.438-78.8931 108.355-80.9617Q106.272-83.0302 101.743-84.422Q91.1388-87.5759 79.0034-86.3622Q66.868-85.1484 55.0114-79.6771Q43.1549-74.2059 33.4195-64.4706Q23.7179-54.7689 18.2323-42.9124Q12.7467-31.0558 11.533-18.9061Q10.3192-6.75635 13.4783 3.84822Q14.865 8.37694 16.9361 10.4623Q19.0072 12.5477 23.5359 13.9058Q34.1457 17.0313 46.2928 15.8318Q58.44 14.6323 70.2796 9.14675Q82.1193 3.6612 91.8547-6.04563ZM84.1715-13.7522Q76.0286-5.63786 66.5944-0.925Q57.1602 3.78786 47.0948 4.91083Q37.0295 6.0338 27.079 3.46162Q25.3583 3.05696 24.8427 2.51279Q24.3271 1.96863 23.8367 0.0764395Q21.3166-9.81681 22.4824-19.8393Q23.6483-29.8617 28.3325-39.27Q33.0168-48.6782 41.1312-56.7639Q49.2169-64.8783 58.6395-69.5652Q68.062-74.252 78.0702-75.4178Q88.0783-76.5836 97.9951-74.0922Q99.8586-73.568 100.405-73.0524Q100.952-72.5368 101.362-70.8162Q103.934-60.8942 102.809-50.8146Q101.683-40.735 96.9845-31.3008Q92.2859-21.8666 84.1715-13.7522ZM71.7993-82.929L63.844-74.9685L102.527-36.2854L110.482-44.2408ZM14.9713-26.0958L53.6543 12.5924L61.6097 4.63191L22.9266-34.0512ZM41.892-25.3026L52.6765-14.4844Q53.5126-13.6534 54.6967-13.6534Q55.8809-13.6534 56.717-14.4844Q57.5428-15.3205 57.5428-16.5189Q57.5428-17.7174 56.717-18.5535L45.9273-29.3379Q45.0964-30.169 43.8954-30.169Q42.6944-30.169 41.892-29.3379Q41.061-28.507 41.061-27.3229Q41.061-26.1387 41.892-25.3026ZM48.5759-32.0202L59.3941-21.202Q60.1966-20.3711 61.3975-20.3711Q62.5985-20.3711 63.4295-21.202Q64.2604-22.033 64.2604-23.2341Q64.2604-24.4351 63.4295-25.266L52.645-36.027Q51.8089-36.858 50.5962-36.858Q49.3834-36.858 48.5759-36.027Q47.75-35.1961 47.75-34.0237Q47.75-32.8513 48.5759-32.0202ZM55.2649-38.6807L66.0832-27.8911Q66.9142-27.0887 68.1008-27.0887Q69.2875-27.0887 70.1236-27.8911Q70.9209-28.7272 70.9209-29.9257Q70.9209-31.1241 70.1236-31.9264L59.3289-42.7447Q58.4979-43.5705 57.2969-43.5705Q56.096-43.5705 55.2649-42.7447Q54.4391-41.9086 54.4391-40.7101Q54.4391-39.5117 55.2649-38.6807ZM62.0397-45.4217L72.7955-34.6321Q73.6316-33.8349 74.8301-33.8349Q76.0286-33.8349 76.8647-34.6321Q77.6956-35.4683 77.6956-36.6524Q77.6956-37.8365 76.8647-38.6726L66.0751-49.4857Q65.2155-50.3167 64.0431-50.3167Q62.8707-50.3167 62.0397-49.4857Q61.2139-48.6548 61.2139-47.4537Q61.2139-46.2527 62.0397-45.4217ZM68.7574-52.1394L79.5183-41.3548Q80.3207-40.5239 81.5335-40.5239Q82.7462-40.5239 83.5772-41.3548Q84.4082-42.1807 84.4082-43.3674Q84.4082-44.5542 83.5772-45.3851L72.7641-56.2085Q71.9332-57.0343 70.7465-57.0343Q69.5597-57.0343 68.7574-56.2085Q67.9263-55.3724 67.9263-54.1739Q67.9263-52.9754 68.7574-52.1394ZM50.1463-18.732L79.1632-47.7488L75.1329-51.7842L46.1447-22.7622Z"/>
  </g>
  <g id="Semibold-M" transform="matrix(1 0 0 1 1981.27 1126)">
   <path d="M90.7504-6.48428Q100.367-16.1195 105.795-27.8407Q111.223-39.562 112.407-51.581Q113.591-63.6 110.481-74.1202Q109.16-78.5069 107.19-80.4585Q105.22-82.41 100.841-83.7673Q90.3465-86.8959 78.333-85.7027Q66.3195-84.5095 54.5856-79.0909Q42.8517-73.6723 33.1905-64.03Q23.5922-54.4129 18.1551-42.679Q12.7181-30.9451 11.5248-18.9131Q10.3316-6.88105 13.4674 3.61316Q14.8175 7.99261 16.7726 9.96628Q18.7278 11.9399 23.1073 13.253Q33.6275 16.3636 45.6465 15.1795Q57.6656 13.9953 69.3868 8.56766Q81.108 3.13998 90.7504-6.48428ZM83.7821-13.4824Q75.6012-5.31961 66.0942-0.583279Q56.5871 4.15306 46.4578 5.2753Q36.3285 6.39755 26.3449 3.79723Q24.5317 3.36195 23.9451 2.74773Q23.3585 2.13351 22.8498 0.154767Q20.2976-9.75477 21.4565-19.8474Q22.6155-29.94 27.3242-39.4231Q32.0329-48.9061 40.1957-57.0318Q48.3214-65.1946 57.8229-69.9069Q67.3245-74.6192 77.3986-75.7781Q87.4727-76.937 97.4122-74.4219Q99.3539-73.869 99.9717-73.2824Q100.589-72.6957 101.032-70.8827Q103.632-60.936 102.506-50.7882Q101.381-40.6404 96.6628-31.1333Q91.945-21.6263 83.7821-13.4824ZM70.7617-82.1591L63.4536-74.8439L101.713-36.566L109.04-43.893ZM15.0755-26.4658L53.3345 11.8192L60.6615 4.48504L22.3836-33.774ZM41.7309-25.4194L52.1257-14.9805Q52.8915-14.2216 53.9674-14.2216Q55.0432-14.2216 55.8091-14.9805Q56.5607-15.7464 56.5607-16.8407Q56.5607-17.935 55.8091-18.7009L45.4071-29.0957Q44.6484-29.8545 43.5505-29.8545Q42.4526-29.8545 41.7309-29.0957Q40.972-28.337 40.972-27.2611Q40.972-26.1853 41.7309-25.4194ZM48.3488-32.0815L58.7877-21.6426Q59.5284-20.8838 60.6168-20.8838Q61.7053-20.8838 62.4641-21.6426Q63.2228-22.4014 63.2228-23.4993Q63.2228-24.5972 62.4641-25.3559L52.0693-35.7208Q51.3034-36.4796 50.2-36.4796Q49.0965-36.4796 48.3488-35.7208Q47.5971-34.9621 47.5971-33.9012Q47.5971-32.8403 48.3488-32.0815ZM54.9927-38.6885L65.4317-28.2865Q66.1905-27.5459 67.2604-27.5459Q68.3304-27.5459 69.0962-28.2865Q69.8298-29.0524 69.8298-30.1373Q69.8298-31.2223 69.0962-31.9439L58.6872-42.383Q57.9284-43.1345 56.84-43.1345Q55.7515-43.1345 54.9927-42.383Q54.241-41.6171 54.241-40.5321Q54.241-39.4472 54.9927-38.6885ZM61.6912-45.3427L72.0489-34.9409Q72.8148-34.2262 73.9092-34.2262Q75.0036-34.2262 75.7694-34.9409Q76.5282-35.7067 76.5282-36.7826Q76.5282-37.8584 75.7694-38.6243L65.3675-49.0561Q64.5717-49.8149 63.5108-49.8149Q62.4499-49.8149 61.6912-49.0561Q60.9396-48.2973 60.9396-47.1994Q60.9396-46.1015 61.6912-45.3427ZM68.3533-52.0049L78.7182-41.61Q79.4587-40.8513 80.5622-40.8513Q81.6657-40.8513 82.4244-41.61Q83.1832-42.3617 83.1832-43.4411Q83.1832-44.5205 82.4244-45.2792L71.9926-55.7253Q71.2339-56.477 70.1639-56.477Q69.0939-56.477 68.3533-55.7253Q67.5945-54.9594 67.5945-53.865Q67.5945-52.7707 68.3533-52.0049ZM49.6159-19.2263L78.0012-47.6116L74.332-51.2879L45.9837-22.8955Z"/>
  </g>
  <g id="Medium-M" transform="matrix(1 0 0 1 1685.06 1126)">
   <path d="M89.9131-6.81687Q99.4661-16.3801 104.85-28.0115Q110.234-39.6429 111.406-51.5648Q112.579-63.4867 109.479-73.939Q108.192-78.214 106.307-80.0769Q104.422-81.9398 100.156-83.2708Q89.7457-86.3803 77.8247-85.2027Q65.9036-84.025 54.2628-78.6463Q42.6219-73.2677 33.0169-63.6959Q23.497-54.1429 18.0967-42.502Q12.6963-30.8612 11.5186-18.9184Q10.341-6.9756 13.4591 3.43492Q14.7815 7.7012 16.6487 9.59015Q18.516 11.4791 22.7823 12.7581Q33.2346 15.8574 45.1565 14.6849Q57.0784 13.5124 68.7098 8.12856Q80.3412 2.74477 89.9131-6.81687ZM83.4869-13.2777Q75.2772-5.0783 65.7149-0.324172Q56.1526 4.42996 45.9748 5.55166Q35.797 6.67337 25.7882 4.0517Q23.9049 3.5932 23.2644 2.92587Q22.624 2.25853 22.1015 0.214158Q19.5249-9.70773 20.6786-19.8535Q21.8324-29.9993 26.5596-39.5392Q31.2868-49.079 39.4864-57.2349Q47.6423-65.4345 57.2038-70.166Q66.7653-74.8976 76.8894-76.0513Q87.0136-77.2049 96.9703-74.6719Q98.9712-74.0973 99.6428-73.4568Q100.314-72.8163 100.782-70.9331Q103.403-60.9677 102.277-50.7682Q101.151-40.5687 96.4189-31.0064Q91.6865-21.4441 83.4869-13.2777ZM69.9749-81.5753L63.1575-74.7494L101.095-36.7788L107.945-43.6293ZM15.1545-26.7464L53.092 11.2328L59.9425 4.37369L21.9719-33.5638ZM41.6087-25.508L51.708-15.3566Q52.4206-14.6525 53.4143-14.6525Q54.408-14.6525 55.1207-15.3566Q55.8161-16.0692 55.8161-17.0846Q55.8161-18.1 55.1207-18.8126L45.0126-28.912Q44.3087-29.6161 43.289-29.6161Q42.2693-29.6161 41.6087-28.912Q40.9046-28.208 40.9046-27.2143Q40.9046-26.2206 41.6087-25.508ZM48.1766-32.128L58.328-21.9766Q59.0218-21.2726 60.0249-21.2726Q61.028-21.2726 61.7321-21.9766Q62.4361-22.6807 62.4361-23.7004Q62.4361-24.7201 61.7321-25.4241L51.6328-35.4886Q50.9201-36.1927 49.8995-36.1927Q48.879-36.1927 48.1766-35.4886Q47.4812-34.7846 47.4812-33.8084Q47.4812-32.8321 48.1766-32.128ZM54.7863-38.6943L64.9377-28.5863Q65.6418-27.8926 66.6232-27.8926Q67.6046-27.8926 68.3172-28.5863Q69.0024-29.2989 69.0024-30.2978Q69.0024-31.2967 68.3172-31.9572L58.2007-42.1087Q57.4966-42.804 56.4935-42.804Q55.4904-42.804 54.7863-42.1087Q54.0909-41.3961 54.0909-40.3972Q54.0909-39.3983 54.7863-38.6943ZM61.427-45.2828L71.4828-35.1749Q72.1955-34.5229 73.2109-34.5229Q74.2263-34.5229 74.939-35.1749Q75.6429-35.8876 75.6429-36.8813Q75.6429-37.875 74.939-38.5876L64.8309-48.7303Q64.0835-49.4344 63.1072-49.4344Q62.1309-49.4344 61.427-48.7303Q60.7316-48.0263 60.7316-47.0066Q60.7316-45.9869 61.427-45.2828ZM68.047-51.9029L78.1115-41.8034Q78.8051-41.0995 79.8257-41.0995Q80.8463-41.0995 81.5503-41.8034Q82.2544-42.4989 82.2544-43.4969Q82.2544-44.4949 81.5503-45.1989L71.4076-55.3589Q70.7036-56.0544 69.7221-56.0544Q68.7406-56.0544 68.047-55.3589Q67.3429-54.6463 67.3429-53.6309Q67.3429-52.6154 68.047-51.9029ZM49.2138-19.6011L77.1202-47.5075L73.7247-50.9116L45.8617-22.9966Z"/>
  </g>
  <g id="Regular-M" transform="matrix(1 0 0 1 1389.01 1126)">
   <path d="M88.821-7.25069Q98.2903-16.72 103.617-28.2343Q108.943-39.7485 110.101-51.5438Q111.258-63.339 108.174-73.7026Q106.928-77.8319 105.155-79.5792Q103.382-81.3265 99.2635-82.6233Q88.9621-85.7078 77.1617-84.5504Q65.3612-83.393 53.8416-78.0665Q42.3221-72.7399 32.7904-63.2601Q23.3728-53.7908 18.0204-42.2712Q12.668-30.7517 11.5106-18.9253Q10.3532-7.09893 13.4483 3.20244Q14.7345 7.32109 16.4871 9.09955Q18.2397 10.878 22.3584 12.1125Q32.7221 15.1971 44.5173 14.0398Q56.3125 12.8824 67.8267 7.55584Q79.341 2.22928 88.821-7.25069ZM83.1019-13.0108Q74.8546-4.76355 65.2202 0.0137935Q55.5859 4.79114 45.3448 5.91213Q35.1037 7.03313 25.0622 4.38362Q23.0874 3.89484 22.3767 3.15822Q21.666 2.4216 21.1254 0.291624Q18.5171-9.64638 19.664-19.8616Q20.8109-30.0768 25.5623-39.6906Q30.3137-49.3044 38.5612-57.4998Q46.7566-65.7473 56.3963-70.504Q66.0359-75.2608 76.2253-76.4076Q86.4146-77.5544 96.3938-74.998Q98.472-74.395 99.2139-73.6842Q99.9559-72.9735 100.455-70.9988Q103.105-61.009 101.978-50.7421Q100.852-40.4751 96.1007-30.8408Q91.3493-21.2064 83.1019-13.0108ZM68.9487-80.8139L62.7714-74.6261L100.289-37.0564L106.518-43.2854ZM15.2576-27.1123L52.7757 10.4681L59.0046 4.22844L21.4349-33.2896ZM41.4493-25.6235L51.1633-15.8473Q51.8064-15.2145 52.693-15.2145Q53.5796-15.2145 54.2227-15.8473Q54.8448-16.4904 54.8448-17.4028Q54.8448-18.3152 54.2227-18.9584L44.4981-28.6724Q43.8656-29.3051 42.9479-29.3051Q42.0301-29.3051 41.4493-28.6724Q40.8166-28.0398 40.8166-27.1533Q40.8166-26.2667 41.4493-25.6235ZM47.952-32.1886L57.7283-22.4123Q58.361-21.7798 59.2528-21.7798Q60.1446-21.7798 60.7773-22.4123Q61.4098-23.045 61.4098-23.9627Q61.4098-24.8805 60.7773-25.513L51.0633-35.1857Q50.4202-35.8184 49.5077-35.8184Q48.5952-35.8184 47.952-35.1857Q47.33-34.5532 47.33-33.6873Q47.33-32.8213 47.952-32.1886ZM54.5171-38.702L64.2934-28.9773Q64.9261-28.3448 65.792-28.3448Q66.658-28.3448 67.3012-28.9773Q67.9232-29.6205 67.9232-30.5072Q67.9232-31.3938 67.3012-31.9745L57.5661-41.751Q56.9334-42.3729 56.0416-42.3729Q55.1498-42.3729 54.5171-41.751Q53.895-41.1078 53.895-40.2211Q53.895-39.3345 54.5171-38.702ZM61.0823-45.2047L70.7444-35.4803Q71.3876-34.9099 72.3001-34.9099Q73.2126-34.9099 73.8557-35.4803Q74.4883-36.1234 74.4883-37.01Q74.4883-37.8966 73.8557-38.5397L64.1311-48.3054Q63.4468-48.9381 62.5808-48.9381Q61.7148-48.9381 61.0823-48.3054Q60.4602-47.6729 60.4602-46.7551Q60.4602-45.8374 61.0823-45.2047ZM67.6474-51.7699L77.3201-42.0558Q77.9526-41.4233 78.8651-41.4233Q79.7776-41.4233 80.4102-42.0558Q81.0429-42.6778 81.0429-43.5697Q81.0429-44.4616 80.4102-45.0941L70.6445-54.8811Q70.012-55.5031 69.1459-55.5031Q68.2799-55.5031 67.6474-54.8811Q67.0146-54.2379 67.0146-53.3254Q67.0146-52.4129 67.6474-51.7699ZM48.6892-20.09L75.971-47.3718L72.9326-50.4208L45.7025-23.1284Z"/>
  </g>
  <g id="Light-M" transform="matrix(1 0 0 1 1093.21 1126)">
   <path d="M87.2639-7.90098Q96.6306-17.2677 101.906-28.6107Q107.181-39.9538 108.295-51.6293Q109.41-63.3048 106.274-73.7026Q105.132-77.4556 103.615-78.9548Q102.099-80.454 98.3737-81.6309Q88.0381-84.7666 76.3489-83.652Q64.6597-82.5375 53.3027-77.2623Q41.9457-71.987 32.5167-62.5929Q23.1845-53.2262 17.892-41.8692Q12.5995-30.5122 11.485-18.8056Q10.3705-7.09893 13.534 3.23665Q14.683 6.96173 16.1962 8.49209Q17.7093 10.0225 21.4344 11.1371Q31.8323 14.2732 43.5078 13.1586Q55.1832 12.0441 66.5263 6.76885Q77.8694 1.4936 87.2639-7.90098ZM82.8793-12.2921Q74.3926-3.80537 64.4417 1.0404Q54.4909 5.88617 44.0102 6.95585Q33.5294 8.02552 23.4709 5.22192Q21.3248 4.64776 20.6741 3.97956Q20.0233 3.31136 19.4142 1.06151Q16.6176-8.92766 17.7048-19.391Q18.7919-29.8542 23.6202-39.8018Q28.4485-49.7494 36.9358-58.2013Q45.3876-66.6885 55.3524-71.5308Q65.3172-76.373 75.7633-77.4599Q86.2094-78.5468 96.2055-75.7851Q98.4205-75.1137 99.1027-74.4628Q99.7848-73.8118 100.387-71.6661Q103.19-61.642 102.107-51.1441Q101.023-40.6462 96.1949-30.6953Q91.3666-20.7444 82.8793-12.2921ZM67.6996-80.6256L62.7199-75.6185L100.255-38.0488L105.269-43.0628ZM14.5389-27.4375L52.0742 10.1602L57.0883 5.1182L19.5185-32.4171ZM39.9607-25.5551L50.1709-15.2826Q50.7456-14.7353 51.5038-14.7353Q52.262-14.7353 52.8368-15.2826Q53.3562-15.8574 53.3562-16.6328Q53.3562-17.4082 52.8368-17.983L42.5987-28.1931Q42.0518-28.7404 41.2625-28.7404Q40.4731-28.7404 39.9607-28.1931Q39.4134-27.6463 39.4134-26.8881Q39.4134-26.1299 39.9607-25.5551ZM46.7029-32.3596L56.9754-22.0872Q57.5227-21.5403 58.2946-21.5403Q59.0665-21.5403 59.6139-22.0872Q60.1607-22.6345 60.1607-23.4238Q60.1607-24.2132 59.6139-24.7601L49.4037-34.9632Q48.829-35.5105 48.0533-35.5105Q47.2776-35.5105 46.7029-34.9632Q46.1835-34.4164 46.1835-33.6617Q46.1835-32.907 46.7029-32.3596ZM53.5074-39.1297L63.7799-28.8917Q64.3272-28.3448 65.0819-28.3448Q65.8366-28.3448 66.4114-28.8917Q66.9308-29.4664 66.9308-30.2249Q66.9308-30.9833 66.4114-31.4953L56.1459-41.7682Q55.5986-42.2872 54.8267-42.2872Q54.0547-42.2872 53.5074-41.7682Q52.988-41.1935 52.988-40.435Q52.988-39.6766 53.5074-39.1297ZM60.3124-45.872L70.4877-35.6344Q71.0624-35.1493 71.8381-35.1493Q72.6138-35.1493 73.1885-35.6344Q73.7353-36.2091 73.7353-36.9673Q73.7353-37.7255 73.1885-38.3003L62.9504-48.5449Q62.3687-49.0922 61.614-49.0922Q60.8593-49.0922 60.3124-48.5449Q59.793-47.998 59.793-47.2086Q59.793-46.4193 60.3124-45.872ZM67.1169-52.6769L77.3201-42.4663Q77.867-41.9195 78.6426-41.9195Q79.4183-41.9195 79.9651-42.4663Q80.5124-42.9857 80.5124-43.7579Q80.5124-44.53 79.9651-45.0769L69.7205-55.3773Q69.1737-55.8967 68.4187-55.8967Q67.6638-55.8967 67.1169-55.3773Q66.5696-54.8025 66.5696-54.0269Q66.5696-53.2512 67.1169-52.6769ZM47.4231-20.1415L74.9955-47.7139L72.385-50.3524L44.847-22.7521Z"/>
  </g>
  <g id="Thin-M" transform="matrix(1 0 0 1 797.712 1126)">
   <path d="M85.2047-8.76104Q94.4356-17.992 99.6426-29.1086Q104.85-40.2253 105.908-51.7424Q106.966-63.2595 103.762-73.7026Q102.755-76.9579 101.578-78.129Q100.401-79.3 97.1969-80.3184Q86.8161-83.5217 75.274-82.4638Q63.732-81.406 52.59-76.1986Q41.448-70.9912 32.1548-61.7104Q22.9354-52.4794 17.7222-41.3374Q12.5091-30.1955 11.4512-18.6472Q10.3933-7.09893 13.6473 3.2819Q14.615 6.48646 15.8114 7.68869Q17.0078 8.89092 20.2124 9.84696Q30.6555 13.0511 42.1726 11.9933Q53.6897 10.9354 64.8064 5.72799Q75.923 0.520617 85.2047-8.76104ZM82.5851-11.3416Q73.7816-2.53809 63.4121 2.39817Q53.0426 7.33443 42.245 8.33624Q31.4473 9.33805 21.3664 6.33065Q18.9937 5.64356 18.4222 5.06585Q17.8507 4.48815 17.1512 2.07974Q14.1055-7.97711 15.1136-18.7685Q16.1216-29.56 21.0516-39.949Q25.9817-50.338 34.786-59.129Q43.577-67.9333 53.9718-72.8887Q64.3667-77.8441 75.1523-78.8517Q85.9379-79.8593 95.9565-76.8261Q98.3525-76.0643 98.9555-75.4924Q99.5586-74.9205 100.296-72.5486Q103.304-62.4793 102.277-51.6758Q101.249-40.8724 96.3194-30.5029Q91.3894-20.1334 82.5851-11.3416ZM66.0475-80.3765L62.6519-76.931L100.21-39.3613L103.617-42.7685ZM13.5883-27.8675L51.1465 9.75294L54.5537 6.29499L16.984-31.2631ZM37.9919-25.4646L48.8583-14.5359Q49.3426-14.1015 49.931-14.1015Q50.5195-14.1015 51.0037-14.5359Q51.3874-15.0201 51.3874-15.6144Q51.3874-16.2086 51.0037-16.6929L40.0866-27.5593Q39.653-27.9937 39.0334-27.9937Q38.4138-27.9937 37.9919-27.5593Q37.5575-27.1257 37.5575-26.5373Q37.5575-25.9489 37.9919-25.4646ZM45.0508-32.5859L55.9796-21.6571Q56.414-21.2236 57.0273-21.2236Q57.6407-21.2236 58.0751-21.6571Q58.5087-22.0915 58.5087-22.7111Q58.5087-23.3307 58.0751-23.7643L47.2087-34.6689Q46.7244-35.1033 46.1298-35.1033Q45.5351-35.1033 45.0508-34.6689Q44.6671-34.2354 44.6671-33.6278Q44.6671-33.0203 45.0508-32.5859ZM52.1721-39.6955L63.1008-28.7784Q63.5352-28.3448 64.1428-28.3448Q64.7504-28.3448 65.2346-28.7784Q65.6183-29.2626 65.6183-29.8515Q65.6183-30.4403 65.2346-30.8614L54.2676-41.791Q53.8332-42.1739 53.2199-42.1739Q52.6065-42.1739 52.1721-41.791Q51.7884-41.3068 51.7884-40.7179Q51.7884-40.1291 52.1721-39.6955ZM59.2942-46.7545L70.1482-35.8382Q70.6324-35.4661 71.2271-35.4661Q71.8218-35.4661 72.306-35.8382Q72.7395-36.3224 72.7395-36.9108Q72.7395-37.4993 72.306-37.9835L61.3889-48.8616Q60.9429-49.296 60.3353-49.296Q59.7277-49.296 59.2942-48.8616Q58.9105-48.428 58.9105-47.8084Q58.9105-47.1888 59.2942-46.7545ZM66.4154-53.8765L77.3201-43.0093Q77.7537-42.5757 78.3483-42.5757Q78.943-42.5757 79.3765-43.0093Q79.8109-43.393 79.8109-44.0067Q79.8109-44.6205 79.3765-45.0541L68.4985-56.0335Q68.065-56.4172 67.457-56.4172Q66.849-56.4172 66.4154-56.0335Q65.981-55.5493 65.981-54.9546Q65.981-54.3599 66.4154-53.8765ZM45.7486-20.2096L73.7055-48.1664L71.6606-50.2619L43.7154-22.2544Z"/>
  </g>
  <g id="Ultralight-M" transform="matrix(1 0 0 1 501.621 1126)">
   <path d="M84.1499-9.20156Q93.3113-18.363 98.4834-29.3637Q103.656-40.3643 104.685-51.8003Q105.714-63.2363 102.475-73.7026Q101.538-76.703 100.535-77.706Q99.5321-78.709 96.5942-79.6461Q86.1902-82.8841 74.7235-81.8553Q63.2568-80.8264 52.225-75.6538Q41.1931-70.4812 31.9694-61.2584Q22.8078-52.0969 17.6353-41.0651Q12.4627-30.0332 11.4338-18.5661Q10.405-7.09893 13.7053 3.30507Q14.5801 6.24302 15.6143 7.27719Q16.6485 8.31135 19.5865 9.18618Q30.0528 12.4252 41.4888 11.3964Q52.9248 10.3675 63.9254 5.19487Q74.9261 0.0222578 84.1499-9.20156ZM82.4343-10.8547Q73.4686-1.889 62.8847 3.09361Q52.3008 8.07622 41.3409 9.04327Q30.3809 10.0103 20.2885 6.89853Q17.7997 6.1536 17.2688 5.62225Q16.7379 5.09089 15.992 2.60127Q12.8188-7.49024 13.7864-18.4497Q14.7539-29.4092 19.736-40.0243Q24.7181-50.6395 33.6849-59.6042Q42.6496-68.5709 53.2647-73.5843Q63.8798-78.5976 74.8393-79.5646Q85.7988-80.5316 95.8289-77.3594Q98.3176-76.5512 98.8801-76.0198Q99.4427-75.4884 100.25-73.0006Q103.362-62.9081 102.364-51.9482Q101.365-40.9883 96.3832-30.4044Q91.4011-19.8205 82.4343-10.8547ZM65.2013-80.249L62.617-77.6033L100.187-40.0336L102.771-42.6178ZM13.1015-28.0877L50.6713 9.54437L53.2555 6.89773L15.6858-30.6721ZM36.9835-25.4183L48.1861-14.1534Q48.624-13.7768 49.1255-13.7768Q49.6269-13.7768 50.0648-14.1534Q50.379-14.5913 50.379-15.0927Q50.379-15.5942 50.0648-16.0321L38.7999-27.2347Q38.4244-27.6112 37.8917-27.6112Q37.3591-27.6112 36.9835-27.2347Q36.6069-26.8591 36.6069-26.3577Q36.6069-25.8562 36.9835-25.4183ZM44.2047-32.7017L55.4695-21.4369Q55.8461-21.0614 56.3783-21.0614Q56.9104-21.0614 57.287-21.4369Q57.6625-21.8134 57.6625-22.3461Q57.6625-22.8787 57.287-23.2542L46.0844-34.5182Q45.6465-34.8948 45.1445-34.8948Q44.6426-34.8948 44.2047-34.5182Q43.8905-34.1427 43.8905-33.6105Q43.8905-33.0783 44.2047-32.7017ZM51.4881-39.9853L62.753-28.7203Q63.1296-28.3448 63.6618-28.3448Q64.194-28.3448 64.6319-28.7203Q64.946-29.1582 64.946-29.6602Q64.946-30.1622 64.6319-30.5368L53.3056-41.8027Q52.929-42.1158 52.3969-42.1158Q51.8647-42.1158 51.4881-41.8027Q51.174-41.3648 51.174-40.8628Q51.174-40.3608 51.4881-39.9853ZM58.7727-47.2065L69.9743-35.9425Q70.4122-35.6283 70.9141-35.6283Q71.4161-35.6283 71.854-35.9425Q72.2295-36.3804 72.2295-36.8819Q72.2295-37.3834 71.854-37.8213L60.589-49.0238Q60.2126-49.4004 59.6804-49.4004Q59.1482-49.4004 58.7727-49.0238Q58.4585-48.6483 58.4585-48.1157Q58.4585-47.583 58.7727-47.2065ZM66.0561-54.491L77.3201-43.2874Q77.6956-42.9118 78.1976-42.9118Q78.6996-42.9118 79.0751-43.2874Q79.4516-43.6015 79.4516-44.1342Q79.4516-44.6669 79.0751-45.0424L67.8726-56.3697Q67.4971-56.6838 66.9644-56.6838Q66.4316-56.6838 66.0561-56.3697Q65.6796-55.9318 65.6796-55.4298Q65.6796-54.9278 66.0561-54.491ZM44.891-20.2444L73.0447-48.3981L71.2896-50.2155L43.1359-21.9995Z"/>
  </g>
  <g id="Black-S" transform="matrix(1 0 0 1 2882.67 696)">
   <path d="M74.707-11.2793Q82.5195-19.1406 86.9629-28.7109Q91.4062-38.2812 92.3828-48.1201Q93.3594-57.959 90.8691-66.5039Q89.6973-70.4102 87.793-72.3145Q85.8887-74.2188 81.9824-75.3906Q73.3887-77.9297 63.5742-76.9287Q53.7598-75.9277 44.165-71.5088Q34.5703-67.0898 26.7578-59.2285Q18.8965-51.416 14.4775-41.8213Q10.0586-32.2266 9.05762-22.4121Q8.05664-12.5977 10.5957-4.00391Q11.7676-0.0976562 13.6719 1.80664Q15.5762 3.71094 19.4824 4.88281Q28.0273 7.37305 37.8662 6.39648Q47.7051 5.41992 57.2754 0.976562Q66.8457-3.4668 74.707-11.2793ZM66.9434-19.043Q60.6445-12.793 53.418-9.15527Q46.1914-5.51758 38.4521-4.63867Q30.7129-3.75977 22.998-5.71289Q21.875-5.95703 21.6553-6.20117Q21.4355-6.44531 21.0938-7.71484Q19.1895-15.4297 20.1172-23.1201Q21.0449-30.8105 24.6582-38.0127Q28.2715-45.2148 34.5215-51.4648Q40.7715-57.7148 47.9736-61.3281Q55.1758-64.9414 62.8662-65.8691Q70.5566-66.7969 78.2715-64.8926Q79.541-64.5508 79.7852-64.3311Q80.0293-64.1113 80.2734-62.9883Q82.2266-55.2734 81.3477-47.5342Q80.4688-39.7949 76.8311-32.5684Q73.1934-25.3418 66.9434-19.043ZM58.8379-74.5605L51.0254-66.748L82.4219-35.4004L90.1855-43.1641ZM11.4258-27.1484L42.8223 4.19922L50.5859-3.56445L19.2383-34.9609ZM33.1543-27.1484L42.627-17.6758Q43.457-16.8457 44.6533-16.8457Q45.8496-16.8457 46.6797-17.6758Q47.5098-18.5059 47.5098-19.7021Q47.5098-20.8984 46.6797-21.7285L37.207-31.2012Q36.377-32.0312 35.1807-32.0312Q33.9844-32.0312 33.1543-31.2012Q32.3242-30.3711 32.3242-29.1748Q32.3242-27.9785 33.1543-27.1484ZM38.5742-32.5684L48.0469-23.0957Q48.8281-22.2656 50.0488-22.2656Q51.2695-22.2656 52.0996-23.0957Q52.9297-23.9258 52.9297-25.1221Q52.9297-26.3184 52.0996-27.1484L42.627-36.6211Q41.7969-37.4512 40.5762-37.4512Q39.3555-37.4512 38.5742-36.6211Q37.7441-35.791 37.7441-34.5947Q37.7441-33.3984 38.5742-32.5684ZM43.9453-37.9395L53.418-28.4668Q54.248-27.6855 55.4688-27.6855Q56.6895-27.6855 57.5195-28.4668Q58.3008-29.2969 58.3008-30.5176Q58.3008-31.7383 57.5195-32.5684L48.0469-42.041Q47.2168-42.8711 45.9961-42.8711Q44.7754-42.8711 43.9453-42.041Q43.1152-41.2109 43.1152-39.9902Q43.1152-38.7695 43.9453-37.9395ZM49.4629-43.457L58.9355-33.9844Q59.7656-33.1543 60.9619-33.1543Q62.1582-33.1543 62.9883-33.9844Q63.8184-34.8145 63.8184-36.0107Q63.8184-37.207 62.9883-38.0371L53.5156-47.5098Q52.6855-48.3398 51.4893-48.3398Q50.293-48.3398 49.4629-47.5098Q48.6328-46.6797 48.6328-45.4834Q48.6328-44.2871 49.4629-43.457ZM54.8828-48.877L64.3555-39.4043Q65.1367-38.5742 66.3574-38.5742Q67.5781-38.5742 68.4082-39.4043Q69.2383-40.2344 69.2383-41.4307Q69.2383-42.627 68.4082-43.457L58.9355-52.9297Q58.1055-53.7598 56.8848-53.7598Q55.6641-53.7598 54.8828-52.9297Q54.0527-52.0996 54.0527-50.9033Q54.0527-49.707 54.8828-48.877ZM40.5762-21.0449L64.9414-45.4102L60.8887-49.4629L36.5234-25.0977Z"/>
  </g>
  <g id="Heavy-S" transform="matrix(1 0 0 1 2586.57 696)">
   <path d="M73.6814-11.6827Q81.4132-19.4518 85.7989-28.9126Q90.1847-38.3734 91.1497-48.0855Q92.1147-57.7976 89.6475-66.2388Q88.5102-70.0298 86.6981-71.8362Q84.886-73.6425 81.095-74.7914Q72.6281-77.2958 62.9346-76.3122Q53.2412-75.3285 43.7617-70.9614Q34.2822-66.5943 26.5388-58.8252Q18.7812-51.0933 14.4084-41.6138Q10.0355-32.1344 9.05185-22.4352Q8.06817-12.7359 10.5727-4.26897Q11.7215-0.477964 13.5278 1.33414Q15.3342 3.14624 19.1252 4.28354Q27.5664 6.75073 37.2785 5.78569Q46.9906 4.82065 56.4514 0.434913Q65.9122-3.95082 73.6814-11.6827ZM66.54-18.8355Q60.2297-12.5625 52.9628-8.9075Q45.6959-5.25252 37.9163-4.36785Q30.1367-3.48318 22.3873-5.44783Q21.1835-5.71502 20.8774-6.04559Q20.5712-6.37617 20.2179-7.72637Q18.3021-15.4527 19.2298-23.1893Q20.1575-30.9258 23.7881-38.1683Q27.4187-45.4108 33.6917-51.6723Q39.9532-57.9453 47.2015-61.5759Q54.4497-65.2065 62.1805-66.1342Q69.9113-67.0619 77.6492-65.1576Q78.9878-64.7928 79.3184-64.4866Q79.649-64.1805 79.9162-62.9768Q81.8808-55.2389 80.9962-47.4535Q80.1115-39.6682 76.4623-32.4013Q72.8131-25.1344 66.54-18.8355ZM57.8468-73.7308L50.599-66.483L81.523-35.5848L88.745-42.8068ZM11.6332-27.5172L42.5572 3.38098L49.7792-3.84104L18.881-34.765ZM33.1658-27.2867L42.1429-18.2981Q42.9039-17.5372 43.9964-17.5372Q45.089-17.5372 45.8499-18.2981Q46.6109-19.059 46.6109-20.1574Q46.6109-21.2557 45.8499-22.0166L36.8728-30.9937Q36.1119-31.7547 35.0136-31.7547Q33.9152-31.7547 33.1658-30.9937Q32.4049-30.2328 32.4049-29.1402Q32.4049-28.0477 33.1658-27.2867ZM38.482-32.6145L47.4707-23.6258Q48.1943-22.8649 49.3055-22.8649Q50.4167-22.8649 51.1777-23.6258Q51.9386-24.3868 51.9386-25.4851Q51.9386-26.5834 51.1777-27.3444L42.2005-36.3099Q41.4396-37.0709 40.3226-37.0709Q39.2057-37.0709 38.482-36.3099Q37.7211-35.549 37.7211-34.4622Q37.7211-33.3754 38.482-32.6145ZM43.7724-37.8934L52.7611-28.9163Q53.522-28.1926 54.6275-28.1926Q55.7329-28.1926 56.4939-28.9163Q57.2175-29.6772 57.2175-30.7884Q57.2175-31.8996 56.4939-32.649L47.5167-41.6377Q46.7558-42.3986 45.6446-42.3986Q44.5334-42.3986 43.7724-41.6377Q43.0115-40.8767 43.0115-39.7655Q43.0115-38.6543 43.7724-37.8934ZM49.1748-43.2842L58.1404-34.3071Q58.9013-33.5577 59.9996-33.5577Q61.098-33.5577 61.8589-34.3071Q62.6198-35.068 62.6198-36.1606Q62.6198-37.2531 61.8589-38.0141L52.8818-47.0027Q52.1093-47.7636 51.0225-47.7636Q49.9357-47.7636 49.1748-47.0027Q48.4138-46.2418 48.4138-45.1434Q48.4138-44.0451 49.1748-43.2842ZM54.5025-48.6119L63.4681-39.6348Q64.1917-38.8739 65.3087-38.8739Q66.4257-38.8739 67.1866-39.6348Q67.9475-40.3957 67.9475-41.4883Q67.9475-42.5809 67.1866-43.3418L58.198-52.3304Q57.437-53.0913 56.3316-53.0913Q55.2261-53.0913 54.5025-52.3304Q53.7416-51.5695 53.7416-50.4712Q53.7416-49.3728 54.5025-48.6119ZM40.1498-21.5866L63.7774-45.2142L60.0704-48.9212L36.4543-25.2936Z"/>
  </g>
  <g id="Bold-S" transform="matrix(1 0 0 1 2290.55 696)">
   <path d="M72.5342-12.1338Q80.1758-19.7998 84.4971-29.1382Q88.8184-38.4766 89.7705-48.0469Q90.7227-57.6172 88.2812-65.9424Q87.1826-69.6045 85.4736-71.3013Q83.7646-72.998 80.1025-74.1211Q71.7773-76.5869 62.2192-75.6226Q52.6611-74.6582 43.3105-70.3491Q33.96-66.04 26.2939-58.374Q18.6523-50.7324 14.3311-41.3818Q10.0098-32.0312 9.04541-22.4609Q8.08105-12.8906 10.5469-4.56543Q11.6699-0.90332 13.3667 0.805664Q15.0635 2.51465 18.7256 3.61328Q27.0508 6.05469 36.6211 5.10254Q46.1914 4.15039 55.5298-0.170898Q64.8682-4.49219 72.5342-12.1338ZM66.0889-18.6035Q59.7656-12.3047 52.4536-8.63037Q45.1416-4.95605 37.3169-4.06494Q29.4922-3.17383 21.7041-5.15137Q20.4102-5.44434 20.0073-5.87158Q19.6045-6.29883 19.2383-7.73926Q17.3096-15.4785 18.2373-23.2666Q19.165-31.0547 22.8149-38.3423Q26.4648-45.6299 32.7637-51.9043Q39.0381-58.2031 46.3379-61.853Q53.6377-65.5029 61.4136-66.4307Q69.1895-67.3584 76.9531-65.4541Q78.3691-65.0635 78.7964-64.6606Q79.2236-64.2578 79.5166-62.9639Q81.4941-55.2002 80.603-47.3633Q79.7119-39.5264 76.0498-32.2144Q72.3877-24.9023 66.0889-18.6035ZM56.7383-72.8027L50.1221-66.1865L80.5176-35.791L87.1338-42.4072ZM11.8652-27.9297L42.2607 2.46582L48.877-4.15039L18.4814-34.5459ZM33.1787-27.4414L41.6016-18.9941Q42.2852-18.3105 43.2617-18.3105Q44.2383-18.3105 44.9219-18.9941Q45.6055-19.6777 45.6055-20.6665Q45.6055-21.6553 44.9219-22.3389L36.499-30.7617Q35.8154-31.4453 34.8267-31.4453Q33.8379-31.4453 33.1787-30.7617Q32.4951-30.0781 32.4951-29.1016Q32.4951-28.125 33.1787-27.4414ZM38.3789-32.666L46.8262-24.2188Q47.4854-23.5352 48.4741-23.5352Q49.4629-23.5352 50.1465-24.2188Q50.8301-24.9023 50.8301-25.8911Q50.8301-26.8799 50.1465-27.5635L41.7236-35.9619Q41.04-36.6455 40.0391-36.6455Q39.0381-36.6455 38.3789-35.9619Q37.6953-35.2783 37.6953-34.314Q37.6953-33.3496 38.3789-32.666ZM43.5791-37.8418L52.0264-29.4189Q52.71-28.7598 53.6865-28.7598Q54.6631-28.7598 55.3467-29.4189Q56.0059-30.1025 56.0059-31.0913Q56.0059-32.0801 55.3467-32.7393L46.9238-41.1865Q46.2402-41.8701 45.2515-41.8701Q44.2627-41.8701 43.5791-41.1865Q42.8955-40.5029 42.8955-39.5142Q42.8955-38.5254 43.5791-37.8418ZM48.8525-43.0908L57.251-34.668Q57.9346-34.0088 58.9233-34.0088Q59.9121-34.0088 60.5957-34.668Q61.2793-35.3516 61.2793-36.3281Q61.2793-37.3047 60.5957-37.9883L52.1729-46.4355Q51.4648-47.1191 50.5005-47.1191Q49.5361-47.1191 48.8525-46.4355Q48.1689-45.752 48.1689-44.7632Q48.1689-43.7744 48.8525-43.0908ZM54.0771-48.3154L62.4756-39.8926Q63.1348-39.209 64.1357-39.209Q65.1367-39.209 65.8203-39.8926Q66.5039-40.5762 66.5039-41.5527Q66.5039-42.5293 65.8203-43.2129L57.373-51.6602Q56.6895-52.3438 55.7129-52.3438Q54.7363-52.3438 54.0771-51.6602Q53.3936-50.9766 53.3936-49.9878Q53.3936-48.999 54.0771-48.3154ZM39.6729-22.1924L62.4756-44.9951L59.1553-48.3154L36.377-25.5127Z"/>
  </g>
  <g id="Semibold-S" transform="matrix(1 0 0 1 1994.32 696)">
   <path d="M71.7433-12.4448Q79.3227-20.0397 83.5995-29.2937Q87.8764-38.5477 88.8196-48.0202Q89.7629-57.4928 87.3393-65.738Q86.2673-69.3112 84.6294-70.9325Q82.9915-72.5537 79.4183-73.659Q71.1908-76.0981 61.726-75.1471Q52.2612-74.1961 42.9995-69.927Q33.7378-65.6579 26.1251-58.063Q18.5635-50.4836 14.2777-41.2219Q9.99199-31.9602 9.04097-22.4787Q8.08994-12.9973 10.5291-4.76982Q11.6344-1.19658 13.2556 0.441309Q14.8769 2.0792 18.4501 3.15117Q26.6953 5.5748 36.1679 4.63154Q45.6404 3.68828 54.8944-0.588574Q64.1483-4.86543 71.7433-12.4448ZM65.7778-18.4436Q59.4457-12.127 52.1026-8.43931Q44.7595-4.75166 36.9037-3.8561Q29.0479-2.96055 21.2331-4.94697Q19.877-5.25771 19.4075-5.75161Q18.938-6.24551 18.5629-7.74814Q16.6253-15.4963 17.553-23.3199Q18.4808-31.1436 22.144-38.4623Q25.8072-45.781 32.1238-52.0643Q38.4071-58.3809 45.7425-62.0441Q53.0778-65.7073 60.8848-66.6351Q68.6918-67.5628 76.4732-65.6585Q77.9426-65.2501 78.4365-64.7806Q78.9304-64.3111 79.2411-62.955Q81.2275-55.1735 80.332-47.3011Q79.4364-39.4286 75.7654-32.0855Q72.0944-24.7424 65.7778-18.4436ZM55.974-72.1629L49.7933-65.9821L79.8244-35.9332L86.0229-42.1317ZM12.0252-28.2141L42.0563 1.83486L48.2549-4.36367L18.206-34.3948ZM33.1876-27.548L41.2283-19.474Q41.8586-18.8438 42.7552-18.8438Q43.6518-18.8438 44.282-19.474Q44.9123-20.1043 44.9123-21.0175Q44.9123-21.9308 44.282-22.561L36.2413-30.6018Q35.611-31.232 34.6978-31.232Q33.7846-31.232 33.1876-30.6018Q32.5573-29.9715 32.5573-29.0749Q32.5573-28.1783 33.1876-27.548ZM38.3078-32.7016L46.3818-24.6275Q46.9966-23.9973 47.9009-23.9973Q48.8053-23.9973 49.4355-24.6275Q50.0658-25.2578 50.0658-26.171Q50.0658-27.0843 49.4355-27.7146L41.3948-35.722Q40.7646-36.3522 39.8436-36.3522Q38.9226-36.3522 38.3078-35.722Q37.6775-35.0917 37.6775-34.2118Q37.6775-33.3318 38.3078-32.7016ZM43.4458-37.8062L51.5198-29.7655Q52.1501-29.1508 53.0378-29.1508Q53.9255-29.1508 54.5558-29.7655Q55.1705-30.3958 55.1705-31.3001Q55.1705-32.2045 54.5558-32.8015L46.515-40.8755Q45.8848-41.5058 44.9804-41.5058Q44.0761-41.5058 43.4458-40.8755Q42.8155-40.2452 42.8155-39.3409Q42.8155-38.4365 43.4458-37.8062ZM48.6304-42.9575L56.6378-34.9168Q57.2681-34.3198 58.1813-34.3198Q59.0945-34.3198 59.7248-34.9168Q60.3551-35.5471 60.3551-36.4437Q60.3551-37.3402 59.7248-37.9705L51.6841-46.0445Q51.0205-46.6748 50.1406-46.6748Q49.2606-46.6748 48.6304-46.0445Q48.0001-45.4143 48.0001-44.501Q48.0001-43.5878 48.6304-42.9575ZM53.7839-48.111L61.7913-40.0703Q62.4061-39.44 63.3271-39.44Q64.248-39.44 64.8783-40.0703Q65.5086-40.7006 65.5086-41.5972Q65.5086-42.4937 64.8783-43.124L56.8043-51.198Q56.174-51.8283 55.2863-51.8283Q54.3986-51.8283 53.7839-51.198Q53.1536-50.5678 53.1536-49.6545Q53.1536-48.7413 53.7839-48.111ZM39.344-22.6101L61.578-44.844L58.5243-47.8978L36.3236-25.6638Z"/>
  </g>
  <g id="Medium-S" transform="matrix(1 0 0 1 1697.97 696)">
   <path d="M71.1436-12.6807Q78.6758-20.2217 82.9189-29.4116Q87.1621-38.6016 88.0986-48Q89.0352-57.3984 86.625-65.583Q85.5732-69.0889 83.9893-70.6528Q82.4053-72.2168 78.8994-73.3086Q70.7461-75.7275 61.3521-74.7866Q51.958-73.8457 42.7637-69.6069Q33.5693-65.3682 25.9971-57.8271Q18.4961-50.2949 14.2373-41.1006Q9.97852-31.9062 9.0376-22.4922Q8.09668-13.0781 10.5156-4.9248Q11.6074-1.41895 13.1714 0.165039Q14.7354 1.74902 18.2412 2.80078Q26.4258 5.21094 35.8242 4.27441Q45.2227 3.33789 54.4126-0.905273Q63.6025-5.14844 71.1436-12.6807ZM65.542-18.3223Q59.2031-11.9922 51.8364-8.29443Q44.4697-4.59668 36.5903-3.69775Q28.7109-2.79883 20.876-4.79199Q19.4727-5.11621 18.9526-5.66064Q18.4326-6.20508 18.0508-7.75488Q16.1064-15.5098 17.0342-23.3604Q17.9619-31.2109 21.6353-38.5532Q25.3086-45.8955 31.6387-52.1855Q37.9287-58.5156 45.291-62.189Q52.6533-65.8623 60.4839-66.79Q68.3145-67.7178 76.1094-65.8135Q77.6191-65.3916 78.1636-64.8716Q78.708-64.3516 79.0322-62.9482Q81.0254-55.1533 80.1265-47.2539Q79.2275-39.3545 75.5498-31.9878Q71.8721-24.6211 65.542-18.3223ZM55.3945-71.6777L49.5439-65.8271L79.2988-36.041L85.1807-41.9229ZM12.1465-28.4297L41.9014 1.35645L47.7832-4.52539L17.9971-34.2803ZM33.1943-27.6289L40.9453-19.8379Q41.5352-19.248 42.3711-19.248Q43.207-19.248 43.7969-19.8379Q44.3867-20.4277 44.3867-21.2837Q44.3867-22.1396 43.7969-22.7295L36.0459-30.4805Q35.4561-31.0703 34.6001-31.0703Q33.7441-31.0703 33.1943-30.4805Q32.6045-29.8906 32.6045-29.0547Q32.6045-28.2188 33.1943-27.6289ZM38.2539-32.7285L46.0449-24.9375Q46.626-24.3477 47.4663-24.3477Q48.3066-24.3477 48.8965-24.9375Q49.4863-25.5273 49.4863-26.3833Q49.4863-27.2393 48.8965-27.8291L41.1455-35.54Q40.5557-36.1299 39.6953-36.1299Q38.835-36.1299 38.2539-35.54Q37.6641-34.9502 37.6641-34.1343Q37.6641-33.3184 38.2539-32.7285ZM43.3447-37.7793L51.1357-30.0283Q51.7256-29.4473 52.5459-29.4473Q53.3662-29.4473 53.9561-30.0283Q54.5371-30.6182 54.5371-31.4585Q54.5371-32.2988 53.9561-32.8486L46.2051-40.6396Q45.6152-41.2295 44.7749-41.2295Q43.9346-41.2295 43.3447-40.6396Q42.7549-40.0498 42.7549-39.2095Q42.7549-38.3691 43.3447-37.7793ZM48.4619-42.8564L56.1729-35.1055Q56.7627-34.5557 57.6187-34.5557Q58.4746-34.5557 59.0645-35.1055Q59.6543-35.6953 59.6543-36.5312Q59.6543-37.3672 59.0645-37.957L51.3135-45.748Q50.6836-46.3379 49.8677-46.3379Q49.0518-46.3379 48.4619-45.748Q47.8721-45.1582 47.8721-44.3022Q47.8721-43.4463 48.4619-42.8564ZM53.5615-47.9561L61.2725-40.2051Q61.8535-39.6152 62.7139-39.6152Q63.5742-39.6152 64.1641-40.2051Q64.7539-40.7949 64.7539-41.6309Q64.7539-42.4668 64.1641-43.0566L56.373-50.8477Q55.7832-51.4375 54.9629-51.4375Q54.1426-51.4375 53.5615-50.8477Q52.9717-50.2578 52.9717-49.4019Q52.9717-48.5459 53.5615-47.9561ZM39.0947-22.9268L60.8975-44.7295L58.0459-47.5811L36.2832-25.7783Z"/>
  </g>
  <g id="Regular-S" transform="matrix(1 0 0 1 1401.72 696)">
   <path d="M70.3613-12.9883Q77.832-20.459 82.0312-29.5654Q86.2305-38.6719 87.1582-47.9736Q88.0859-57.2754 85.6934-65.3809Q84.668-68.7988 83.1543-70.2881Q81.6406-71.7773 78.2227-72.8516Q70.166-75.2441 60.8643-74.3164Q51.5625-73.3887 42.4561-69.1895Q33.3496-64.9902 25.8301-57.5195Q18.4082-50.0488 14.1846-40.9424Q9.96094-31.8359 9.0332-22.5098Q8.10547-13.1836 10.498-5.12695Q11.5723-1.70898 13.0615-0.195312Q14.5508 1.31836 17.9688 2.34375Q26.0742 4.73633 35.376 3.80859Q44.6777 2.88086 53.7842-1.31836Q62.8906-5.51758 70.3613-12.9883ZM65.2344-18.1641Q58.8867-11.8164 51.4893-8.10547Q44.0918-4.39453 36.1816-3.49121Q28.2715-2.58789 20.4102-4.58984Q18.9453-4.93164 18.3594-5.54199Q17.7734-6.15234 17.3828-7.76367Q15.4297-15.5273 16.3574-23.4131Q17.2852-31.2988 20.9717-38.6719Q24.6582-46.0449 31.0059-52.3438Q37.3047-58.6914 44.7021-62.3779Q52.0996-66.0645 59.9609-66.9922Q67.8223-67.9199 75.6348-66.0156Q77.1973-65.5762 77.8076-64.9902Q78.418-64.4043 78.7598-62.9395Q80.7617-55.127 79.8584-47.1924Q78.9551-39.2578 75.2686-31.8604Q71.582-24.4629 65.2344-18.1641ZM54.6387-71.0449L49.2188-65.625L78.6133-36.1816L84.082-41.6504ZM12.3047-28.7109L41.6992 0.732422L47.168-4.73633L17.7246-34.1309ZM33.2031-27.7344L40.5762-20.3125Q41.1133-19.7754 41.8701-19.7754Q42.627-19.7754 43.1641-20.3125Q43.7012-20.8496 43.7012-21.6309Q43.7012-22.4121 43.1641-22.9492L35.791-30.3223Q35.2539-30.8594 34.4727-30.8594Q33.6914-30.8594 33.2031-30.3223Q32.666-29.7852 32.666-29.0283Q32.666-28.2715 33.2031-27.7344ZM38.1836-32.7637L45.6055-25.3418Q46.1426-24.8047 46.8994-24.8047Q47.6562-24.8047 48.1934-25.3418Q48.7305-25.8789 48.7305-26.6602Q48.7305-27.4414 48.1934-27.9785L40.8203-35.3027Q40.2832-35.8398 39.502-35.8398Q38.7207-35.8398 38.1836-35.3027Q37.6465-34.7656 37.6465-34.0332Q37.6465-33.3008 38.1836-32.7637ZM43.2129-37.7441L50.6348-30.3711Q51.1719-29.834 51.9043-29.834Q52.6367-29.834 53.1738-30.3711Q53.7109-30.9082 53.7109-31.665Q53.7109-32.4219 53.1738-32.9102L45.8008-40.332Q45.2637-40.8691 44.5068-40.8691Q43.75-40.8691 43.2129-40.332Q42.6758-39.7949 42.6758-39.0381Q42.6758-38.2812 43.2129-37.7441ZM48.2422-42.7246L55.5664-35.3516Q56.1035-34.8633 56.8848-34.8633Q57.666-34.8633 58.2031-35.3516Q58.7402-35.8887 58.7402-36.6455Q58.7402-37.4023 58.2031-37.9395L50.8301-45.3613Q50.2441-45.8984 49.5117-45.8984Q48.7793-45.8984 48.2422-45.3613Q47.7051-44.8242 47.7051-44.043Q47.7051-43.2617 48.2422-42.7246ZM53.2715-47.7539L60.5957-40.3809Q61.1328-39.8438 61.9141-39.8438Q62.6953-39.8438 63.2324-40.3809Q63.7695-40.918 63.7695-41.6748Q63.7695-42.4316 63.2324-42.9688L55.8105-50.3906Q55.2734-50.9277 54.541-50.9277Q53.8086-50.9277 53.2715-50.3906Q52.7344-49.8535 52.7344-49.0723Q52.7344-48.291 53.2715-47.7539ZM38.7695-23.3398L60.0098-44.5801L57.4219-47.168L36.2305-25.9277Z"/>
  </g>
  <g id="Light-S" transform="matrix(1 0 0 1 1105.82 696)">
   <path d="M68.984-13.5635Q76.3639-20.9435 80.5176-29.8985Q84.6713-38.8535 85.5612-48.0493Q86.4512-57.2451 84.0131-65.3809Q83.0785-68.4659 81.7919-69.7357Q80.5054-71.0055 77.4356-71.9737Q69.3487-74.4115 60.1453-73.5217Q50.942-72.6318 41.9793-68.478Q33.0167-64.3242 25.588-56.9293Q18.2416-49.5494 14.071-40.5867Q9.90041-31.6241 9.01057-22.4038Q8.12073-13.1836 10.5738-5.09669Q11.5267-2.02688 12.8042-0.732676Q14.0816 0.561523 17.1514 1.48087Q25.2871 3.91897 34.483 3.02912Q43.6788 2.13928 52.6338-2.01454Q61.5888-6.16837 68.984-13.5635ZM65.0375-17.5283Q58.478-10.9688 50.8006-7.19732Q43.1231-3.42585 35.001-2.56793Q26.8789-1.71 19.0025-3.84827Q17.3861-4.26559 16.8532-4.81542Q16.3203-5.36524 15.8691-7.08262Q13.7494-14.8916 14.6243-22.9968Q15.4991-31.102 19.2537-38.7703Q23.0082-46.4386 29.568-52.9643Q36.0936-59.524 43.7787-63.2862Q51.4638-67.0484 59.5523-67.9231Q67.6407-68.7978 75.4682-66.7119Q77.1517-66.212 77.7092-65.6789Q78.2667-65.1459 78.6992-63.5297Q80.8375-55.687 79.9719-47.548Q79.1064-39.4091 75.3518-31.7317Q71.5973-24.0542 65.0375-17.5283ZM53.5337-70.8783L49.1732-66.5029L78.583-37.0595L82.977-41.4536ZM11.6689-28.9986L41.0787 0.460052L45.4727-3.94923L16.0294-33.359ZM31.8863-27.6738L39.6983-19.813Q40.1749-19.3515 40.8182-19.3515Q41.4614-19.3515 41.938-19.813Q42.3843-20.2896 42.3843-20.9497Q42.3843-21.6098 41.938-22.0863L34.1108-29.8983Q33.6494-30.3599 32.9817-30.3599Q32.314-30.3599 31.8863-29.8983Q31.4247-29.437 31.4247-28.7937Q31.4247-28.1504 31.8863-27.6738ZM37.0786-32.915L44.9394-25.0542Q45.401-24.5928 46.0518-24.5928Q46.7026-24.5928 47.1642-25.0542Q47.6255-25.5157 47.6255-26.1834Q47.6255-26.8511 47.1642-27.3125L39.3522-35.1059Q38.8756-35.5675 38.2154-35.5675Q37.5552-35.5675 37.0786-35.1059Q36.6323-34.6446 36.6323-34.0106Q36.6323-33.3766 37.0786-32.915ZM42.3197-38.1226L50.1806-30.2953Q50.6421-29.834 51.2761-29.834Q51.9101-29.834 52.3867-30.2953Q52.833-30.7719 52.833-31.4153Q52.833-32.0587 52.3867-32.4862L44.5445-40.3473Q44.0829-40.7934 43.4321-40.7934Q42.7813-40.7934 42.3197-40.3473Q41.8734-39.8707 41.8734-39.2273Q41.8734-38.5839 42.3197-38.1226ZM47.5611-43.3149L55.3393-35.4879Q55.8159-35.0751 56.4761-35.0751Q57.1363-35.0751 57.6129-35.4879Q58.0742-35.9645 58.0742-36.6077Q58.0742-37.251 57.6129-37.7276L49.7856-45.5732Q49.2905-46.0347 48.6565-46.0347Q48.0225-46.0347 47.5611-45.5732Q47.1148-45.1118 47.1148-44.4441Q47.1148-43.7764 47.5611-43.3149ZM52.8023-48.5563L60.5957-40.744Q61.057-40.2827 61.7172-40.2827Q62.3774-40.2827 62.8387-40.744Q63.3003-41.1903 63.3003-41.8413Q63.3003-42.4922 62.8387-42.9535L54.9932-50.8296Q54.5319-51.2759 53.8977-51.2759Q53.2636-51.2759 52.8023-50.8296Q52.3407-50.353 52.3407-49.6928Q52.3407-49.0326 52.8023-48.5563ZM37.6495-23.3854L59.1469-44.8827L56.9374-47.1074L35.4736-25.5948Z"/>
  </g>
  <g id="Thin-S" transform="matrix(1 0 0 1 810.183 696)">
   <path d="M67.1623-14.3244Q74.4221-21.5842 78.5156-30.3389Q82.6091-39.0936 83.4491-48.1494Q84.2892-57.2051 81.7909-65.3809Q80.9763-68.0257 79.9901-69.0052Q79.0039-69.9847 76.3946-70.8126Q68.2676-73.3103 59.1945-72.4706Q50.1213-71.6309 41.3489-67.5371Q32.5764-63.4433 25.2678-56.1486Q18.0213-48.8888 13.9208-40.1163Q9.82036-31.3439 8.98063-22.2638Q8.14091-13.1836 10.6741-5.05666Q11.4665-2.44731 12.4638-1.44338Q13.461-0.439453 16.0704 0.339631Q24.2461 2.83794 33.3019 1.99821Q42.3576 1.15849 51.1123-2.9353Q59.867-7.02908 67.1623-14.3244ZM64.7772-16.6874Q57.9375-9.84773 49.8897-5.99621Q41.842-2.1447 33.4395-1.34681Q25.037-0.548923 17.1408-2.86747Q15.324-3.38469 14.8612-3.85447Q14.3984-4.32424 13.8672-6.18188Q11.5272-14.0507 12.3321-22.4462Q13.1369-30.8417 16.9815-38.9005Q20.826-46.9593 27.6663-53.785Q34.492-60.6252 42.5575-64.4875Q50.623-68.3497 59.0117-69.1543Q67.4005-69.9589 75.2479-67.6329Q77.0915-67.0528 77.579-66.5897Q78.0665-66.1267 78.6192-64.3104Q80.9377-56.4276 80.1221-48.0184Q79.3065-39.6093 75.462-31.5615Q71.6175-23.5137 64.7772-16.6874ZM52.0722-70.658L49.113-67.664L78.543-38.2206L81.5156-41.1932ZM10.828-29.379L40.258 0.099822L43.2306-2.90823L13.7873-32.3382ZM30.1447-27.5938L38.5372-19.1524Q38.9337-18.7908 39.4268-18.7908Q39.9199-18.7908 40.3165-19.1524Q40.6427-19.549 40.6427-20.0488Q40.6427-20.5486 40.3165-20.9451L31.8885-29.3376Q31.5274-29.6993 31.0099-29.6993Q30.4924-29.6993 30.1447-29.3376Q29.783-28.9765 29.783-28.4834Q29.783-27.9903 30.1447-27.5938ZM35.6172-33.1151L44.0585-24.6738Q44.4202-24.3127 44.9307-24.3127Q45.4413-24.3127 45.8029-24.6738Q46.164-25.0354 46.164-25.553Q46.164-26.0705 45.8029-26.4316L37.4104-34.8456Q37.0139-35.2072 36.5138-35.2072Q36.0137-35.2072 35.6172-34.8456Q35.2909-34.4845 35.2909-33.9806Q35.2909-33.4768 35.6172-33.1151ZM41.1385-38.623L49.5798-30.1951Q49.9415-29.834 50.4454-29.834Q50.9492-29.834 51.3457-30.1951Q51.672-30.5916 51.672-31.085Q51.672-31.5784 51.3457-31.9255L42.8829-40.3675Q42.5212-40.6931 42.0107-40.6931Q41.5002-40.6931 41.1385-40.3675Q40.8122-39.9709 40.8122-39.4775Q40.8122-38.9841 41.1385-38.623ZM46.6604-44.0955L55.0389-35.6682Q55.4355-35.3553 55.9356-35.3553Q56.4357-35.3553 56.8322-35.6682Q57.1933-36.0647 57.1933-36.5578Q57.1933-37.0509 56.8322-37.4474L48.4042-45.8534Q48.0292-46.215 47.5253-46.215Q47.0215-46.215 46.6604-45.8534Q46.3341-45.4923 46.3341-44.9747Q46.3341-44.4572 46.6604-44.0955ZM52.1817-49.6174L60.5957-41.2243Q60.9568-40.8632 61.4569-40.8632Q61.957-40.8632 62.3181-41.2243Q62.6798-41.5506 62.6798-42.0614Q62.6798-42.5722 62.3181-42.9333L53.9122-51.4101Q53.5511-51.7364 53.0469-51.7364Q52.5428-51.7364 52.1817-51.4101Q51.82-51.0136 51.82-50.5135Q51.82-50.0134 52.1817-49.6174ZM36.1683-23.4456L58.0056-45.283L56.2967-47.0274L34.4727-25.1546Z"/>
  </g>
  <g id="Ultralight-S" transform="matrix(1 0 0 1 514.02 696)">
   <path d="M66.2292-14.7141Q73.4276-21.9124 77.4902-30.5645Q81.5529-39.2166 82.3673-48.2006Q83.1818-57.1846 80.6526-65.3809Q79.8996-67.8001 79.0672-68.631Q78.2349-69.4618 75.8614-70.2179Q67.7139-72.7463 58.7074-71.9322Q49.7009-71.1182 41.0259-67.0551Q32.3509-62.9921 25.1038-55.7487Q17.9085-48.5504 13.8439-39.8754Q9.77936-31.2004 8.9653-22.192Q8.15125-13.1836 10.7254-5.03616Q11.4357-2.66266 12.2894-1.8074Q13.1432-0.952148 15.5167-0.244904Q23.7129 2.28424 32.6969 1.47018Q41.6809 0.656128 50.333-3.40691Q58.9851-7.46994 66.2292-14.7141ZM64.6439-16.2567Q57.6607-9.27353 49.4232-5.38101Q41.1858-1.48849 32.6397-0.721359Q24.0936 0.0457764 16.1873-2.36511Q14.2677-2.9335 13.8409-3.36227Q13.414-3.79105 12.8418-5.72052Q10.3889-13.62 11.158-22.1642Q11.927-30.7083 15.8176-38.9671Q19.7083-47.226 26.6922-54.2053Q33.6716-61.1893 41.9319-65.1028Q50.1923-69.0163 58.7349-69.7849Q67.2775-70.5536 75.135-68.1046Q77.0607-67.4835 77.5124-67.0563Q77.964-66.629 78.5782-64.7102Q80.9891-56.8069 80.1991-48.2594Q79.409-39.7118 75.5184-31.4743Q71.6278-23.2368 64.6439-16.2567ZM51.3237-70.5452L49.0822-68.2587L78.5225-38.8153L80.7671-41.0599ZM10.3973-29.5738L39.8376-0.0846863L42.0822-2.37503L12.6389-31.8153ZM29.2526-27.5528L37.9425-18.8141Q38.298-18.5036 38.7142-18.5036Q39.1304-18.5036 39.4859-18.8141Q39.7507-19.1696 39.7507-19.5873Q39.7507-20.005 39.4859-20.3606L30.7503-29.0504Q30.4405-29.361 29.9999-29.361Q29.5593-29.361 29.2526-29.0504Q28.9421-28.7407 28.9421-28.3245Q28.9421-27.9083 29.2526-27.5528ZM34.8686-33.2176L43.6073-24.4789Q43.9178-24.1692 44.3565-24.1692Q44.7952-24.1692 45.1057-24.4789Q45.4155-24.7894 45.4155-25.23Q45.4155-25.6706 45.1057-25.9804L36.4159-34.7122Q36.0603-35.0227 35.6422-35.0227Q35.2242-35.0227 34.8686-34.7122Q34.6039-34.4025 34.6039-33.9653Q34.6039-33.5281 34.8686-33.2176ZM40.5334-38.8794L49.2722-30.1437Q49.5827-29.834 50.0198-29.834Q50.457-29.834 50.8125-30.1437Q51.0773-30.4993 51.0773-30.9158Q51.0773-31.3324 50.8125-31.6383L42.0319-40.3778Q41.7213-40.6418 41.2827-40.6418Q40.844-40.6418 40.5334-40.3778Q40.2687-40.0223 40.2687-39.6057Q40.2687-39.1891 40.5334-38.8794ZM46.199-44.4954L54.8851-35.7605Q55.2406-35.4988 55.6587-35.4988Q56.0768-35.4988 56.4323-35.7605Q56.7421-36.116 56.7421-36.5322Q56.7421-36.9484 56.4323-37.3039L47.6967-45.9969Q47.3831-46.3074 46.946-46.3074Q46.5088-46.3074 46.199-45.9969Q45.9343-45.6871 45.9343-45.2465Q45.9343-44.8059 46.199-44.4954ZM51.8639-50.161L60.5957-41.4703Q60.9055-41.1606 61.3235-41.1606Q61.7416-41.1606 62.0514-41.4703Q62.3619-41.7351 62.3619-42.1741Q62.3619-42.6132 62.0514-42.923L53.3585-51.7075Q53.0487-51.9722 52.6112-51.9722Q52.1736-51.9722 51.8639-51.7075Q51.5533-51.3519 51.5533-50.9338Q51.5533-50.5157 51.8639-50.161ZM35.4095-23.4764L57.4211-45.488L55.9685-46.9864L33.96-24.929Z"/>
  </g>
 </g>
</svg>
