<?xml version="1.0" encoding="UTF-8"?>
<!--Generator: Apple Native CoreSVG 175.5-->
<!DOCTYPE svg
PUBLIC "-//W3C//DTD SVG 1.1//EN"
       "http://www.w3.org/Graphics/SVG/1.1/DTD/svg11.dtd">
<svg version="1.1" xmlns="http://www.w3.org/2000/svg" xmlns:xlink="http://www.w3.org/1999/xlink" width="3300" height="2200">
 <!--glyph: "uni1015C9.medium", point size: 100.0, font version: "18.0d9e1", template writer version: "84"-->
 <g id="Notes">
  <rect height="2200" id="artboard" style="fill:white;opacity:1" width="3300" x="0" y="0"/>
  <line style="fill:none;stroke:black;opacity:1;stroke-width:0.5;" x1="263" x2="3036" y1="292" y2="292"/>
  <text style="stroke:none;fill:black;font-family:sans-serif;font-size:13;font-weight:bold;" transform="matrix(1 0 0 1 263 322)">Weight/Scale Variations</text>
  <text style="stroke:none;fill:black;font-family:sans-serif;font-size:13;text-anchor:middle;" transform="matrix(1 0 0 1 559.711 322)">Ultralight</text>
  <text style="stroke:none;fill:black;font-family:sans-serif;font-size:13;text-anchor:middle;" transform="matrix(1 0 0 1 856.422 322)">Thin</text>
  <text style="stroke:none;fill:black;font-family:sans-serif;font-size:13;text-anchor:middle;" transform="matrix(1 0 0 1 1153.13 322)">Light</text>
  <text style="stroke:none;fill:black;font-family:sans-serif;font-size:13;text-anchor:middle;" transform="matrix(1 0 0 1 1449.84 322)">Regular</text>
  <text style="stroke:none;fill:black;font-family:sans-serif;font-size:13;text-anchor:middle;" transform="matrix(1 0 0 1 1746.56 322)">Medium</text>
  <text style="stroke:none;fill:black;font-family:sans-serif;font-size:13;text-anchor:middle;" transform="matrix(1 0 0 1 2043.27 322)">Semibold</text>
  <text style="stroke:none;fill:black;font-family:sans-serif;font-size:13;text-anchor:middle;" transform="matrix(1 0 0 1 2339.98 322)">Bold</text>
  <text style="stroke:none;fill:black;font-family:sans-serif;font-size:13;text-anchor:middle;" transform="matrix(1 0 0 1 2636.69 322)">Heavy</text>
  <text style="stroke:none;fill:black;font-family:sans-serif;font-size:13;text-anchor:middle;" transform="matrix(1 0 0 1 2933.4 322)">Black</text>
  <line style="fill:none;stroke:black;opacity:1;stroke-width:0.5;" x1="263" x2="3036" y1="1903" y2="1903"/>
  <g transform="matrix(1 0 0 1 263 1933)">
   <path d="M9.24805 0.830078Q10.8691 0.830078 12.2949 0.214844Q13.7207-0.400391 14.8096-1.49414Q15.8984-2.58789 16.5186-4.01367Q17.1387-5.43945 17.1387-7.05078Q17.1387-8.66211 16.5186-10.0879Q15.8984-11.5137 14.8047-12.6074Q13.7109-13.7012 12.2852-14.3164Q10.8594-14.9316 9.23828-14.9316Q7.62695-14.9316 6.20117-14.3164Q4.77539-13.7012 3.69141-12.6074Q2.60742-11.5137 1.9873-10.0879Q1.36719-8.66211 1.36719-7.05078Q1.36719-5.43945 1.9873-4.01367Q2.60742-2.58789 3.69629-1.49414Q4.78516-0.400391 6.21094 0.214844Q7.63672 0.830078 9.24805 0.830078ZM9.24805-0.654297Q7.91992-0.654297 6.7627-1.14746Q5.60547-1.64062 4.73145-2.51953Q3.85742-3.39844 3.36426-4.56055Q2.87109-5.72266 2.87109-7.05078Q2.87109-8.37891 3.35938-9.54102Q3.84766-10.7031 4.72168-11.582Q5.5957-12.4609 6.75293-12.9541Q7.91016-13.4473 9.23828-13.4473Q10.5762-13.4473 11.7383-12.9541Q12.9004-12.4609 13.7793-11.582Q14.6582-10.7031 15.1514-9.54102Q15.6445-8.37891 15.6445-7.05078Q15.6445-5.72266 15.1514-4.56055Q14.6582-3.39844 13.7793-2.51953Q12.9004-1.64062 11.7432-1.14746Q10.5859-0.654297 9.24805-0.654297ZM5.6543-7.05078Q5.6543-6.72852 5.85938-6.52832Q6.06445-6.32812 6.40625-6.32812L8.51562-6.32812L8.51562-4.20898Q8.51562-3.88672 8.71094-3.67676Q8.90625-3.4668 9.23828-3.4668Q9.56055-3.4668 9.77051-3.67676Q9.98047-3.88672 9.98047-4.20898L9.98047-6.32812L12.0898-6.32812Q12.4219-6.32812 12.627-6.52832Q12.832-6.72852 12.832-7.05078Q12.832-7.38281 12.627-7.58789Q12.4219-7.79297 12.0898-7.79297L9.98047-7.79297L9.98047-9.90234Q9.98047-10.2344 9.77051-10.4443Q9.56055-10.6543 9.23828-10.6543Q8.90625-10.6543 8.71094-10.4443Q8.51562-10.2344 8.51562-9.90234L8.51562-7.79297L6.40625-7.79297Q6.06445-7.79297 5.85938-7.58789Q5.6543-7.38281 5.6543-7.05078Z"/>
  </g>
  <g transform="matrix(1 0 0 1 281.867 1933)">
   <path d="M11.709 2.91016Q13.75 2.91016 15.5518 2.12891Q17.3535 1.34766 18.7305-0.0292969Q20.1074-1.40625 20.8887-3.20801Q21.6699-5.00977 21.6699-7.05078Q21.6699-9.0918 20.8887-10.8936Q20.1074-12.6953 18.7305-14.0723Q17.3535-15.4492 15.5469-16.2305Q13.7402-17.0117 11.6992-17.0117Q9.6582-17.0117 7.85645-16.2305Q6.05469-15.4492 4.68262-14.0723Q3.31055-12.6953 2.5293-10.8936Q1.74805-9.0918 1.74805-7.05078Q1.74805-5.00977 2.5293-3.20801Q3.31055-1.40625 4.6875-0.0292969Q6.06445 1.34766 7.86621 2.12891Q9.66797 2.91016 11.709 2.91016ZM11.709 1.25Q9.98047 1.25 8.47656 0.605469Q6.97266-0.0390625 5.83496-1.17676Q4.69727-2.31445 4.05762-3.81836Q3.41797-5.32227 3.41797-7.05078Q3.41797-8.7793 4.05762-10.2832Q4.69727-11.7871 5.83008-12.9297Q6.96289-14.0723 8.4668-14.7119Q9.9707-15.3516 11.6992-15.3516Q13.4277-15.3516 14.9365-14.7119Q16.4453-14.0723 17.583-12.9297Q18.7207-11.7871 19.3652-10.2832Q20.0098-8.7793 20.0098-7.05078Q20.0098-5.32227 19.3701-3.81836Q18.7305-2.31445 17.5879-1.17676Q16.4453-0.0390625 14.9414 0.605469Q13.4375 1.25 11.709 1.25ZM7.17773-7.05078Q7.17773-6.69922 7.41211-6.47461Q7.64648-6.25 8.01758-6.25L10.8887-6.25L10.8887-3.36914Q10.8887-2.99805 11.1133-2.76855Q11.3379-2.53906 11.6895-2.53906Q12.0605-2.53906 12.29-2.76855Q12.5195-2.99805 12.5195-3.36914L12.5195-6.25L15.4004-6.25Q15.7715-6.25 16.001-6.47461Q16.2305-6.69922 16.2305-7.05078Q16.2305-7.42188 16.001-7.65137Q15.7715-7.88086 15.4004-7.88086L12.5195-7.88086L12.5195-10.752Q12.5195-11.1328 12.29-11.3623Q12.0605-11.5918 11.6895-11.5918Q11.3379-11.5918 11.1133-11.3574Q10.8887-11.123 10.8887-10.752L10.8887-7.88086L8.01758-7.88086Q7.63672-7.88086 7.40723-7.65137Q7.17773-7.42188 7.17773-7.05078Z"/>
  </g>
  <g transform="matrix(1 0 0 1 305.646 1933)">
   <path d="M14.9707 5.66406Q17.0605 5.66406 18.96 5.01465Q20.8594 4.36523 22.4512 3.19336Q24.043 2.02148 25.2197 0.429688Q26.3965-1.16211 27.0459-3.06641Q27.6953-4.9707 27.6953-7.05078Q27.6953-9.14062 27.0459-11.04Q26.3965-12.9395 25.2197-14.5312Q24.043-16.123 22.4512-17.2998Q20.8594-18.4766 18.9551-19.126Q17.0508-19.7754 14.9609-19.7754Q12.8711-19.7754 10.9717-19.126Q9.07227-18.4766 7.48535-17.2998Q5.89844-16.123 4.72168-14.5312Q3.54492-12.9395 2.90039-11.04Q2.25586-9.14062 2.25586-7.05078Q2.25586-4.9707 2.90527-3.06641Q3.55469-1.16211 4.72656 0.429688Q5.89844 2.02148 7.49023 3.19336Q9.08203 4.36523 10.9814 5.01465Q12.8809 5.66406 14.9707 5.66406ZM14.9707 3.84766Q13.1641 3.84766 11.5283 3.2959Q9.89258 2.74414 8.53516 1.74805Q7.17773 0.751953 6.17676-0.610352Q5.17578-1.97266 4.62891-3.6084Q4.08203-5.24414 4.08203-7.05078Q4.08203-8.86719 4.62891-10.5029Q5.17578-12.1387 6.17188-13.501Q7.16797-14.8633 8.52539-15.8594Q9.88281-16.8555 11.5186-17.4023Q13.1543-17.9492 14.9609-17.9492Q16.7773-17.9492 18.4131-17.4023Q20.0488-16.8555 21.4111-15.8594Q22.7734-14.8633 23.7744-13.501Q24.7754-12.1387 25.3223-10.5029Q25.8691-8.86719 25.8691-7.05078Q25.8691-5.24414 25.3223-3.6084Q24.7754-1.97266 23.7793-0.610352Q22.7832 0.751953 21.4209 1.74805Q20.0586 2.74414 18.4229 3.2959Q16.7871 3.84766 14.9707 3.84766ZM9.19922-7.05078Q9.19922-6.66992 9.45801-6.4209Q9.7168-6.17188 10.1172-6.17188L14.0625-6.17188L14.0625-2.2168Q14.0625-1.81641 14.3115-1.55762Q14.5605-1.29883 14.9512-1.29883Q15.3516-1.29883 15.6104-1.55273Q15.8691-1.80664 15.8691-2.2168L15.8691-6.17188L19.8242-6.17188Q20.2246-6.17188 20.4785-6.4209Q20.7324-6.66992 20.7324-7.05078Q20.7324-7.46094 20.4785-7.71484Q20.2246-7.96875 19.8242-7.96875L15.8691-7.96875L15.8691-11.9141Q15.8691-12.3242 15.6104-12.583Q15.3516-12.8418 14.9512-12.8418Q14.5605-12.8418 14.3115-12.583Q14.0625-12.3242 14.0625-11.9141L14.0625-7.96875L10.1172-7.96875Q9.70703-7.96875 9.45312-7.71484Q9.19922-7.46094 9.19922-7.05078Z"/>
  </g>
  <text style="stroke:none;fill:black;font-family:sans-serif;font-size:13;font-weight:bold;" transform="matrix(1 0 0 1 263 1953)">Design Variations</text>
  <text style="stroke:none;fill:black;font-family:sans-serif;font-size:13;" transform="matrix(1 0 0 1 263 1971)">Symbols are supported in up to nine weights and three scales.</text>
  <text style="stroke:none;fill:black;font-family:sans-serif;font-size:13;" transform="matrix(1 0 0 1 263 1989)">For optimal layout with text and other symbols, vertically align</text>
  <text style="stroke:none;fill:black;font-family:sans-serif;font-size:13;" transform="matrix(1 0 0 1 263 2007)">symbols with the adjacent text.</text>
  <line style="fill:none;stroke:#00AEEF;stroke-width:0.5;opacity:1.0;" x1="776" x2="776" y1="1919" y2="1933"/>
  <g transform="matrix(1 0 0 1 776 1933)">
   <path d="M3.31055 0.15625Q3.70117 0.15625 3.91602-0.00976562Q4.13086-0.175781 4.26758-0.585938L5.52734-4.0332L11.2891-4.0332L12.5488-0.585938Q12.6855-0.175781 12.9004-0.00976562Q13.1152 0.15625 13.4961 0.15625Q13.8867 0.15625 14.1162-0.0585938Q14.3457-0.273438 14.3457-0.644531Q14.3457-0.869141 14.2383-1.17188L9.6582-13.3691Q9.48242-13.8184 9.17969-14.043Q8.87695-14.2676 8.4082-14.2676Q7.5-14.2676 7.17773-13.3789L2.59766-1.16211Q2.49023-0.859375 2.49023-0.634766Q2.49023-0.263672 2.70996-0.0537109Q2.92969 0.15625 3.31055 0.15625ZM6.00586-5.51758L8.37891-12.0898L8.42773-12.0898L10.8008-5.51758Z"/>
  </g>
  <line style="fill:none;stroke:#00AEEF;stroke-width:0.5;opacity:1.0;" x1="793.197" x2="793.197" y1="1919" y2="1933"/>
  <text style="stroke:none;fill:black;font-family:sans-serif;font-size:13;font-weight:bold;" transform="matrix(1 0 0 1 776 1953)">Margins</text>
  <text style="stroke:none;fill:black;font-family:sans-serif;font-size:13;" transform="matrix(1 0 0 1 776 1971)">Leading and trailing margins on the left and right side of each symbol</text>
  <text style="stroke:none;fill:black;font-family:sans-serif;font-size:13;" transform="matrix(1 0 0 1 776 1989)">can be adjusted by modifying the x-location of the margin guidelines.</text>
  <text style="stroke:none;fill:black;font-family:sans-serif;font-size:13;" transform="matrix(1 0 0 1 776 2007)">Modifications are automatically applied proportionally to all</text>
  <text style="stroke:none;fill:black;font-family:sans-serif;font-size:13;" transform="matrix(1 0 0 1 776 2025)">scales and weights.</text>
  <g transform="matrix(1 0 0 1 1289 1933)">
   <path d="M2.8418 1.86523L4.54102 3.57422Q5.18555 4.22852 5.90332 4.17969Q6.62109 4.13086 7.31445 3.35938L18.0078-8.42773L17.041-9.4043L6.42578 2.27539Q6.16211 2.57812 5.89355 2.61719Q5.625 2.65625 5.27344 2.30469L4.10156 1.14258Q3.75 0.791016 3.79395 0.522461Q3.83789 0.253906 4.14062-0.0195312L15.6152-10.8203L14.6387-11.7871L3.04688-0.898438Q2.30469-0.214844 2.25098 0.498047Q2.19727 1.21094 2.8418 1.86523ZM9.25781-16.3281Q8.94531-16.0254 8.90625-15.6348Q8.86719-15.2441 9.04297-14.9512Q9.21875-14.6777 9.55566-14.541Q9.89258-14.4043 10.3809-14.5215Q11.4746-14.7754 12.5977-14.7314Q13.7207-14.6875 14.7949-13.9844L14.209-12.5293Q13.9551-11.9043 14.0674-11.4404Q14.1797-10.9766 14.5801-10.5664L16.875-8.25195Q17.2363-7.88086 17.5781-7.82227Q17.9199-7.76367 18.3398-7.8418L19.4043-8.03711L20.0684-7.36328L20.0293-6.80664Q20-6.43555 20.1221-6.12305Q20.2441-5.81055 20.6055-5.44922L21.3672-4.70703Q21.7285-4.3457 22.1533-4.33105Q22.5781-4.31641 22.9297-4.66797L25.8398-7.58789Q26.1914-7.93945 26.1816-8.35449Q26.1719-8.76953 25.8105-9.13086L25.0391-9.89258Q24.6875-10.2539 24.3799-10.3857Q24.0723-10.5176 23.7109-10.4883L23.1348-10.4395L22.4902-11.0742L22.7344-12.1973Q22.832-12.6172 22.6953-12.9834Q22.5586-13.3496 22.1191-13.7891L19.9219-15.9766Q18.6719-17.2168 17.2607-17.8369Q15.8496-18.457 14.4189-18.4814Q12.9883-18.5059 11.665-17.959Q10.3418-17.4121 9.25781-16.3281ZM10.752-15.957Q11.6602-16.6211 12.7002-16.9043Q13.7402-17.1875 14.8047-17.085Q15.8691-16.9824 16.8701-16.5137Q17.8711-16.0449 18.7012-15.2051L21.1328-12.793Q21.3086-12.6172 21.3525-12.4512Q21.3965-12.2852 21.3379-12.0312L21.0156-10.5469L22.5195-9.0625L23.5059-9.12109Q23.6914-9.13086 23.7891-9.09668Q23.8867-9.0625 24.0332-8.91602L24.6094-8.33984L22.168-5.89844L21.5918-6.47461Q21.4453-6.62109 21.4062-6.71875Q21.3672-6.81641 21.377-7.01172L21.4453-7.98828L19.9512-9.47266L18.4277-9.21875Q18.1836-9.16992 18.042-9.2041Q17.9004-9.23828 17.7148-9.41406L15.7129-11.416Q15.5176-11.5918 15.4932-11.7529Q15.4688-11.9141 15.5859-12.1875L16.4648-14.2773Q15.293-15.3711 13.8281-15.791Q12.3633-16.2109 10.8398-15.7617Q10.7227-15.7324 10.6885-15.8057Q10.6543-15.8789 10.752-15.957Z"/>
  </g>
  <text style="stroke:none;fill:black;font-family:sans-serif;font-size:13;font-weight:bold;" transform="matrix(1 0 0 1 1289 1953)">Exporting</text>
  <text style="stroke:none;fill:black;font-family:sans-serif;font-size:13;" transform="matrix(1 0 0 1 1289 1971)">Symbols should be outlined when exporting to ensure the</text>
  <text style="stroke:none;fill:black;font-family:sans-serif;font-size:13;" transform="matrix(1 0 0 1 1289 1989)">design is preserved when submitting to Xcode.</text>
  <text id="template-version" style="stroke:none;fill:black;font-family:sans-serif;font-size:13;text-anchor:end;" transform="matrix(1 0 0 1 3036 1933)">Template v.2.0</text>
  <text style="stroke:none;fill:black;font-family:sans-serif;font-size:13;text-anchor:end;" transform="matrix(1 0 0 1 3036 1951)">Requires Xcode 12 or greater</text>
  <text id="descriptive-name" style="stroke:none;fill:black;font-family:sans-serif;font-size:13;text-anchor:end;" transform="matrix(1 0 0 1 3036 1969)">Generated from basketball</text>
  <text style="stroke:none;fill:black;font-family:sans-serif;font-size:13;text-anchor:end;" transform="matrix(1 0 0 1 3036 1987)">Typeset at 100 points</text>
  <text style="stroke:none;fill:black;font-family:sans-serif;font-size:13;" transform="matrix(1 0 0 1 263 726)">Small</text>
  <text style="stroke:none;fill:black;font-family:sans-serif;font-size:13;" transform="matrix(1 0 0 1 263 1156)">Medium</text>
  <text style="stroke:none;fill:black;font-family:sans-serif;font-size:13;" transform="matrix(1 0 0 1 263 1586)">Large</text>
 </g>
 <g id="Guides">
  <g id="H-reference" style="fill:#27AAE1;stroke:none;" transform="matrix(1 0 0 1 339 696)">
   <path d="M0.993347 0L3.6377 0L29.3282-67.1326L30.0301-67.1326L30.0301-70.459L28.1227-70.459ZM11.6882-24.4797L46.9818-24.4797L46.2311-26.7288L12.4382-26.7288ZM55.1193 0L57.7637 0L30.6381-70.459L29.4327-70.459L29.4327-67.1326Z"/>
  </g>
  <line id="Baseline-S" style="fill:none;stroke:#27AAE1;opacity:1;stroke-width:0.5;" x1="263" x2="3036" y1="696" y2="696"/>
  <line id="Capline-S" style="fill:none;stroke:#27AAE1;opacity:1;stroke-width:0.5;" x1="263" x2="3036" y1="625.541" y2="625.541"/>
  <g id="H-reference" style="fill:#27AAE1;stroke:none;" transform="matrix(1 0 0 1 339 1126)">
   <path d="M0.993347 0L3.6377 0L29.3282-67.1326L30.0301-67.1326L30.0301-70.459L28.1227-70.459ZM11.6882-24.4797L46.9818-24.4797L46.2311-26.7288L12.4382-26.7288ZM55.1193 0L57.7637 0L30.6381-70.459L29.4327-70.459L29.4327-67.1326Z"/>
  </g>
  <line id="Baseline-M" style="fill:none;stroke:#27AAE1;opacity:1;stroke-width:0.5;" x1="263" x2="3036" y1="1126" y2="1126"/>
  <line id="Capline-M" style="fill:none;stroke:#27AAE1;opacity:1;stroke-width:0.5;" x1="263" x2="3036" y1="1055.54" y2="1055.54"/>
  <g id="H-reference" style="fill:#27AAE1;stroke:none;" transform="matrix(1 0 0 1 339 1556)">
   <path d="M0.993347 0L3.6377 0L29.3282-67.1326L30.0301-67.1326L30.0301-70.459L28.1227-70.459ZM11.6882-24.4797L46.9818-24.4797L46.2311-26.7288L12.4382-26.7288ZM55.1193 0L57.7637 0L30.6381-70.459L29.4327-70.459L29.4327-67.1326Z"/>
  </g>
  <line id="Baseline-L" style="fill:none;stroke:#27AAE1;opacity:1;stroke-width:0.5;" x1="263" x2="3036" y1="1556" y2="1556"/>
  <line id="Capline-L" style="fill:none;stroke:#27AAE1;opacity:1;stroke-width:0.5;" x1="263" x2="3036" y1="1485.54" y2="1485.54"/>
  <line id="left-margin" style="fill:none;stroke:#00AEEF;stroke-width:0.5;opacity:1.0;" x1="1391.32" x2="1391.32" y1="1030.79" y2="1150.12"/>
  <line id="right-margin" style="fill:none;stroke:#00AEEF;stroke-width:0.5;opacity:1.0;" x1="1508.37" x2="1508.37" y1="1030.79" y2="1150.12"/>
 </g>
 <g id="Symbols">
  <g id="Black-L" transform="matrix(1 0 0 1 2854.19 1556)">
   <path d="M26.4389-28.0888Q34.495-39.2092 45.1187-47.2924Q55.7424-55.3757 68.4425-59.771Q81.1425-64.1663 95.4497-64.1663Q113.467-64.1663 129.505-56.7609L128.125-67.9944Q120.641-70.8663 112.308-72.3936Q103.976-73.921 95.4497-73.921Q79.7413-73.921 65.4611-68.9556Q51.1809-63.9901 39.2816-55.0029Q27.3824-46.0156 18.6294-34.0105ZM126.356-5.12825L135.792-7.8621Q133.692-16.3747 128.444-22.7835Q123.197-29.1923 116.301-34.2706Q109.404-39.3489 102.168-43.709Q94.9323-48.0691 88.7133-52.3336Q82.4943-56.5981 78.6503-61.4701Q74.8063-66.3422 74.8063-72.4146Q74.8063-77.8175 77.4253-81.6274Q80.0443-85.4374 85.3796-88.1781L80.3817-96.5554Q73.4464-92.8973 69.249-86.5977Q65.0516-80.2981 65.0516-72.4146Q65.0516-64.2821 69.063-57.9835Q73.0744-51.6849 79.5406-46.528Q86.0069-41.3711 93.431-36.7533Q100.855-32.1355 107.791-27.4239Q114.727-22.7123 119.787-17.3238Q124.847-11.9352 126.356-5.12825ZM38.3132 8.50688L49.6623 9.01332Q45.6942 2.83853 44.8094-4.4486Q43.9246-11.7357 44.6048-19.8902Q45.285-28.0448 46.2969-36.8658Q47.3087-45.6868 47.1558-54.8698Q47.091-58.7535 45.5814-63.3558Q44.0718-67.9582 41.2168-71.438Q38.3617-74.9178 34.2475-75.3328L32.1278-65.7193Q33.6833-65.484 34.8688-63.6681Q36.0543-61.8523 36.7536-59.5179Q37.453-57.1835 37.497-55.3446Q37.6303-48.2524 36.6983-40.2007Q35.7663-32.1491 35.0277-23.7483Q34.2891-15.3476 34.7854-7.16012Q35.2817 1.02737 38.3132 8.50688ZM87.8386 23.267L95.7257 17.3972Q84.2361 3.31095 76.7937-10.8759Q69.3512-25.0627 65.2488-38.0303Q61.1463-50.998 59.7833-61.5378Q58.4203-72.0777 59.2468-78.9509Q60.0734-85.8242 62.3706-87.705L50.6543-85.6073Q48.9171-78.4037 49.785-66.4783Q50.6529-54.5529 54.7753-39.7263Q58.8978-24.8998 66.9912-8.72576Q75.0846 7.44828 87.8386 23.267ZM79.1958 32.7257Q93.2356 32.7257 105.521 27.4304Q117.806 22.1351 127.174 12.7568Q136.542 3.3785 141.848-8.90689Q147.154-21.1923 147.154-35.2113Q147.154-49.2303 141.848-61.5157Q136.542-73.8011 127.164-83.1794Q117.786-92.5577 105.5-97.853Q93.2148-103.148 79.175-103.148Q65.156-103.148 52.87-97.853Q40.584-92.5577 31.2271-83.1794Q21.8702-73.8011 16.5645-61.5157Q11.2588-49.2303 11.2588-35.2113Q11.2588-21.1923 16.5645-8.90689Q21.8702 3.3785 31.2375 12.7568Q40.6048 22.1351 52.8908 27.4304Q65.1768 32.7257 79.1958 32.7257ZM79.1958 17.3328Q68.3935 17.3328 58.8809 13.2213Q49.3683 9.10988 42.1319 1.87345Q34.8954-5.36298 30.784-14.886Q26.6726-24.409 26.6726-35.2113Q26.6726-46.0136 30.7736-55.5366Q34.8746-65.0596 42.111-72.296Q49.3475-79.5325 58.8601-83.6439Q68.3727-87.7554 79.175-87.7554Q89.9981-87.7554 99.5107-83.6439Q109.023-79.5325 116.27-72.296Q123.517-65.0596 127.628-55.5366Q131.74-46.0136 131.74-35.2113Q131.74-24.409 127.628-14.886Q123.517-5.36298 116.281 1.87345Q109.044 9.10988 99.5315 13.2213Q90.0189 17.3328 79.1958 17.3328Z"/>
  </g>
  <g id="Heavy-L" transform="matrix(1 0 0 1 2558.42 1556)">
   <path d="M24.3583-28.7167Q32.5202-39.9738 43.3364-48.1823Q54.1526-56.3907 67.0721-60.8588Q79.9916-65.3269 94.5138-65.3269Q112.568-65.3269 128.693-58.018L127.293-68.4297Q119.763-71.2834 111.418-72.8086Q103.073-74.3338 94.5138-74.3338Q78.7212-74.3338 64.366-69.3634Q50.0108-64.393 38.0347-55.3842Q26.0587-46.3754 17.2311-34.3279ZM126.012-5.21433L134.708-7.7308Q132.549-16.1992 127.221-22.5975Q121.893-28.9958 114.913-34.0975Q107.934-39.1993 100.631-43.617Q93.3279-48.0347 87.0511-52.3816Q80.7742-56.7285 76.8955-61.7128Q73.0168-66.6971 73.0168-72.9068Q73.0168-78.4857 75.75-82.4611Q78.4832-86.4365 83.92-89.228L79.0539-96.8462Q72.2367-93.1781 68.1233-86.9415Q64.01-80.7048 64.01-72.9068Q64.01-64.8047 68.0333-58.5119Q72.0565-52.2191 78.5556-47.0454Q85.0546-41.8718 92.5321-37.2168Q100.01-32.5618 107.027-27.7972Q114.044-23.0327 119.2-17.5684Q124.356-12.104 126.012-5.21433ZM37.1145 8.71859L47.6098 9.31333Q43.7288 2.9875 42.9176-4.50861Q42.1064-12.0047 42.8349-20.3249Q43.5633-28.6451 44.5523-37.5149Q45.5413-46.3847 45.2962-55.4078Q45.1945-59.0681 43.7327-63.5359Q42.2708-68.0037 39.5365-71.4358Q36.8022-74.8679 32.8568-75.3843L30.8198-66.5138Q32.3826-66.3006 33.6058-64.3868Q34.8291-62.473 35.553-60.0091Q36.2769-57.5451 36.3485-55.6516Q36.5689-48.4491 35.6576-40.3214Q34.7463-32.1937 33.9732-23.7304Q33.2001-15.2671 33.6529-7.02831Q34.1056 1.21043 37.1145 8.71859ZM86.9144 23.5305L94.176 18.0953Q82.779 4.08349 75.3233-10.0361Q67.8676-24.1557 63.6871-37.1161Q59.5067-50.0766 58.024-60.722Q56.5414-71.3674 57.2345-78.5142Q57.9276-85.661 60.1096-88.0611L49.4567-86.2486Q47.7029-79.0502 48.5562-67.0658Q49.4094-55.0814 53.5555-40.1266Q57.7017-25.1719 65.8635-8.82741Q74.0253 7.51706 86.9144 23.5305ZM78.2532 31.7694Q92.0879 31.7694 104.203 26.5469Q116.317 21.3244 125.56 12.0666Q134.803 2.80877 140.04-9.30591Q145.278-21.4206 145.278-35.2251Q145.278-49.0296 140.04-61.1442Q134.803-73.2589 125.545-82.5167Q116.287-91.7745 104.172-96.997Q92.0577-102.22 78.2231-102.22Q64.4186-102.22 52.3011-96.997Q40.1836-91.7745 30.9588-82.5167Q21.7339-73.2589 16.4964-61.1442Q11.2588-49.0296 11.2588-35.2251Q11.2588-21.4206 16.4964-9.30591Q21.7339 2.80877 30.9738 12.0666Q40.2137 21.3244 52.3312 26.5469Q64.4487 31.7694 78.2532 31.7694ZM78.2532 18.117Q67.3009 18.117 57.6493 13.9416Q47.9978 9.7662 40.645 2.41339Q33.2922-4.93942 29.1168-14.6061Q24.9414-24.2727 24.9414-35.2251Q24.9414-46.1774 29.1017-55.8441Q33.262-65.5107 40.6148-72.8636Q47.9676-80.2164 57.6192-84.3918Q67.2707-88.5672 78.2231-88.5672Q89.2056-88.5672 98.8571-84.3918Q108.509-80.2164 115.877-72.8636Q123.245-65.5107 127.42-55.8441Q131.595-46.1774 131.595-35.2251Q131.595-24.2727 127.42-14.6061Q123.245-4.93942 115.892 2.41339Q108.539 9.7662 98.8873 13.9416Q89.2357 18.117 78.2532 18.117Z"/>
  </g>
  <g id="Bold-L" transform="matrix(1 0 0 1 2262.89 1556)">
   <path d="M21.881-29.3735Q30.1586-40.7997 41.1981-49.1656Q52.2377-57.5316 65.4187-62.0918Q78.5998-66.652 93.3759-66.652Q111.462-66.652 127.694-59.4511L126.226-68.7963Q118.649-71.6268 110.304-73.1482Q101.959-74.6697 93.3759-74.6697Q77.5131-74.6697 63.0954-69.6991Q48.6778-64.7285 36.6319-55.7077Q24.5859-46.6869 15.6885-34.608ZM125.552-5.32937L133.274-7.55445Q131.046-15.9467 125.632-22.3185Q120.219-28.6903 113.151-33.8116Q106.083-38.9329 98.7103-43.4124Q91.3379-47.8919 85.003-52.335Q78.6681-56.7781 74.7545-61.8932Q70.8409-67.0084 70.8409-73.3798Q70.8409-79.2036 73.7461-83.3976Q76.6512-87.5916 82.2633-90.4373L77.4988-97.0135Q70.8352-93.3451 66.8294-87.2002Q62.8235-81.0554 62.8235-73.3798Q62.8235-65.3384 66.8547-59.0682Q70.8858-52.7979 77.4121-47.6162Q83.9384-42.4346 91.4664-37.7446Q98.9943-33.0546 106.096-28.2323Q113.198-23.4099 118.462-17.8607Q123.726-12.3115 125.552-5.32937ZM35.7655 8.95007L45.1558 9.69711Q41.375 3.1943 40.6448-4.53694Q39.9146-12.2682 40.697-20.7696Q41.4794-29.2711 42.4415-38.1875Q43.4035-47.1038 43.0581-55.9346Q42.9178-59.3183 41.5174-63.6209Q40.1169-67.9235 37.5325-71.2941Q34.948-74.6647 31.21-75.2893L29.2655-67.4079Q30.8659-67.2329 32.1502-65.1962Q33.4344-63.1594 34.1965-60.5304Q34.9586-57.9014 35.061-55.9388Q35.3817-48.6129 34.4934-40.4041Q33.6052-32.1954 32.7936-23.6701Q31.982-15.1448 32.3846-6.85946Q32.7873 1.42593 35.7655 8.95007ZM85.8217 23.8011L92.2551 18.9486Q80.951 5.00656 73.4724-9.04712Q65.9938-23.1008 61.7247-36.0573Q57.4557-49.0138 55.8419-59.7786Q54.2281-70.5435 54.7746-77.9949Q55.3211-85.4462 57.3796-88.4246L48.0929-86.9954Q46.2938-79.8643 47.1092-67.8367Q47.9247-55.8092 52.0866-40.7043Q56.2486-25.5994 64.4949-9.03615Q72.7412 7.52708 85.8217 23.8011ZM77.0704 30.5711Q90.6514 30.5711 102.551 25.4407Q114.451 20.3104 123.536 11.2061Q132.621 2.10182 137.771-9.79778Q142.92-21.6974 142.92-35.2405Q142.92-48.7836 137.771-60.6832Q132.621-72.5828 123.517-81.6871Q114.413-90.7914 102.513-95.9217Q90.6135-101.052 77.0325-101.052Q63.4894-101.052 51.5831-95.9217Q39.6768-90.7914 30.6171-81.6871Q21.5574-72.5828 16.4081-60.6832Q11.2588-48.7836 11.2588-35.2405Q11.2588-21.6974 16.4081-9.79778Q21.5574 2.10182 30.6361 11.2061Q39.7147 20.3104 51.621 25.4407Q63.5273 30.5711 77.0704 30.5711ZM77.0704 19.0853Q65.9261 19.0853 56.1017 14.833Q46.2774 10.5807 38.7823 3.08566Q31.2873-4.40938 27.035-14.2528Q22.7826-24.0962 22.7826-35.2405Q22.7826-46.3848 27.0159-56.2282Q31.2492-66.0716 38.7442-73.5667Q46.2393-81.0617 56.0637-85.314Q65.8882-89.5663 77.0325-89.5663Q88.2147-89.5663 98.039-85.314Q107.863-81.0617 115.377-73.5667Q122.892-66.0716 127.144-56.2282Q131.396-46.3848 131.396-35.2405Q131.396-24.0962 127.144-14.2528Q122.892-4.40938 115.397 3.08566Q107.901 10.5807 98.077 14.833Q88.2526 19.0853 77.0704 19.0853Z"/>
  </g>
  <g id="Semibold-L" transform="matrix(1 0 0 1 1966.99 1556)">
   <path d="M20.1732-29.8264Q28.5305-41.3691 39.724-49.8436Q50.9175-58.318 64.2789-62.9418Q77.6403-67.5655 92.5914-67.5655Q110.699-67.5655 127.005-60.439L125.491-69.049Q117.882-71.8636 109.536-73.3824Q101.191-74.9012 92.5914-74.9012Q76.6802-74.9012 62.2195-69.9305Q47.7589-64.9598 35.6647-55.9307Q23.5706-46.9016 14.6249-34.8011ZM125.235-5.40868L132.286-7.43288Q130.009-15.7726 124.537-22.1262Q119.066-28.4797 111.936-33.6145Q104.807-38.7492 97.3863-43.2713Q89.9659-47.7934 83.5911-52.3028Q77.2162-56.8122 73.2785-62.0176Q69.3409-67.223 69.3409-73.7058Q69.3409-79.6986 72.3646-84.0433Q75.3883-88.388 81.1211-91.2709L76.4268-97.1288Q69.8691-93.4601 65.9373-87.3786Q62.0055-81.2971 62.0055-73.7058Q62.0055-65.7063 66.0421-59.4516Q70.0787-53.197 76.6238-48.0098Q83.1689-42.8225 90.7316-38.1084Q98.2943-33.3944 105.455-28.5322Q112.615-23.6699 117.954-18.0623Q123.292-12.4546 125.235-5.40868ZM34.8356 9.10965L43.4641 9.96168Q39.7524 3.33687 39.0779-4.55647Q38.4035-12.4498 39.2231-21.0763Q40.0428-29.7027 40.9863-38.6511Q41.9298-47.5996 41.5152-56.2977Q41.3483-59.4908 39.9902-63.6795Q38.632-67.8681 36.1509-71.1964Q33.6698-74.5247 30.0747-75.2238L28.194-68.0243Q29.8203-67.8756 31.1466-65.7541Q32.473-63.6326 33.2614-60.8898Q34.0497-58.1471 34.1734-56.1367Q34.5632-48.7259 33.6909-40.4612Q32.8186-32.1965 31.9804-23.6286Q31.1422-15.0606 31.5103-6.74305Q31.8784 1.57448 34.8356 9.10965ZM85.0684 23.9877L90.9308 19.5369Q79.6908 5.64292 72.1964-8.36533Q64.702-22.3736 60.3719-35.3273Q56.0418-48.2811 54.3375-59.1283Q52.6333-69.9755 53.0788-77.6368Q53.5242-85.2982 55.4976-88.6752L47.1527-87.5103Q45.3224-80.4255 46.1117-68.3682Q46.9011-56.3109 51.074-41.1025Q55.2468-25.8941 63.5514-9.18006Q71.856 7.53398 85.0684 23.9877ZM76.2549 29.745Q89.6611 29.745 101.413 24.6782Q113.164 19.6113 122.141 10.6129Q131.117 1.61445 136.206-10.1369Q141.295-21.8882 141.295-35.2511Q141.295-48.6141 136.206-60.3654Q131.117-72.1167 122.119-81.1151Q113.121-90.1136 101.369-95.1804Q89.6179-100.247 76.2117-100.247Q62.8488-100.247 51.0881-95.1804Q39.3275-90.1136 30.3816-81.1151Q21.4357-72.1167 16.3472-60.3654Q11.2588-48.6141 11.2588-35.2511Q11.2588-21.8882 16.3472-10.1369Q21.4357 1.61445 30.4032 10.6129Q39.3707 19.6113 51.1313 24.6782Q62.892 29.745 76.2549 29.745ZM76.2549 19.7529Q64.9783 19.7529 55.0348 15.4476Q45.0913 11.1422 37.4982 3.54912Q29.9051-4.04397 25.5998-14.0092Q21.2944-23.9745 21.2944-35.2511Q21.2944-46.5278 25.578-56.493Q29.8616-66.4583 37.4547-74.0514Q45.0478-81.6445 54.9914-85.9498Q64.9351-90.2551 76.2117-90.2551Q87.5316-90.2551 97.4751-85.9498Q107.419-81.6445 115.033-74.0514Q122.648-66.4583 126.954-56.493Q131.259-46.5278 131.259-35.2511Q131.259-23.9745 126.954-14.0092Q122.648-4.04397 115.055 3.54912Q107.462 11.1422 97.5184 15.4476Q87.5748 19.7529 76.2549 19.7529Z"/>
  </g>
  <g id="Medium-L" transform="matrix(1 0 0 1 1670.9 1556)">
   <path d="M18.8782-30.1698Q27.296-41.8009 38.6063-50.3576Q49.9166-58.9144 63.4147-63.5863Q76.9128-68.2582 91.9966-68.2582Q110.12-68.2582 126.483-61.1881L124.933-69.2406Q117.3-72.0431 108.954-73.56Q100.608-75.0768 91.9966-75.0768Q76.0487-75.0768 61.5554-70.106Q47.0621-65.1352 34.9314-56.0998Q22.8007-47.0644 13.8185-34.9475ZM124.994-5.46882L131.536-7.34071Q129.223-15.6407 123.707-21.9803Q118.191-28.32 111.015-33.465Q103.839-38.61 96.3824-43.1644Q88.9257-47.7187 82.5205-52.2784Q76.1153-56.8381 72.1594-62.1119Q68.2035-67.3857 68.2035-73.9531Q68.2035-80.0739 71.3171-84.5329Q74.4306-88.9918 80.255-91.903L75.614-97.2163Q69.1365-93.5474 65.2609-87.5139Q61.3853-81.4804 61.3853-73.9531Q61.3853-65.9853 65.426-59.7424Q69.4667-53.4995 76.0261-48.3081Q82.5855-43.1167 90.1745-38.3843Q97.7636-33.652 104.969-28.7595Q112.174-23.8671 117.568-18.2151Q122.963-12.5631 124.994-5.46882ZM34.1304 9.23065L42.1813 10.1623Q38.522 3.44497 37.8899-4.57128Q37.2578-12.5875 38.1056-21.3087Q38.9534-30.0299 39.8829-39.0027Q40.8124-47.9755 40.3453-56.5731Q40.1582-59.6216 38.8322-63.7239Q37.5061-67.8262 35.1033-71.1224Q32.7005-74.4185 29.2139-75.1741L27.3816-68.4917Q29.0275-68.3629 30.3857-66.1772Q31.7439-63.9914 32.5523-61.1624Q33.3606-58.3334 33.5004-56.2869Q33.9425-48.8115 33.0823-40.5045Q32.2222-32.1974 31.3638-23.5971Q30.5055-14.9967 30.8474-6.65479Q31.1893 1.68713 34.1304 9.23065ZM84.4973 24.1291L89.9267 19.9829Q78.7353 6.12544 71.2289-7.84837Q63.7225-21.8222 59.3461-34.7739Q54.9697-47.7256 53.1969-58.6352Q51.4241-69.5448 51.7929-77.3654Q52.1618-85.1859 54.0705-88.8652L46.4398-87.9007Q44.5858-80.8511 45.3554-68.7712Q46.125-56.6913 50.3061-41.4044Q54.4872-26.1176 62.836-9.28917Q71.1848 7.53922 84.4973 24.1291ZM75.6366 29.1186Q88.9102 29.1186 100.549 24.0999Q112.188 19.0813 121.083 10.1631Q129.977 1.24491 135.02-10.394Q140.062-22.0329 140.062-35.2592Q140.062-48.4855 135.02-60.1244Q129.977-71.7633 121.059-80.6815Q112.141-89.5996 100.502-94.6183Q88.8629-99.637 75.5893-99.637Q62.363-99.637 50.7128-94.6183Q39.0626-89.5996 30.203-80.6815Q21.3434-71.7633 16.3011-60.1244Q11.2588-48.4855 11.2588-35.2592Q11.2588-22.0329 16.3011-10.394Q21.3434 1.24491 30.2266 10.1631Q39.1099 19.0813 50.7601 24.0999Q62.4103 29.1186 75.6366 29.1186ZM75.6366 20.2591Q64.2596 20.2591 54.2258 15.9135Q44.192 11.568 36.5245 3.90054Q28.8571-3.76691 24.5115-13.8246Q20.166-23.8822 20.166-35.2592Q20.166-46.6362 24.4877-56.6938Q28.8094-66.7515 36.4769-74.4189Q44.1443-82.0864 54.1784-86.4319Q64.2124-90.7774 75.5893-90.7774Q87.0136-90.7774 97.0474-86.4319Q107.081-82.0864 114.773-74.4189Q122.464-66.7515 126.809-56.6938Q131.155-46.6362 131.155-35.2592Q131.155-23.8822 126.809-13.8246Q122.464-3.76691 114.796 3.90054Q107.129 11.568 97.0949 15.9135Q87.0608 20.2591 75.6366 20.2591Z"/>
  </g>
  <g id="Regular-L" transform="matrix(1 0 0 1 1374.99 1556)">
   <path d="M17.1891-30.6176Q25.6857-42.364 37.1483-51.0281Q48.6109-59.6922 62.2874-64.427Q75.9638-69.1617 91.2207-69.1617Q109.365-69.1617 125.801-62.1652L124.206-69.4905Q116.541-72.2773 108.195-73.7916Q99.8485-75.3059 91.2207-75.3059Q75.225-75.3059 60.6891-70.3349Q46.1532-65.364 33.9749-56.3204Q21.7966-47.2768 12.7667-35.1385ZM124.68-5.54726L130.558-7.22047Q128.198-15.4685 122.624-21.7901Q117.05-28.1118 109.814-33.2701Q102.577-38.4283 95.073-43.0248Q87.5688-47.6213 81.124-52.2466Q74.6793-56.8719 70.6996-62.2349Q66.72-67.5979 66.72-74.2756Q66.72-80.5634 69.9508-85.1714Q73.1816-89.7794 79.1254-92.7275L74.5537-97.3304Q68.181-93.6612 64.3786-87.6903Q60.5763-81.7194 60.5763-74.2756Q60.5763-66.3492 64.6224-60.1217Q68.6685-53.8942 75.2465-48.6973Q81.8245-43.5004 89.4479-38.7442Q97.0713-33.988 104.334-29.0561Q111.597-24.1243 117.066-18.4144Q122.534-12.7046 124.68-5.54726ZM33.2107 9.38848L40.5081 10.424Q36.9171 3.58597 36.3402-4.5906Q35.7634-12.7672 36.648-21.612Q37.5326-30.4568 38.4437-39.4613Q39.3548-48.4658 38.8193-56.9323Q38.6059-59.7922 37.3217-63.7818Q36.0375-67.7715 33.7369-71.0258Q31.4363-74.28 28.0911-75.1094L26.3219-69.1014Q27.9934-68.9986 29.3932-66.729Q30.793-64.4594 31.6274-61.5179Q32.4618-58.5763 32.6226-56.4827Q33.133-48.9232 32.2886-40.5609Q31.4442-32.1986 30.5596-23.556Q29.675-14.9134 29.9827-6.53966Q30.2904 1.83405 33.2107 9.38848ZM83.7523 24.3137L88.617 20.5647Q77.4889 6.7548 69.9669-7.17407Q62.4449-21.1029 58.0081-34.0519Q53.5713-47.0009 51.7091-57.9919Q49.8468-68.983 50.1157-77.0113Q50.3846-85.0395 52.2092-89.1131L45.5099-88.4099Q43.625-81.4062 44.3689-69.2968Q45.1127-57.1875 49.3046-41.7983Q53.4965-26.409 61.9029-9.4315Q70.3093 7.54605 83.7523 24.3137ZM74.8301 28.3016Q87.9308 28.3016 99.4232 23.3458Q110.916 18.3899 119.703 9.5764Q128.49 0.7629 133.472-10.7293Q138.454-22.2216 138.454-35.2697Q138.454-48.3178 133.472-59.8101Q128.49-71.3023 119.676-80.1158Q110.863-88.9293 99.3707-93.8852Q87.8782-98.841 74.7776-98.841Q61.7295-98.841 50.2233-93.8852Q38.7171-88.9293 29.9701-80.1158Q21.2231-71.3023 16.2409-59.8101Q11.2588-48.3178 11.2588-35.2697Q11.2588-22.2216 16.2409-10.7293Q21.2231 0.7629 29.9963 9.5764Q38.7696 18.3899 50.2758 23.3458Q61.782 28.3016 74.8301 28.3016ZM74.8301 20.9193Q63.3223 20.9193 53.1706 16.5213Q43.0189 12.1233 35.2545 4.3589Q27.4901-3.40552 23.0921-13.5837Q18.6942-23.7619 18.6942-35.2697Q18.6942-46.7776 23.0656-56.9557Q27.4371-67.1339 35.2015-74.8983Q42.9659-82.6627 53.1178-87.0607Q63.2697-91.4587 74.7776-91.4587Q86.338-91.4587 96.4896-87.0607Q106.641-82.6627 114.432-74.8983Q122.223-67.1339 126.621-56.9557Q131.019-46.7776 131.019-35.2697Q131.019-23.7619 126.621-13.5837Q122.223-3.40552 114.459 4.3589Q106.694 12.1233 96.5424 16.5213Q86.3905 20.9193 74.8301 20.9193Z"/>
  </g>
  <g id="Light-L" transform="matrix(1 0 0 1 1079.2 1556)">
   <path d="M16.1204-30.2931Q24.5978-42.1539 36.1178-50.9422Q47.6377-59.7304 61.4286-64.5414Q75.2196-69.3525 90.5717-69.3525Q108.64-69.3525 125.152-62.356L123.232-68.6318Q115.606-71.3994 107.355-72.9042Q99.1043-74.409 90.5717-74.409Q74.7478-74.409 60.3646-69.4762Q45.9814-64.5434 33.9177-55.5856Q21.854-46.6278 12.9193-34.6039ZM124.146-5.68097L128.974-7.01044Q126.595-15.0677 121.059-21.2843Q115.523-27.5009 108.315-32.6116Q101.108-37.7223 93.6416-42.2997Q86.1756-46.8771 79.7786-51.5309Q73.3816-56.1848 69.4305-61.5859Q65.4794-66.9871 65.4794-73.7221Q65.4794-80.3534 69.025-85.1999Q72.5707-90.0465 78.9535-92.9757L74.0574-96.2042Q67.8375-92.6114 64.1306-86.7933Q60.4236-80.9751 60.4236-73.7221Q60.4236-65.9865 64.4316-59.8735Q68.4396-53.7605 74.9507-48.6401Q81.4618-43.5197 89.0184-38.8111Q96.5749-34.1025 103.8-29.1802Q111.024-24.258 116.493-18.5482Q121.962-12.8383 124.146-5.68097ZM33.1533 9.35032L39.382 10.7674Q35.8102 3.87231 35.2237-4.31387Q34.6372-12.5001 35.5218-21.3162Q36.4065-30.1323 37.3081-39.0796Q38.2098-48.0268 37.6932-56.3977Q37.499-59.0668 36.2721-62.9517Q35.0451-66.8365 32.8495-70.0333Q30.6539-73.2302 27.4421-74.0214L25.6729-69.1395Q27.5544-69.1323 29.0878-66.7671Q30.6212-64.402 31.5318-61.3175Q32.4425-58.2329 32.6034-56.0818Q33.133-48.5224 32.2886-40.1888Q31.4442-31.8552 30.5596-23.2698Q29.675-14.6844 29.9731-6.38703Q30.2712 1.91037 33.1533 9.35032ZM83.3325 24.1418L87.2812 21.08Q76.0767 7.17454 68.4973-6.82103Q60.9179-20.8166 56.4717-33.7943Q52.0254-46.772 50.1823-57.7725Q48.3391-68.7729 48.6271-76.7918Q48.9151-84.8106 50.7778-88.8649L45.338-88.62Q43.2623-82.0552 43.8536-70.1081Q44.4448-58.161 48.5604-42.724Q52.6759-27.287 61.1396-10.109Q69.6032 7.06892 83.3325 24.1418ZM73.914 27.3855Q86.8428 27.3855 98.1635 22.506Q109.484 17.6264 118.147 8.94647Q126.81 0.266525 131.707-11.0539Q136.603-22.3742 136.603-35.2697Q136.603-48.1652 131.707-59.4856Q126.81-70.8059 118.131-79.4859Q109.451-88.1658 98.1302-93.0454Q86.8095-97.9249 73.8807-97.9249Q60.9852-97.9249 49.6413-93.0454Q38.2974-88.1658 29.6743-79.4859Q21.0512-70.8059 16.155-59.4856Q11.2588-48.1652 11.2588-35.2697Q11.2588-22.3742 16.155-11.0539Q21.0512 0.266525 29.6909 8.94647Q38.3307 17.6264 49.6746 22.506Q61.0185 27.3855 73.914 27.3855ZM73.914 21.5683Q62.2343 21.5683 51.9587 17.1321Q41.6831 12.696 33.8327 4.84566Q25.9824-3.0047 21.5462-13.2973Q17.1101-23.59 17.1101-35.2697Q17.1101-46.9494 21.5292-57.2421Q25.9483-67.5347 33.7986-75.3851Q41.649-83.2354 51.925-87.6715Q62.201-92.1077 73.8807-92.1077Q85.5937-92.1077 95.8693-87.6715Q106.145-83.2354 114.012-75.3851Q121.88-67.5347 126.316-57.2421Q130.752-46.9494 130.752-35.2697Q130.752-23.59 126.316-13.2973Q121.88-3.0047 114.029 4.84566Q106.179 12.696 95.903 17.1321Q85.627 21.5683 73.914 21.5683Z"/>
  </g>
  <g id="Thin-L" transform="matrix(1 0 0 1 783.716 1556)">
   <path d="M14.7069-29.8639Q23.1588-41.8762 34.7547-50.8285Q46.3506-59.7809 60.2929-64.6928Q74.2352-69.6048 89.7134-69.6048Q107.681-69.6048 124.294-62.6083L121.945-67.4961Q114.369-70.2382 106.244-71.7305Q98.12-73.2228 89.7134-73.2228Q74.1168-73.2228 59.9354-68.3405Q45.754-63.4582 33.842-54.6138Q21.9299-45.7695 13.1212-33.897ZM123.439-5.85782L126.879-6.73266Q124.474-14.5376 118.989-20.6153Q113.504-26.693 106.334-31.7407Q99.164-36.7884 91.7484-41.3406Q84.3329-45.8928 77.9991-50.5844Q71.6653-55.2759 67.7519-60.7276Q63.8385-66.1792 63.8385-72.9901Q63.8385-80.0756 67.8007-85.2377Q71.7628-90.3998 78.7262-93.3039L73.4009-94.7148Q67.3833-91.2229 63.8026-85.6069Q60.2218-79.9908 60.2218-72.9901Q60.2218-65.5069 64.1793-59.5453Q68.1368-53.5836 74.5595-48.5644Q80.9822-43.5451 88.4503-38.8995Q95.9185-34.2539 103.093-29.3444Q110.267-24.4348 115.736-18.725Q121.204-13.0152 123.439-5.85782ZM33.0774 9.29985L37.8926 11.2216Q34.3462 4.25103 33.747-3.94788Q33.1478-12.1468 34.0324-20.9249Q34.917-29.7031 35.8062-38.5747Q36.6953-47.4462 36.2038-55.6908Q36.0351-58.1075 34.8838-61.8537Q33.7325-65.5998 31.6758-68.7208Q29.6191-71.8417 26.5837-72.5824L24.8145-69.19Q26.9738-69.3091 28.6838-66.8176Q30.3938-64.3261 31.4055-61.0524Q32.4171-57.7787 32.5779-55.5517Q33.133-47.9923 32.2886-39.6966Q31.4442-31.401 30.5596-22.8913Q29.675-14.3816 29.9603-6.18516Q30.2457 2.0113 33.0774 9.29985ZM82.7774 23.9145L85.5144 21.7615Q74.209 7.72968 66.5537-6.3541Q58.8984-20.4379 54.4396-33.4535Q49.9808-46.4692 48.1629-57.4822Q46.345-68.4952 46.6582-76.5015Q46.9715-84.5078 48.8846-88.5366L45.1107-88.8978Q42.7827-82.9136 43.172-71.1811Q43.5614-59.4486 47.576-43.9484Q51.5907-28.4482 60.13-11.0052Q68.6693 6.43787 82.7774 23.9145ZM72.7024 26.1739Q85.4038 26.1739 96.4975 21.3953Q107.591 16.6166 116.09 8.11334Q124.589-0.389971 129.372-11.483Q134.155-22.5761 134.155-35.2697Q134.155-47.9633 129.372-59.0564Q124.589-70.1494 116.086-78.6527Q107.583-87.1561 96.4896-91.9347Q85.396-96.7133 72.6945-96.7133Q60.0009-96.7133 48.8716-91.9347Q37.7422-87.1561 29.283-78.6527Q20.8239-70.1494 16.0413-59.0564Q11.2588-47.9633 11.2588-35.2697Q11.2588-22.5761 16.0413-11.483Q20.8239-0.389971 29.287 8.11334Q37.7501 16.6166 48.8794 21.3953Q60.0088 26.1739 72.7024 26.1739ZM72.7024 22.4266Q60.7953 22.4266 50.3558 17.94Q39.9163 13.4534 31.9523 5.48943Q23.9883-2.47458 19.5017-12.9186Q15.0151-23.3627 15.0151-35.2697Q15.0151-47.1767 19.4972-57.6208Q23.9792-68.0648 31.9432-76.0288Q39.9073-83.9929 50.3474-88.4794Q60.7875-92.966 72.6945-92.966Q84.6094-92.966 95.0489-88.4794Q105.488-83.9929 113.457-76.0288Q121.426-68.0648 125.912-57.6208Q130.399-47.1767 130.399-35.2697Q130.399-23.3627 125.912-12.9186Q121.426-2.47458 113.462 5.48943Q105.497 13.4534 95.0574 17.94Q84.6173 22.4266 72.7024 22.4266Z"/>
  </g>
  <g id="Ultralight-L" transform="matrix(1 0 0 1 487.631 1556)">
   <path d="M13.9829-29.6441Q22.4218-41.7339 34.0566-50.7703Q45.6914-59.8067 59.7112-64.7704Q73.7311-69.7341 89.2737-69.7341Q107.19-69.7341 123.854-62.7375L121.286-66.9144Q113.736-69.6435 105.676-71.1294Q97.6158-72.6153 89.2737-72.6153Q73.7936-72.6153 59.7156-67.7588Q45.6376-62.9023 33.8032-54.1161Q21.9687-45.3298 13.2246-33.5349ZM123.077-5.9484L125.806-6.59038Q123.388-14.2661 117.929-20.2726Q112.469-26.2792 105.319-31.2947Q98.1685-36.3101 90.7788-40.8494Q83.3891-45.3886 77.0876-50.0995Q70.7862-54.8104 66.8922-60.2879Q62.9981-65.7654 62.9981-72.6152Q62.9981-79.9334 67.1736-85.257Q71.349-90.5807 78.6098-93.4721L73.0646-93.9519Q67.1507-90.5117 63.6345-84.9992Q60.1184-79.4867 60.1184-72.6152Q60.1184-65.2612 64.05-59.3771Q67.9817-53.4931 74.3591-48.5256Q80.7365-43.5581 88.1593-38.9448Q95.5822-34.3315 102.731-29.4284Q109.879-24.5254 115.348-18.8156Q120.816-13.1058 123.077-5.9484ZM33.0385 9.27401L37.1297 11.4542Q33.5964 4.445 32.9907-3.76042Q32.3849-11.9658 33.2695-20.7246Q34.1542-29.4833 35.0369-38.3161Q35.9197-47.1489 35.4409-55.3287Q35.2852-57.6162 34.1727-61.2913Q33.0603-64.9664 31.0747-68.0485Q29.0891-71.1305 26.1441-71.8454L24.3748-69.2158Q26.6764-69.3997 28.4769-66.8435Q30.2774-64.2872 31.3407-60.9166Q32.4041-57.5461 32.5649-55.2802Q33.133-47.7207 32.2886-39.4445Q31.4442-31.1683 30.5596-22.6974Q29.675-14.2265 29.9538-6.08176Q30.2327 2.063 33.0385 9.27401ZM82.493 23.798L84.6095 22.1105Q73.2524 8.01402 65.5582-6.11495Q57.864-20.2439 53.3988-33.279Q48.9336-46.3141 47.1286-57.3335Q45.3237-68.3529 45.6498-76.3528Q45.976-84.3527 47.915-88.3685L44.9943-89.04Q42.537-83.3532 42.823-71.7306Q43.1089-60.108 47.0719-44.5755Q51.0348-29.0429 59.6129-11.4641Q68.191 6.11465 82.493 23.798ZM72.0818 25.5533Q84.6668 25.5533 95.6442 20.8264Q106.622 16.0995 115.036 7.68661Q123.451-0.726225 128.176-11.7029Q132.901-22.6795 132.901-35.2697Q132.901-47.8599 128.176-58.8365Q123.451-69.8132 115.039-78.226Q106.627-86.6389 95.6493-91.3658Q84.672-96.0927 72.087-96.0927Q59.4967-96.0927 48.4773-91.3658Q37.4579-86.6389 29.0827-78.226Q20.7074-69.8132 15.9831-58.8365Q11.2588-47.8599 11.2588-35.2697Q11.2588-22.6795 15.9831-11.7029Q20.7074-0.726225 29.0801 7.68661Q37.4527 16.0995 48.4721 20.8264Q59.4916 25.5533 72.0818 25.5533ZM72.0818 22.8663Q60.0583 22.8663 49.5348 18.3538Q39.0114 13.8414 30.9892 5.81917Q22.9669-2.20306 18.4545-12.7246Q13.942-23.2462 13.942-35.2697Q13.942-47.2932 18.4564-57.8148Q22.9707-68.3363 30.9929-76.3586Q39.0151-84.3808 49.5393-88.8932Q60.0635-93.4057 72.087-93.4057Q84.1052-93.4057 94.6287-88.8932Q105.152-84.3808 113.173-76.3586Q121.193-68.3363 125.705-57.8148Q130.218-47.2932 130.218-35.2697Q130.218-23.2462 125.705-12.7246Q121.193-2.20306 113.171 5.81917Q105.148 13.8414 94.6242 18.3538Q84.1001 22.8663 72.0818 22.8663Z"/>
  </g>
  <g id="Black-M" transform="matrix(1 0 0 1 2871.36 1126)">
   <path d="M22.1267-29.1137Q28.2745-37.6271 36.3475-43.7987Q44.4205-49.9704 54.0866-53.3234Q63.7528-56.6764 74.6653-56.6764Q88.5812-56.6764 100.942-50.8562L99.8466-60.1233Q94.0932-62.3614 87.6613-63.5453Q81.2295-64.7292 74.6653-64.7292Q62.5911-64.7292 51.6127-60.8917Q40.6343-57.0542 31.497-50.1215Q22.3598-43.1888 15.6553-33.9399ZM98.1168-11.8529L105.92-14.1112Q104.342-20.7183 100.351-25.6783Q96.3601-30.6383 91.0923-34.5461Q85.8244-38.4539 80.2812-41.7797Q74.738-45.1056 69.9761-48.3425Q65.2142-51.5794 62.2699-55.2628Q59.3255-58.9461 59.3255-63.5403Q59.3255-67.6215 61.299-70.4633Q63.2726-73.3052 67.3782-75.3824L63.349-82.3388Q57.8952-79.5235 54.5839-74.6096Q51.2726-69.6957 51.2726-63.5403Q51.2726-57.2395 54.3651-52.3702Q57.4576-47.501 62.43-43.5305Q67.4024-39.56 73.0992-36.0208Q78.796-32.4817 84.0951-28.8782Q89.3943-25.2747 93.2313-21.1651Q97.0684-17.0555 98.1168-11.8529ZM30.7053-1.53221L40.0869-1.16405Q36.9403-5.82583 36.1903-11.2932Q35.4403-16.7605 35.9258-22.9319Q36.4113-29.1033 37.2136-35.8876Q38.0159-42.672 37.9791-49.911Q37.9632-53.0859 36.7605-56.7529Q35.5577-60.42 33.2562-63.1492Q30.9546-65.8784 27.6403-66.1076L25.927-58.1736Q27.1544-57.9852 28.0584-56.6496Q28.9624-55.314 29.4935-53.5974Q30.0246-51.8808 30.035-50.4954Q30.066-45.0955 29.3261-38.9268Q28.5863-32.7581 28.0437-26.3112Q27.501-19.8644 27.9217-13.5756Q28.3423-7.28678 30.7053-1.53221ZM68.7896 9.84047L75.3136 5.01238Q66.3222-5.97768 60.5598-17.0357Q54.7975-28.0937 51.6849-38.1502Q48.5723-48.2068 47.6218-56.283Q46.6712-64.3593 47.4288-69.4479Q48.1864-74.5366 50.0704-75.5448L40.25-73.7366Q38.8926-68.2108 39.5568-59.0443Q40.2211-49.8778 43.3842-38.4948Q46.5474-27.1118 52.7667-14.7004Q58.986-2.28898 68.7896 9.84047ZM62.0422 18.116Q73.0725 18.116 82.714 13.9613Q92.3554 9.8066 99.7039 2.45537Q107.052-4.89586 111.21-14.5373Q115.367-24.1788 115.367-35.2035Q115.367-46.2283 111.21-55.8698Q107.052-65.5112 99.7012-72.8625Q92.3499-80.2137 82.7085-84.3684Q73.067-88.5231 62.0367-88.5231Q51.0119-88.5231 41.3706-84.3684Q31.7293-80.2137 24.3835-72.8625Q17.0376-65.5112 12.8801-55.8698Q8.72266-46.2283 8.72266-35.2035Q8.72266-24.1788 12.8801-14.5373Q17.0376-4.89586 24.3862 2.45537Q31.7348 9.8066 41.3761 13.9613Q51.0174 18.116 62.0422 18.116ZM62.0422 4.90662Q53.7789 4.90662 46.5117 1.77112Q39.2446-1.36439 33.7266-6.88238Q28.2086-12.4004 25.0731-19.6703Q21.9376-26.9402 21.9376-35.2035Q21.9376-43.4669 25.0703-50.7368Q28.2031-58.0067 33.7211-63.5247Q39.2391-69.0427 46.5062-72.1782Q53.7734-75.3137 62.0367-75.3137Q70.3056-75.3137 77.5727-72.1782Q84.8399-69.0427 90.3607-63.5247Q95.8814-58.0067 99.0169-50.7368Q102.152-43.4669 102.152-35.2035Q102.152-26.9402 99.0169-19.6703Q95.8814-12.4004 90.3634-6.88238Q84.8454-1.36439 77.5782 1.77112Q70.3111 4.90662 62.0422 4.90662Z"/>
  </g>
  <g id="Heavy-M" transform="matrix(1 0 0 1 2575.48 1126)">
   <path d="M20.1913-29.7574Q26.4444-38.394 34.7002-44.6766Q42.9561-50.9591 52.8262-54.3763Q62.6964-57.7934 73.8103-57.7934Q87.7699-57.7934 100.209-52.0675L99.1233-60.6281Q93.3211-62.8501 86.8684-64.0328Q80.4157-65.2154 73.8103-65.2154Q61.6378-65.2154 50.5721-61.3696Q39.5063-57.5237 30.2834-50.562Q21.0604-43.6004 14.2744-34.2995ZM97.8296-11.9247L105.007-14.0022Q103.372-20.5838 99.2991-25.5432Q95.2258-30.5026 89.8742-34.4377Q84.5226-38.3727 78.9104-41.7567Q73.2982-45.1406 68.4754-48.4555Q63.6525-51.7703 60.6715-55.5598Q57.6905-59.3493 57.6905-64.0726Q57.6905-68.2941 59.7467-71.2757Q61.8029-74.2573 65.9673-76.3858L62.0968-82.7269Q56.7443-79.8949 53.5064-75.0284Q50.2685-70.1619 50.2685-64.0726Q50.2685-57.7838 53.3761-52.9097Q56.4837-48.0355 61.4943-44.0416Q66.505-40.0476 72.2601-36.4677Q78.0153-32.8878 83.3969-29.2317Q88.7786-25.5756 92.71-21.3918Q96.6413-17.2081 97.8296-11.9247ZM29.5388-1.32173L38.1843-0.902441Q35.1212-5.70662 34.444-11.3774Q33.7668-17.0481 34.2994-23.3841Q34.8321-29.7201 35.6129-36.5574Q36.3937-43.3947 36.2652-50.4861Q36.2114-53.4604 35.05-57.0055Q33.8886-60.5507 31.6955-63.2386Q29.5023-65.9264 26.3406-66.2583L24.7082-58.9467Q25.9233-58.7712 26.8519-57.3487Q27.7806-55.9261 28.3286-54.0961Q28.8766-52.266 28.914-50.8324Q29.0284-45.3248 28.3088-39.0791Q27.5891-32.8334 27.0128-26.3201Q26.4365-19.8067 26.8155-13.4608Q27.1944-7.11486 29.5388-1.32173ZM67.9249 10.1139L73.9219 5.64735Q65.0281-5.26118 59.258-16.2473Q53.488-27.2333 50.3001-37.2803Q47.1121-47.3272 46.0428-55.5058Q44.9735-63.6843 45.5989-69.0413Q46.2243-74.3982 47.9922-75.9158L39.0951-74.3441Q37.739-68.7828 38.4031-59.5437Q39.0671-50.3046 42.2605-38.8007Q45.4538-27.2967 51.7347-14.7372Q58.0155-2.17773 67.9249 10.1139ZM61.2053 17.2657Q72.0509 17.2657 81.5413 13.1751Q91.0318 9.08448 98.2693 1.83873Q105.507-5.40703 109.606-14.8974Q113.704-24.3879 113.704-35.217Q113.704-46.0462 109.606-55.5366Q105.507-65.027 98.2611-72.2728Q91.0154-79.5185 81.5249-83.6091Q72.0345-87.6997 61.1889-87.6997Q50.3598-87.6997 40.8682-83.6091Q31.3767-79.5185 24.1484-72.2728Q16.9202-65.027 12.8214-55.5366Q8.72266-46.0462 8.72266-35.217Q8.72266-24.3879 12.8214-14.8974Q16.9202-5.40703 24.1566 1.83873Q31.3931 9.08448 40.8846 13.1751Q50.3762 17.2657 61.2053 17.2657ZM61.2053 5.6134Q52.8112 5.6134 45.4196 2.41889Q38.028-0.775622 32.4042-6.39945Q26.7804-12.0233 23.5859-19.4231Q20.3913-26.8229 20.3913-35.217Q20.3913-43.6112 23.5776-51.011Q26.7639-58.4108 32.3878-64.0346Q38.0116-69.6584 45.4032-72.8529Q52.7948-76.0474 61.1889-76.0474Q69.5995-76.0474 76.9911-72.8529Q84.3826-69.6584 90.0147-64.0346Q95.6467-58.4108 98.8413-51.011Q102.036-43.6112 102.036-35.217Q102.036-26.8229 98.8413-19.4231Q95.6467-12.0233 90.0229-6.39945Q84.3991-0.775622 77.0075 2.41889Q69.6159 5.6134 61.2053 5.6134Z"/>
  </g>
  <g id="Bold-M" transform="matrix(1 0 0 1 2279.69 1126)">
   <path d="M18.0264-30.4776Q24.3971-39.2518 32.8576-45.6585Q41.318-52.0652 51.4163-55.5541Q61.5146-59.0429 72.8538-59.0429Q86.8623-59.0429 99.3879-53.4226L98.3143-61.1928Q92.4575-63.3968 85.9813-64.5781Q79.5052-65.7593 72.8538-65.7593Q60.5715-65.7593 49.408-61.9041Q38.2445-58.0489 28.9257-51.0548Q19.6069-44.0608 12.7296-34.7017ZM97.5083-12.0051L103.986-13.8803Q102.288-20.4333 98.1224-25.392Q93.9569-30.3508 88.5116-34.3164Q83.0663-38.282 77.377-41.7309Q71.6876-45.1798 66.7965-48.5819Q61.9054-51.9839 58.8835-55.8922Q55.8616-59.8004 55.8616-64.6679Q55.8616-69.0464 58.0102-72.1843Q60.1588-75.3223 64.389-77.5083L60.6959-83.1611Q55.4568-80.3104 52.301-75.4969Q49.1453-70.6835 49.1453-64.6679Q49.1453-58.3927 52.2698-53.5131Q55.3942-48.6335 60.4476-44.6133Q65.501-40.5932 71.3215-36.9676Q77.142-33.3421 82.6159-29.6271Q88.0898-25.9121 92.1267-21.6455Q96.1636-17.3789 97.5083-12.0051ZM28.2338-1.08627L36.056-0.6098Q33.0862-5.57327 32.4904-11.4716Q31.8947-17.3698 32.4801-23.8899Q33.0656-30.41 33.8223-37.3066Q34.5791-44.2032 34.3479-51.1295Q34.2518-53.8792 33.1367-57.2881Q32.0215-60.697 29.9496-63.3386Q27.8777-65.9801 24.8867-66.4268L23.3448-59.8116Q24.5461-59.6504 25.5023-58.1307Q26.4585-56.6109 27.0255-54.6539Q27.5925-52.6969 27.66-51.2095Q27.8677-45.5812 27.1707-39.2494Q26.4737-32.9176 25.8597-26.3299Q25.2457-19.7423 25.578-13.3324Q25.9103-6.92254 28.2338-1.08627ZM66.9576 10.4197L72.3651 6.35766Q63.5804-4.45968 57.8018-15.3653Q52.0232-26.271 48.7509-36.3071Q45.4786-46.3433 44.2765-54.6363Q43.0744-62.9293 43.5519-68.5863Q44.0295-74.2433 45.6674-76.3308L37.8032-75.0238Q36.4487-69.4227 37.1124-60.1024Q37.7762-50.7822 41.0033-39.1429Q44.2305-27.5037 50.5802-14.7785Q56.93-2.05329 66.9576 10.4197ZM60.2692 16.3144Q70.9081 16.3144 80.2296 12.2955Q89.5511 8.27669 96.6645 1.14892Q103.778-5.97884 107.811-15.3003Q111.844-24.6218 111.844-35.2321Q111.844-45.8424 107.811-55.1639Q103.778-64.4854 96.6502-71.6131Q89.5225-78.7409 80.201-82.7597Q70.8795-86.7786 60.2406-86.7786Q49.6302-86.7786 40.3062-82.7597Q30.9821-78.7409 23.8855-71.6131Q16.789-64.4854 12.7558-55.1639Q8.72266-45.8424 8.72266-35.2321Q8.72266-24.6218 12.7558-15.3003Q16.789-5.97884 23.8998 1.14892Q31.0107 8.27669 40.3348 12.2955Q49.6588 16.3144 60.2692 16.3144ZM60.2692 6.40404Q51.7287 6.40404 44.1979 3.14352Q36.6672-0.117006 30.925-5.85923Q25.1827-11.6015 21.9222-19.1465Q18.6617-26.6916 18.6617-35.2321Q18.6617-43.7726 21.9079-51.3177Q25.1541-58.8627 30.8963-64.605Q36.6385-70.3472 44.1693-73.6077Q51.7001-76.8682 60.2406-76.8682Q68.8097-76.8682 76.3404-73.6077Q83.8711-70.3472 89.6277-64.605Q95.3842-58.8627 98.6448-51.3177Q101.905-43.7726 101.905-35.2321Q101.905-26.6916 98.6448-19.1465Q95.3842-11.6015 89.642-5.85923Q83.8998-0.117006 76.369 3.14352Q68.8382 6.40404 60.2692 6.40404Z"/>
  </g>
  <g id="Semibold-M" transform="matrix(1 0 0 1 1983.62 1126)">
   <path d="M16.5339-30.974Q22.9858-39.8432 31.5872-46.3355Q40.1887-52.8277 50.4443-56.366Q60.6999-59.9044 72.1945-59.9044Q86.2366-59.9044 98.8221-54.3567L97.7565-61.5821Q91.8621-63.7737 85.3698-64.954Q78.8776-66.1343 72.1945-66.1343Q59.8363-66.1343 48.6055-62.2726Q37.3747-58.4109 27.9897-51.3946Q18.6048-44.3783 11.6646-34.9791ZM97.2868-12.0605L103.282-13.7963Q101.54-20.3295 97.3112-25.2878Q93.0821-30.2461 87.5723-34.2328Q82.0624-38.2194 76.3198-41.7132Q70.5773-45.2069 65.6391-48.669Q60.701-52.1311 57.6509-56.1213Q54.6008-60.1114 54.6008-65.0784Q54.6008-69.5651 56.813-72.8108Q59.0253-76.0565 63.3009-78.2821L59.7302-83.4604Q54.5692-80.5968 51.4701-75.8199Q48.371-71.043 48.371-65.0784Q48.371-58.8125 51.507-53.9291Q54.6431-49.0457 59.726-45.0075Q64.8088-40.9692 70.6744-37.3122Q76.54-33.6552 82.0775-29.8997Q87.615-26.1442 91.7246-21.8204Q95.8342-17.4966 97.2868-12.0605ZM27.3342-0.923951L34.5887-0.408054Q31.6832-5.48133 31.1437-11.5365Q30.6041-17.5916 31.2259-24.2387Q31.8477-30.8857 32.5879-37.8231Q33.3281-44.7605 33.0261-51.5731Q32.9009-54.168 31.8176-57.4829Q30.7343-60.7978 28.7461-63.4075Q26.7578-66.0171 23.8845-66.543L22.4048-60.4079Q23.5967-60.2566 24.5719-58.6698Q25.5471-57.083 26.1272-55.0385Q26.7072-52.994 26.7955-51.4694Q27.0676-45.7581 26.3862-39.3668Q25.7047-32.9756 25.0648-26.3367Q24.4248-19.6978 24.7249-13.2439Q25.025-6.78995 27.3342-0.923951ZM66.2907 10.6306L71.2918 6.84734Q62.5824-3.90713 56.7979-14.7573Q51.0133-25.6075 47.6829-35.6362Q44.3525-45.665 43.0588-54.0369Q41.7652-62.4088 42.1408-68.2727Q42.5163-74.1365 44.0647-76.6169L36.9125-75.4923Q35.5591-69.8639 36.2227-60.4876Q36.8863-51.1113 40.1367-39.3788Q43.3871-27.6463 49.7843-14.8069Q56.1816-1.96749 66.2907 10.6306ZM59.6238 15.6586Q70.1202 15.6586 79.3253 11.6892Q88.5303 7.7198 95.5582 0.673376Q102.586-6.37304 106.574-15.578Q110.562-24.783 110.562-35.2425Q110.562-45.702 106.574-54.907Q102.586-64.1119 95.5397-71.1584Q88.4933-78.2048 79.2883-82.1742Q70.0832-86.1436 59.5868-86.1436Q49.1273-86.1436 39.9187-82.1742Q30.7102-78.2048 23.7043-71.1584Q16.6985-64.1119 12.7106-54.907Q8.72266-45.702 8.72266-35.2425Q8.72266-24.783 12.7106-15.578Q16.6985-6.37304 23.7228 0.673376Q30.7471 7.7198 39.9557 11.6892Q49.1643 15.6586 59.6238 15.6586ZM59.6238 6.94911Q50.9824 6.94911 43.3557 3.64307Q35.729 0.33704 29.9052-5.4868Q24.0813-11.3106 20.7753-18.9559Q17.4693-26.6011 17.4693-35.2425Q17.4693-43.8839 20.7567-51.5291Q24.0442-59.1743 29.8681-64.9982Q35.6919-70.822 43.3186-74.128Q50.9454-77.4341 59.5868-77.4341Q68.2651-77.4341 75.8918-74.128Q83.5185-70.822 89.3609-64.9982Q95.2033-59.1743 98.5093-51.5291Q101.815-43.8839 101.815-35.2425Q101.815-26.6011 98.5093-18.9559Q95.2033-11.3106 89.3794-5.4868Q83.5556 0.33704 75.9289 3.64307Q68.3021 6.94911 59.6238 6.94911Z"/>
  </g>
  <g id="Medium-M" transform="matrix(1 0 0 1 1687.4 1126)">
   <path d="M15.4022-31.3504Q21.9156-40.2917 30.624-46.8488Q39.3324-53.4059 49.7073-56.9817Q60.0822-60.5575 71.6945-60.5575Q85.7622-60.5575 98.393-55.0651L97.3336-61.8773Q91.4106-64.0595 84.9061-65.2391Q78.4017-66.4186 71.6945-66.4186Q59.2789-66.4186 47.997-62.552Q36.7151-58.6855 27.2801-51.6522Q17.845-44.619 10.8572-35.1893ZM97.1189-12.1025L102.748-13.7325Q100.974-20.2509 96.6962-25.2088Q92.4189-30.1667 86.86-34.1694Q81.3012-38.172 75.5183-41.6997Q69.7353-45.2274 64.7616-48.7351Q59.7878-52.2428 56.7163-56.295Q53.6447-60.3472 53.6447-65.3896Q53.6447-69.9583 55.9053-73.2858Q58.1659-76.6132 62.4758-78.8689L58.9979-83.6874Q53.8962-80.814 50.84-76.0648Q47.7838-71.3157 47.7838-65.3896Q47.7838-59.1307 50.9287-54.2445Q54.0737-49.3583 59.1788-45.3064Q64.284-41.2544 70.1838-37.5736Q76.0835-33.8927 81.6692-30.1064Q87.255-26.3201 91.4197-21.953Q95.5845-17.5859 97.1189-12.1025ZM26.6521-0.800872L33.4762-0.255082Q30.6195-5.41162 30.1225-11.5857Q29.6255-17.7598 30.2749-24.5031Q30.9243-31.2464 31.6519-38.2147Q32.3796-45.1831 32.0239-51.9094Q31.8765-54.387 30.8174-57.6306Q29.7584-60.8743 27.8334-63.4597Q25.9085-66.0452 23.1245-66.6311L21.6921-60.86Q22.8768-60.7161 23.8664-59.0785Q24.856-57.4409 25.446-55.3301Q26.036-53.2192 26.1401-51.6665Q26.4609-45.8921 25.7913-39.4559Q25.1217-33.0196 24.462-26.3419Q23.8023-19.6642 24.0781-13.1768Q24.3538-6.68942 26.6521-0.800872ZM65.7851 10.7905L70.478 7.21864Q61.8257-3.48816 56.0366-14.2963Q50.2476-25.1044 46.8731-35.1275Q43.4986-45.1506 42.1355-53.5824Q40.7725-62.0142 41.0707-68.0348Q41.369-74.0555 42.8494-76.8338L36.2372-75.8475Q34.8846-70.1984 35.548-60.7797Q36.2115-51.361 39.4796-39.5577Q42.7476-27.7545 49.1809-14.8285Q55.6141-1.90244 65.7851 10.7905ZM59.1344 15.1614Q69.5228 15.1614 78.6396 11.2295Q87.7563 7.29754 94.7193 0.312797Q101.682-6.67194 105.636-15.7886Q109.59-24.9053 109.59-35.2504Q109.59-45.5955 105.636-54.7121Q101.682-63.8288 94.6976-70.8135Q87.713-77.7983 78.5962-81.7302Q69.4795-85.6621 59.091-85.6621Q48.7459-85.6621 39.6249-81.7302Q30.5039-77.7983 23.5669-70.8135Q16.6298-63.8288 12.6762-54.7121Q8.72266-45.5955 8.72266-35.2504Q8.72266-24.9053 12.6762-15.7886Q16.6298-6.67194 23.5886 0.312797Q30.5473 7.29754 39.6683 11.2295Q48.7893 15.1614 59.1344 15.1614ZM59.1344 7.3624Q50.4165 7.3624 42.7171 4.02186Q35.0177 0.681317 29.1319-5.20441Q23.2462-11.0901 19.9057-18.8113Q16.5651-26.5325 16.5651-35.2504Q16.5651-43.9683 19.8839-51.6894Q23.2027-59.4106 29.0884-65.2963Q34.9742-71.1821 42.6737-74.5226Q50.3731-77.8631 59.091-77.8631Q67.8523-77.8631 75.5517-74.5226Q83.2511-71.1821 89.1586-65.2963Q95.0661-59.4106 98.4066-51.6894Q101.747-43.9683 101.747-35.2504Q101.747-26.5325 98.4066-18.8113Q95.0661-11.0901 89.1803-5.20441Q83.2946 0.681317 75.5951 4.02186Q67.8956 7.3624 59.1344 7.3624Z"/>
  </g>
  <g id="Regular-M" transform="matrix(1 0 0 1 1391.32 1126)">
   <path d="M13.9262-31.8414Q20.5198-40.8766 29.3677-47.5183Q38.2155-54.1601 48.746-57.7848Q59.2764-61.4095 71.0424-61.4095Q85.1434-61.4095 97.8334-55.989L96.7819-62.2623Q90.8218-64.4323 84.3013-65.6109Q77.7809-66.7894 71.0424-66.7894Q58.5518-66.7894 47.2033-62.9165Q35.8548-59.0435 26.3544-51.9882Q16.854-44.9329 9.80391-35.4636ZM96.8998-12.1572L102.052-13.6494Q100.234-20.1482 95.8939-25.1057Q91.5537-30.0632 85.931-34.0867Q80.3083-38.1101 74.4727-41.6821Q68.6372-45.2541 63.6169-48.8212Q58.5967-52.3884 55.4972-56.5216Q52.3977-60.6548 52.3977-65.7955Q52.3977-70.4713 54.7213-73.9053Q57.0449-77.3394 61.3997-79.6342L58.0428-83.9834Q53.0183-81.0973 50.0182-76.3843Q47.018-71.6713 47.018-65.7955Q47.018-59.5459 50.1744-54.656Q53.3309-49.766 58.4652-45.6962Q63.5995-41.6264 69.5438-37.9144Q75.4881-34.2024 81.1367-30.376Q86.7853-26.5496 91.0221-22.126Q95.2588-17.7023 96.8998-12.1572ZM25.7624-0.640333L32.0251-0.0555538Q29.232-5.3207 28.7906-11.6499Q28.3491-17.9792 29.0345-24.848Q29.7198-31.7168 30.4311-38.7256Q31.1424-45.7344 30.7167-52.3481Q30.5404-54.6726 29.5129-57.8233Q28.4853-60.974 26.6431-63.5279Q24.8009-66.0818 22.1332-66.7461L20.7625-61.4497Q21.9378-61.3156 22.9462-59.6117Q23.9546-57.9078 24.5575-55.7104Q25.1605-53.513 25.2851-51.9236Q25.6695-46.067 25.0153-39.572Q24.3611-33.077 23.6758-26.3486Q22.9904-19.6202 23.2343-13.0893Q23.4782-6.5583 25.7624-0.640333ZM65.1256 10.999L69.4166 7.70294Q60.8386-2.94168 55.0437-13.695Q49.2488-24.4482 45.8168-34.464Q42.3848-44.4798 40.9312-52.9896Q39.4776-61.4994 39.6751-67.7247Q39.8725-73.9499 41.2643-77.1168L35.3564-76.3109Q34.0048-70.6347 34.6681-61.1606Q35.3313-51.6865 38.6224-39.7911Q41.9136-27.8956 48.3937-14.8566Q54.8739-1.81759 65.1256 10.999ZM58.4961 14.5128Q68.7436 14.5128 77.7452 10.6298Q86.7468 6.74677 93.6251-0.157525Q100.503-7.06182 104.412-16.0633Q108.321-25.0648 108.321-35.2606Q108.321-45.4565 104.412-54.458Q100.503-63.4595 93.5993-70.3638Q86.6951-77.2681 77.6935-81.1511Q68.692-85.0341 58.4444-85.0341Q48.2485-85.0341 39.2417-81.1511Q30.2349-77.2681 23.3876-70.3638Q16.5403-63.4595 12.6315-54.458Q8.72266-45.4565 8.72266-35.2606Q8.72266-25.0648 12.6315-16.0633Q16.5403-7.06182 23.4135-0.157525Q30.2866 6.74677 39.2934 10.6298Q48.3002 14.5128 58.4961 14.5128ZM58.4961 7.90147Q49.6784 7.90147 41.8841 4.51592Q34.0898 1.13037 28.1234-4.83608Q22.1569-10.8025 18.7714-18.6228Q15.3858-26.443 15.3858-35.2606Q15.3858-44.0783 18.7454-51.8985Q22.1051-59.7188 28.0715-65.6852Q34.038-71.6517 41.8324-75.0372Q49.6267-78.4228 58.4444-78.4228Q67.3138-78.4228 75.108-75.0372Q82.9023-71.6517 88.8947-65.6852Q94.8871-59.7188 98.2726-51.8985Q101.658-44.0783 101.658-35.2606Q101.658-26.443 98.2726-18.6228Q94.8871-10.8025 88.9206-4.83608Q82.9542 1.13037 75.1598 4.51592Q67.3654 7.90147 58.4961 7.90147Z"/>
  </g>
  <g id="Light-M" transform="matrix(1 0 0 1 1095.44 1126)">
   <path d="M12.968-31.5505Q19.5444-40.6883 28.4437-47.4413Q37.343-54.1943 47.9761-57.8874Q58.6092-61.5805 70.4605-61.5805Q84.4931-61.5805 97.2515-56.16L95.9094-61.4924Q89.9834-63.6452 83.5486-64.8153Q77.1137-65.9853 70.4605-65.9853Q58.1241-65.9853 46.9124-62.1466Q35.7007-58.3079 26.3031-51.3294Q16.9055-44.351 9.94075-34.9843ZM96.4206-12.2771L100.631-13.4611Q98.7967-19.7889 94.4907-24.6522Q90.1847-29.5155 84.5877-33.4963Q78.9907-37.4771 73.1894-41.032Q67.3881-44.5868 62.4106-48.1796Q57.4332-51.7723 54.3593-55.9397Q51.2855-60.1071 51.2855-65.2993Q51.2855-70.283 53.8914-73.9309Q56.4973-77.5788 61.2456-79.8567L57.5977-82.9737Q52.7105-80.156 49.7958-75.58Q46.8811-71.004 46.8811-65.2993Q46.8811-59.2207 50.0034-54.4334Q53.1256-49.6461 58.2-45.6449Q63.2744-41.6436 69.1587-37.9743Q75.0431-34.3051 80.6575-30.4873Q86.2719-26.6695 90.5086-22.2459Q94.7453-17.8222 96.4206-12.2771ZM25.7109-0.674544L31.0154 0.252342Q28.2396-5.06398 27.7895-11.4018Q27.3395-17.7397 28.0248-24.5828Q28.7102-31.4259 29.413-38.3833Q30.1158-45.3408 29.707-51.8689Q29.548-54.0223 28.5718-57.079Q27.5956-60.1357 25.8475-62.6381Q24.0994-65.1406 21.5513-65.7706L20.1806-61.4839Q21.5442-61.4355 22.6724-59.6459Q23.8005-57.8564 24.4719-55.5307Q25.1432-53.2051 25.2678-51.5643Q25.6695-45.7076 25.0153-39.2384Q24.3611-32.7691 23.6758-26.092Q22.9904-19.4149 23.2257-12.9524Q23.461-6.48988 25.7109-0.674544ZM64.7493 10.8449L68.2189 8.16493Q59.5726-2.56537 53.7262-13.3784Q47.8798-24.1915 44.4393-34.233Q40.9989-44.2745 39.5624-52.7928Q38.1259-61.3111 38.3404-67.5279Q38.555-73.7446 39.981-76.8943L35.2023-76.4992Q33.6796-71.2165 34.2061-61.8879Q34.7325-52.5593 37.9552-40.621Q41.1779-28.6828 47.7094-15.4641Q54.2409-2.24536 64.7493 10.8449ZM57.6747 13.6914Q67.7682 13.6914 76.6158 9.87685Q85.4634 6.06227 92.2305-0.722288Q98.9976-7.50684 102.83-16.3542Q106.662-25.2016 106.662-35.2606Q106.662-45.3197 102.83-54.1671Q98.9976-63.0144 92.2133-69.799Q85.429-76.5836 76.5814-80.3981Q67.7338-84.2127 57.6403-84.2127Q47.5813-84.2127 38.7199-80.3981Q29.8586-76.5836 23.1224-69.799Q16.3862-63.0144 12.5544-54.1671Q8.72266-45.3197 8.72266-35.2606Q8.72266-25.2016 12.5544-16.3542Q16.3862-7.50684 23.1396-0.722288Q29.893 6.06227 38.7544 9.87685Q47.6157 13.6914 57.6747 13.6914ZM57.6747 8.48334Q48.703 8.48334 40.7976 5.06358Q32.8922 1.64382 26.8487-4.39968Q20.8052-10.4432 17.3854-18.366Q13.9656-26.2889 13.9656-35.2606Q13.9656-44.2324 17.368-52.1553Q20.7703-60.0781 26.8138-66.1216Q32.8573-72.1651 40.7629-75.5849Q48.6686-79.0046 57.6403-79.0046Q66.6465-79.0046 74.5519-75.5849Q82.4573-72.1651 88.5183-66.1216Q94.5792-60.0781 97.999-52.1553Q101.419-44.2324 101.419-35.2606Q101.419-26.2889 97.999-18.366Q94.5792-10.4432 88.5357-4.39968Q82.4922 1.64382 74.5866 5.06358Q66.6809 8.48334 57.6747 8.48334Z"/>
  </g>
  <g id="Thin-M" transform="matrix(1 0 0 1 799.828 1126)">
   <path d="M11.7007-31.1657Q18.2543-40.4392 27.2216-47.3394Q36.189-54.2395 46.9579-58.0231Q57.7267-61.8068 69.6909-61.8068Q83.633-61.8068 96.482-56.3863L94.7554-60.4742Q88.8747-62.6041 82.553-63.763Q76.2312-64.9219 69.6909-64.9219Q57.5583-64.9219 46.5276-61.1284Q35.4969-57.3349 26.2352-50.4582Q16.9735-43.5815 10.1217-34.3505ZM95.7867-12.4357L98.7532-13.2121Q96.8956-19.3136 92.6349-24.0524Q88.3741-28.7912 82.8111-32.7155Q77.2482-36.6399 71.4921-40.1721Q65.736-43.7043 60.8152-47.3309Q55.8944-50.9575 52.8544-55.1701Q49.8144-59.3828 49.8144-64.643Q49.8144-70.0339 52.7937-73.9648Q55.7729-77.8956 61.0418-80.151L57.0092-81.6384Q52.3032-78.9112 49.5017-74.5164Q46.7001-70.1215 46.7001-64.643Q46.7001-58.7907 49.7771-54.1392Q52.8541-49.4876 57.8492-45.577Q62.8443-41.6664 68.6494-38.0536Q74.4545-34.4408 80.0237-30.6344Q85.5928-26.828 89.8295-22.4044Q94.0663-17.9808 95.7867-12.4357ZM25.6429-0.71979L29.6801 0.659559Q26.9271-4.72444 26.4656-11.0737Q26.0041-17.423 26.6895-24.232Q27.3748-31.0411 28.0664-37.9307Q28.758-44.8203 28.3717-51.2351Q28.2355-53.1622 27.3271-56.0946Q26.4188-59.027 24.7952-61.4614Q23.1717-63.8958 20.7818-64.4806L19.4111-61.5292Q21.0237-61.5941 22.3102-59.6912Q23.5967-57.7883 24.3585-55.2931Q25.1204-52.7979 25.245-51.089Q25.6695-45.2324 25.0153-38.7971Q24.3611-32.3619 23.6758-25.7527Q22.9904-19.1435 23.2143-12.7714Q23.4382-6.39938 25.6429-0.71979ZM64.2515 10.6411L66.6349 8.77594Q57.8981-2.06766 51.9836-12.9598Q46.0692-23.852 42.6175-33.9275Q39.1658-44.003 37.7519-52.5326Q36.3381-61.0621 36.5752-67.2676Q36.8124-73.4732 38.2837-76.6L34.9985-76.7483Q33.2496-71.9861 33.5951-62.8499Q33.9405-53.7137 37.0727-41.7187Q40.2049-29.7238 46.8043-16.2675Q53.4036-2.81113 64.2515 10.6411ZM56.5884 12.6051Q66.4781 12.6051 75.1221 8.88105Q83.7661 5.15696 90.3861-1.46923Q97.006-8.09543 100.736-16.739Q104.467-25.3826 104.467-35.2606Q104.467-45.1387 100.736-53.7823Q97.006-62.4259 90.3803-69.0521Q83.7545-75.6782 75.1105-79.4023Q66.4665-83.1264 56.5768-83.1264Q46.6988-83.1264 38.0298-79.4023Q29.3609-75.6782 22.7717-69.0521Q16.1824-62.4259 12.4526-53.7823Q8.72266-45.1387 8.72266-35.2606Q8.72266-25.3826 12.4526-16.739Q16.1824-8.09543 22.7775-1.46923Q29.3725 5.15696 38.0415 8.88105Q46.7104 12.6051 56.5884 12.6051ZM56.5884 9.25291Q47.4129 9.25291 39.3605 5.7879Q31.3082 2.3229 25.1628-3.8225Q19.0174-9.9679 15.5523-18.0265Q12.0873-26.0851 12.0873-35.2606Q12.0873-44.4362 15.5461-52.4948Q19.0049-60.5534 25.1503-66.6988Q31.2957-72.8442 39.3485-76.3092Q47.4013-79.7742 56.5768-79.7742Q65.764-79.7742 73.8164-76.3092Q81.8687-72.8442 88.0204-66.6988Q94.172-60.5534 97.637-52.4948Q101.102-44.4362 101.102-35.2606Q101.102-26.0851 97.637-18.0265Q94.172-9.9679 88.0266-3.8225Q81.8812 2.3229 73.8284 5.7879Q65.7756 9.25291 56.5884 9.25291Z"/>
  </g>
  <g id="Ultralight-M" transform="matrix(1 0 0 1 503.679 1126)">
   <path d="M11.0516-30.9686Q17.5935-40.3117 26.5957-47.2872Q35.598-54.2627 46.4363-58.0927Q57.2747-61.9226 69.2968-61.9226Q83.1925-61.9226 96.0878-56.5021L94.1644-59.9526Q88.3068-62.0709 82.043-63.224Q75.7792-64.3771 69.2968-64.3771Q57.2685-64.3771 46.3305-60.6068Q35.3925-56.8365 26.2004-50.0119Q17.0084-43.1873 10.2144-34.0259ZM95.4621-12.5169L97.7911-13.0845Q95.9219-19.0702 91.6843-23.7452Q87.4467-28.4202 81.9012-32.3156Q76.3557-36.211 70.6227-39.7317Q64.8898-43.2523 59.9981-46.8962Q55.1063-50.5401 52.0836-54.776Q49.0609-59.0118 49.0609-64.3069Q49.0609-69.9064 52.2314-73.9821Q55.4019-78.0578 60.9374-80.3017L56.7077-80.9544Q52.0947-78.2736 49.351-73.9715Q46.6074-69.6695 46.6074-64.3069Q46.6074-58.5705 49.6612-53.9884Q52.7151-49.4064 57.6696-45.5422Q62.6241-41.6781 68.3885-38.0942Q74.153-34.5103 79.699-30.7098Q85.245-26.9092 89.4817-22.4856Q93.7184-18.062 95.4621-12.5169ZM25.608-0.742965L28.9961 0.868134Q26.2548-4.55053 25.7875-10.9056Q25.3202-17.2608 26.0055-24.0524Q26.6909-30.844 27.3767-37.6988Q28.0625-44.5537 27.6877-50.9104Q27.5632-52.7217 26.6896-55.5904Q25.816-58.4591 24.2563-60.8586Q22.6965-63.2582 20.3876-63.8198L19.0169-61.5523Q20.7571-61.6753 22.1247-59.7144Q23.4923-57.7534 24.3005-55.1714Q25.1087-52.5893 25.2333-50.8456Q25.6695-44.9889 25.0153-38.5711Q24.3611-32.1534 23.6758-25.5789Q22.9904-19.0044 23.2085-12.6787Q23.4265-6.35303 25.608-0.742965ZM63.9966 10.5368L65.8236 9.0889Q57.0404-1.81273 51.0911-12.7454Q45.1418-23.6781 41.6844-33.771Q38.2269-43.864 36.8246-52.3992Q35.4224-60.9345 35.6711-67.1343Q35.9199-73.3341 37.4143-76.4493L34.8941-76.8758Q33.0293-72.3803 33.2821-63.3426Q33.5348-54.3049 36.6207-42.281Q39.7065-30.257 46.3407-16.679Q52.9748-3.10092 63.9966 10.5368ZM56.032 12.0487Q65.8173 12.0487 74.357 8.37101Q82.8968 4.69327 89.4414-1.85181Q95.986-8.39689 99.6642-16.9361Q103.342-25.4753 103.342-35.2606Q103.342-45.046 99.6642-53.5852Q95.986-62.1244 89.4414-68.6695Q82.8968-75.2146 74.3571-78.8923Q65.8174-82.57 56.0321-82.57Q46.2468-82.57 37.6764-78.8923Q29.106-75.2146 22.592-68.6695Q16.0781-62.1244 12.4004-53.5852Q8.72266-45.046 8.72266-35.2606Q8.72266-25.4753 12.4004-16.9361Q16.0781-8.39689 22.592-1.85181Q29.1059 4.69327 37.6763 8.37101Q46.2467 12.0487 56.032 12.0487ZM56.032 9.64708Q46.7521 9.64708 38.6245 6.1589Q30.4968 2.67072 24.2992-3.52688Q18.1016-9.72447 14.6135-17.8526Q11.1253-25.9807 11.1253-35.2606Q11.1253-44.5406 14.613-52.6687Q18.1007-60.7968 24.2983-66.9944Q30.4959-73.192 38.624-76.6802Q46.7522-80.1684 56.0321-80.1684Q65.312-80.1684 73.4396-76.6802Q81.5673-73.192 87.7653-66.9944Q93.9634-60.7968 97.4516-52.6687Q100.94-44.5406 100.94-35.2606Q100.94-25.9807 97.4516-17.8526Q93.9634-9.72447 87.7658-3.52688Q81.5682 2.67072 73.4401 6.1589Q65.3119 9.64708 56.032 9.64708Z"/>
  </g>
  <g id="Black-S" transform="matrix(1 0 0 1 2884.57 696)">
   <path d="M17.8711-30.2246Q22.6562-36.8652 28.9307-41.6748Q35.2051-46.4844 42.7246-49.0967Q50.2441-51.709 58.7402-51.709Q69.6289-51.709 79.2969-47.1191L78.418-54.541Q73.9258-56.2988 68.8965-57.2266Q63.8672-58.1543 58.7402-58.1543Q49.3164-58.1543 40.7471-55.1514Q32.1777-52.1484 25.0488-46.7285Q17.9199-41.3086 12.6953-34.082ZM76.9531-16.8945L83.2031-18.7012Q81.9824-23.877 78.8818-27.7588Q75.7812-31.6406 71.6797-34.6924Q67.5781-37.7441 63.2568-40.332Q58.9355-42.9199 55.2246-45.4346Q51.5137-47.9492 49.2188-50.8057Q46.9238-53.6621 46.9238-57.2266Q46.9238-60.4004 48.4619-62.5977Q50-64.7949 53.2227-66.4062L50-71.9727Q45.7031-69.7754 43.0908-65.918Q40.4785-62.0605 40.4785-57.2266Q40.4785-52.2949 42.8955-48.4863Q45.3125-44.6777 49.1943-41.5771Q53.0762-38.4766 57.5195-35.7178Q61.9629-32.959 66.0889-30.1514Q70.2148-27.3438 73.1934-24.1455Q76.1719-20.9473 76.9531-16.8945ZM24.4141-8.88672L31.9336-8.59375Q29.4434-12.207 28.833-16.4307Q28.2227-20.6543 28.5889-25.4395Q28.9551-30.2246 29.5898-35.5225Q30.2246-40.8203 30.2246-46.5332Q30.2246-49.0723 29.2725-51.9775Q28.3203-54.8828 26.4893-57.0312Q24.6582-59.1797 22.0215-59.3262L20.6543-52.9785Q21.6309-52.832 22.3389-51.8066Q23.0469-50.7812 23.4619-49.4629Q23.877-48.1445 23.877-47.0703Q23.877-42.8711 23.291-38.0615Q22.7051-33.252 22.29-28.2227Q21.875-23.1934 22.2168-18.2861Q22.5586-13.3789 24.4141-8.88672ZM54.1504 0L59.375-3.85742Q52.2949-12.5 47.7783-21.1914Q43.2617-29.8828 40.8447-37.7686Q38.4277-45.6543 37.7197-51.9531Q37.0117-58.252 37.6465-62.1582Q38.2812-66.0645 39.7949-66.6992L31.8848-65.2344Q30.8105-60.9375 31.3232-53.7842Q31.8359-46.6309 34.3018-37.7441Q36.7676-28.8574 41.626-19.165Q46.4844-9.47266 54.1504 0ZM48.8281 6.78711Q57.5195 6.78711 65.1123 3.51562Q72.7051 0.244141 78.4912-5.54199Q84.2773-11.3281 87.5488-18.9209Q90.8203-26.5137 90.8203-35.2051Q90.8203-43.8965 87.5488-51.4893Q84.2773-59.082 78.4912-64.8682Q72.7051-70.6543 65.1123-73.9258Q57.5195-77.1973 48.8281-77.1973Q40.1367-77.1973 32.5439-73.9258Q24.9512-70.6543 19.165-64.8682Q13.3789-59.082 10.1074-51.4893Q6.83594-43.8965 6.83594-35.2051Q6.83594-26.5137 10.1074-18.9209Q13.3789-11.3281 19.165-5.54199Q24.9512 0.244141 32.5439 3.51562Q40.1367 6.78711 48.8281 6.78711ZM48.8281-3.95508Q42.3828-3.95508 36.7188-6.39648Q31.0547-8.83789 26.7578-13.1348Q22.4609-17.4316 20.0195-23.0957Q17.5781-28.7598 17.5781-35.2051Q17.5781-41.6504 20.0195-47.3145Q22.4609-52.9785 26.7578-57.2754Q31.0547-61.5723 36.7188-64.0137Q42.3828-66.4551 48.8281-66.4551Q55.2734-66.4551 60.9375-64.0137Q66.6016-61.5723 70.8984-57.2754Q75.1953-52.9785 77.6367-47.3145Q80.0781-41.6504 80.0781-35.2051Q80.0781-28.7598 77.6367-23.0957Q75.1953-17.4316 70.8984-13.1348Q66.6016-8.83789 60.9375-6.39648Q55.2734-3.95508 48.8281-3.95508Z"/>
  </g>
  <g id="Heavy-S" transform="matrix(1 0 0 1 2588.47 696)">
   <path d="M16.3383-30.8124Q21.2157-37.5452 27.6399-42.4354Q34.0642-47.3257 41.745-49.9841Q49.4259-52.6425 58.0833-52.6425Q69.0181-52.6425 78.7437-48.1333L77.9109-55.0711Q73.3726-56.8174 68.3145-57.7452Q63.2564-58.6729 58.0833-58.6729Q48.5558-58.6729 39.8943-55.6584Q31.2327-52.644 24.0174-47.1895Q16.802-41.735 11.4968-34.4508ZM76.7687-16.9406L82.6039-18.632Q81.3371-23.8078 78.1616-27.7012Q74.9861-31.5945 70.8096-34.6751Q66.6331-37.7557 62.2484-40.3954Q57.8638-43.0352 54.0952-45.6132Q50.3267-48.1912 47.9972-51.1341Q45.6677-54.077 45.6677-57.7452Q45.6677-60.9997 47.2403-63.2891Q48.813-65.5786 52.0356-67.236L48.9858-72.4336Q44.7581-70.2133 42.1977-66.3789Q39.6372-62.5446 39.6372-57.7452Q39.6372-52.802 42.0715-48.9761Q44.5058-45.1502 48.428-42.0208Q52.3501-38.8914 56.8511-36.0923Q61.3521-33.2932 65.553-30.4395Q69.7539-27.5858 72.8131-24.3241Q75.8722-21.0625 76.7687-16.9406ZM23.423-8.70233L30.4354-8.40936Q28.0143-12.1379 27.4674-16.5344Q26.9204-20.9309 27.3269-25.8601Q27.7335-30.7893 28.351-36.139Q28.9684-41.4887 28.8878-47.0864Q28.8532-49.4756 27.9299-52.2887Q27.0065-55.1018 25.2561-57.2214Q23.5058-59.341 20.9843-59.5797L19.6862-53.6354Q20.6282-53.4889 21.342-52.4002Q22.0558-51.3114 22.4766-49.9123Q22.8974-48.5133 22.9204-47.4045Q22.9896-43.1131 22.4209-38.2344Q21.8523-33.3557 21.4084-28.263Q20.9646-23.1703 21.2718-18.2055Q21.579-13.2406 23.423-8.70233ZM53.4589 0.253538L58.3378-3.37339Q51.3499-11.9353 46.8333-20.5576Q42.3167-29.1798 39.8363-37.054Q37.356-44.9283 36.5442-51.3135Q35.7325-57.6988 36.252-61.8355Q36.7715-65.9723 38.1815-67.045L30.9167-65.7299Q29.8655-61.3524 30.3955-54.1184Q30.9255-46.8844 33.4259-37.8997Q35.9263-28.915 40.8308-19.1189Q45.7353-9.32284 53.4589 0.253538ZM48.2173 6.16479Q56.7704 6.16479 64.2537 2.9394Q71.737-0.285985 77.4425-5.99721Q83.1479-11.7084 86.3791-19.1917Q89.6102-26.675 89.6102-35.2166Q89.6102-43.7582 86.3791-51.2415Q83.1479-58.7248 77.4367-64.436Q71.7255-70.1472 64.2422-73.3726Q56.7589-76.598 48.2058-76.598Q39.6642-76.598 32.1809-73.3726Q24.6976-70.1472 18.9979-64.436Q13.2982-58.7248 10.0671-51.2415Q6.83594-43.7582 6.83594-35.2166Q6.83594-26.675 10.0671-19.1917Q13.2982-11.7084 19.0037-5.99721Q24.7092-0.285985 32.1924 2.9394Q39.6757 6.16479 48.2173 6.16479ZM48.2173-3.42495Q41.6798-3.42495 35.9236-5.91246Q30.1673-8.39996 25.7898-12.7775Q21.4122-17.1551 18.9247-22.9171Q16.4372-28.6791 16.4372-35.2166Q16.4372-41.7541 18.9189-47.5161Q21.4007-53.2782 25.7782-57.6557Q30.1558-62.0332 35.912-64.5207Q41.6683-67.0083 48.2058-67.0083Q54.7548-67.0083 60.5111-64.5207Q66.2674-62.0332 70.6507-57.6557Q75.034-53.2782 77.5215-47.5161Q80.009-41.7541 80.009-35.2166Q80.009-28.6791 77.5215-22.9171Q75.034-17.1551 70.6564-12.7775Q66.2789-8.39996 60.5226-5.91246Q54.7664-3.42495 48.2173-3.42495Z"/>
  </g>
  <g id="Bold-S" transform="matrix(1 0 0 1 2292.43 696)">
   <path d="M14.624-31.4697Q19.6045-38.3057 26.1963-43.2861Q32.7881-48.2666 40.6494-50.9766Q48.5107-53.6865 57.3486-53.6865Q68.335-53.6865 78.125-49.2676L77.3438-55.6641Q72.7539-57.3975 67.6636-58.3252Q62.5732-59.2529 57.3486-59.2529Q47.7051-59.2529 38.9404-56.2256Q30.1758-53.1982 22.8638-47.7051Q15.5518-42.2119 10.1562-34.8633ZM76.5625-16.9922L81.9336-18.5547Q80.6152-23.7305 77.356-27.6367Q74.0967-31.543 69.8364-34.6558Q65.5762-37.7686 61.1206-40.4663Q56.665-43.1641 52.832-45.813Q48.999-48.4619 46.6309-51.5015Q44.2627-54.541 44.2627-58.3252Q44.2627-61.6699 45.874-64.0625Q47.4854-66.4551 50.708-68.1641L47.8516-72.9492Q43.7012-70.7031 41.1987-66.8945Q38.6963-63.0859 38.6963-58.3252Q38.6963-53.3691 41.1499-49.5239Q43.6035-45.6787 47.5708-42.5171Q51.5381-39.3555 56.1035-36.5112Q60.6689-33.667 64.9536-30.7617Q69.2383-27.8564 72.3877-24.5239Q75.5371-21.1914 76.5625-16.9922ZM22.3145-8.49609L28.7598-8.20312Q26.416-12.0605 25.9399-16.6504Q25.4639-21.2402 25.9155-26.3306Q26.3672-31.4209 26.9653-36.8286Q27.5635-42.2363 27.3926-47.7051Q27.3193-49.9268 26.4282-52.6367Q25.5371-55.3467 23.877-57.4341Q22.2168-59.5215 19.8242-59.8633L18.6035-54.3701Q19.5068-54.2236 20.2271-53.064Q20.9473-51.9043 21.3745-50.415Q21.8018-48.9258 21.8506-47.7783Q21.9971-43.3838 21.4478-38.4277Q20.8984-33.4717 20.4224-28.3081Q19.9463-23.1445 20.2148-18.1152Q20.4834-13.0859 22.3145-8.49609ZM52.6855 0.537109L57.1777-2.83203Q50.293-11.3037 45.7764-19.8486Q41.2598-28.3936 38.7085-36.2549Q36.1572-44.1162 35.2295-50.5981Q34.3018-57.0801 34.6924-61.4746Q35.083-65.8691 36.377-67.4316L29.834-66.2842Q28.8086-61.8164 29.3579-54.4922Q29.9072-47.168 32.4463-38.0737Q34.9854-28.9795 39.9414-19.0674Q44.8975-9.15527 52.6855 0.537109ZM47.5342 5.46875Q55.9326 5.46875 63.2935 2.29492Q70.6543-0.878906 76.2695-6.50635Q81.8848-12.1338 85.0708-19.4946Q88.2568-26.8555 88.2568-35.2295Q88.2568-43.6035 85.0708-50.9644Q81.8848-58.3252 76.2573-63.9526Q70.6299-69.5801 63.269-72.7539Q55.9082-75.9277 47.5098-75.9277Q39.1357-75.9277 31.7749-72.7539Q24.4141-69.5801 18.811-63.9526Q13.208-58.3252 10.022-50.9644Q6.83594-43.6035 6.83594-35.2295Q6.83594-26.8555 10.022-19.4946Q13.208-12.1338 18.8232-6.50635Q24.4385-0.878906 31.7993 2.29492Q39.1602 5.46875 47.5342 5.46875ZM47.5342-2.83203Q40.8936-2.83203 35.0342-5.37109Q29.1748-7.91016 24.707-12.3779Q20.2393-16.8457 17.7002-22.7173Q15.1611-28.5889 15.1611-35.2295Q15.1611-41.8701 17.688-47.7417Q20.2148-53.6133 24.6826-58.0811Q29.1504-62.5488 35.0098-65.0879Q40.8691-67.627 47.5098-67.627Q54.1748-67.627 60.0342-65.0879Q65.8936-62.5488 70.3735-58.0811Q74.8535-53.6133 77.3926-47.7417Q79.9316-41.8701 79.9316-35.2295Q79.9316-28.5889 77.3926-22.7173Q74.8535-16.8457 70.3857-12.3779Q65.918-7.91016 60.0586-5.37109Q54.1992-2.83203 47.5342-2.83203Z"/>
  </g>
  <g id="Semibold-S" transform="matrix(1 0 0 1 1996.19 696)">
   <path d="M13.4421-31.9229Q18.4937-38.83 25.201-43.8727Q31.9083-48.9153 39.894-51.6608Q47.8798-54.4063 56.8421-54.4063Q67.864-54.4063 77.6984-50.0496L76.9527-56.0729Q72.3273-57.7974 67.2148-58.7251Q62.1022-59.6528 56.8421-59.6528Q47.1186-59.6528 38.2828-56.6166Q29.4471-53.5804 22.0684-48.0605Q14.6897-42.5407 9.23203-35.1477ZM76.4203-17.0277L81.4715-18.5014Q80.1176-23.6771 76.8005-27.5923Q73.4835-31.5074 69.1655-34.6424Q64.8475-37.7774 60.343-40.5152Q55.8386-43.2529 51.9611-45.9507Q48.0837-48.6485 45.6889-51.7547Q43.294-54.8609 43.294-58.7251Q43.294-62.132 44.932-64.5957Q46.57-67.0594 49.7927-68.8039L47.0695-73.3047Q42.9725-71.0408 40.51-67.25Q38.0476-63.4592 38.0476-58.7251Q38.0476-53.7602 40.5145-49.9016Q42.9814-46.0431 46.9798-42.8592Q50.9782-39.6754 55.5881-36.8Q60.1979-33.9247 64.5404-30.9839Q68.8828-28.0431 72.0944-24.6617Q75.3061-21.2803 76.4203-17.0277ZM21.5502-8.35391L27.6045-8.06094Q25.3141-12.0072 24.8869-16.7304Q24.4597-21.4535 24.9424-26.6549Q25.4252-31.8563 26.01-37.3041Q26.5948-42.7518 26.3617-48.1316Q26.2618-50.2378 25.3929-52.8767Q24.524-55.5155 22.9261-57.5807Q21.3281-59.6459 19.0244-60.0588L17.857-54.8767Q18.7337-54.7302 19.4583-53.5216Q20.183-52.3131 20.6147-50.7616Q21.0464-49.2102 21.113-48.036Q21.3128-43.5704 20.7768-38.561Q20.2408-33.5517 19.7425-28.3392Q19.2442-23.1268 19.4861-18.053Q19.728-12.9793 21.5502-8.35391ZM52.1523 0.732617L56.3779-2.45879Q49.5643-10.8683 45.0477-19.3599Q40.5311-27.8515 37.9309-35.7039Q35.3308-43.5563 34.323-50.1049Q33.3153-56.6535 33.6171-61.2258Q33.9188-65.798 35.1328-67.6982L29.0875-66.6663Q28.0799-62.1363 28.6425-54.7499Q29.2052-47.3635 31.7709-38.1937Q34.3366-29.0239 39.3282-19.0318Q44.3198-9.03975 52.1523 0.732617ZM47.0632 4.98887Q55.355 4.98887 62.6314 1.85059Q69.9078-1.2877 75.4608-6.85737Q81.0139-12.4271 84.1688-19.7035Q87.3237-26.9799 87.3237-35.2384Q87.3237-43.4969 84.1688-50.7733Q81.0139-58.0497 75.4442-63.6194Q69.8745-69.1891 62.5981-72.3273Q55.3217-75.4656 47.0299-75.4656Q38.7714-75.4656 31.495-72.3273Q24.2186-69.1891 18.6822-63.6194Q13.1458-58.0497 9.99087-50.7733Q6.83594-43.4969 6.83594-35.2384Q6.83594-26.9799 9.99087-19.7035Q13.1458-12.4271 18.6988-6.85737Q24.2519-1.2877 31.5283 1.85059Q38.8047 4.98887 47.0632 4.98887ZM47.0632-2.42324Q40.3515-2.42324 34.421-4.99785Q28.4905-7.57246 23.9605-12.1024Q19.4306-16.6324 16.856-22.5795Q14.2813-28.5267 14.2813-35.2384Q14.2813-41.9501 16.8393-47.8972Q19.3973-53.8443 23.9272-58.3743Q28.4572-62.9043 34.3877-65.4789Q40.3182-68.0535 47.0299-68.0535Q53.7749-68.0535 59.7054-65.4789Q65.6358-62.9043 70.1825-58.3743Q74.7291-53.8443 77.3037-47.8972Q79.8783-41.9501 79.8783-35.2384Q79.8783-28.5267 77.3037-22.5795Q74.7291-16.6324 70.1991-12.1024Q65.6691-7.57246 59.7387-4.99785Q53.8082-2.42324 47.0632-2.42324Z"/>
  </g>
  <g id="Medium-S" transform="matrix(1 0 0 1 1699.83 696)">
   <path d="M12.5459-32.2666Q17.6514-39.2275 24.4463-44.3174Q31.2412-49.4072 39.3213-52.1797Q47.4014-54.9521 56.458-54.9521Q67.5068-54.9521 77.375-50.6426L76.6562-56.3828Q72.0039-58.1006 66.8745-59.0283Q61.7451-59.9561 56.458-59.9561Q46.6738-59.9561 37.7842-56.9131Q28.8945-53.8701 21.4653-48.3301Q14.0361-42.79 8.53125-35.3633ZM76.3125-17.0547L81.1211-18.4609Q79.7402-23.6367 76.3794-27.5586Q73.0186-31.4805 68.6567-34.6323Q64.2949-37.7842 59.7534-40.5522Q55.2119-43.3203 51.3008-46.0552Q47.3896-48.79 44.9746-51.9468Q42.5596-55.1035 42.5596-59.0283Q42.5596-62.4824 44.2178-65Q45.876-67.5176 49.0986-69.2891L46.4766-73.5742Q42.4199-71.2969 39.9878-67.5195Q37.5557-63.7422 37.5557-59.0283Q37.5557-54.0566 40.0327-50.188Q42.5098-46.3193 46.5317-43.1187Q50.5537-39.918 55.1973-37.019Q59.8408-34.1201 64.2271-31.1523Q68.6133-28.1846 71.8721-24.7661Q75.1309-21.3477 76.3125-17.0547ZM20.9707-8.24609L26.7285-7.95312Q24.4785-11.9668 24.0884-16.791Q23.6982-21.6152 24.2046-26.9009Q24.7109-32.1865 25.2856-37.6646Q25.8604-43.1426 25.5801-48.4551Q25.46-50.4736 24.6079-53.0586Q23.7559-55.6436 22.2051-57.6919Q20.6543-59.7402 18.418-60.207L17.291-55.2607Q18.1475-55.1143 18.8755-53.8687Q19.6035-52.623 20.0386-51.0244Q20.4736-49.4258 20.5537-48.2314Q20.7939-43.7119 20.2681-38.6621Q19.7422-33.6123 19.2271-28.3628Q18.7119-23.1133 18.9336-18.0059Q19.1553-12.8984 20.9707-8.24609ZM51.748 0.880859L55.7715-2.17578Q49.0117-10.5381 44.4951-18.9893Q39.9785-27.4404 37.3413-35.2861Q34.7041-43.1318 33.6357-49.731Q32.5674-56.3301 32.8018-61.0371Q33.0361-65.7441 34.1895-67.9004L28.5215-66.9561Q27.5273-62.3789 28.1001-54.9453Q28.6729-47.5117 31.2588-38.2847Q33.8447-29.0576 38.8633-19.0049Q43.8818-8.95215 51.748 0.880859ZM46.7061 4.625Q54.917 4.625 62.1294 1.51367Q69.3418-1.59766 74.8477-7.12354Q80.3535-12.6494 83.4849-19.8618Q86.6162-27.0742 86.6162-35.2451Q86.6162-43.416 83.4849-50.6284Q80.3535-57.8408 74.8276-63.3667Q69.3018-68.8926 62.0894-72.0039Q54.877-75.1152 46.666-75.1152Q38.4951-75.1152 31.2827-72.0039Q24.0703-68.8926 18.5845-63.3667Q13.0986-57.8408 9.96729-50.6284Q6.83594-43.416 6.83594-35.2451Q6.83594-27.0742 9.96729-19.8618Q13.0986-12.6494 18.6045-7.12354Q24.1104-1.59766 31.3228 1.51367Q38.5352 4.625 46.7061 4.625ZM46.7061-2.11328Q39.9404-2.11328 33.9561-4.71484Q27.9717-7.31641 23.3945-11.8936Q18.8174-16.4707 16.2158-22.4751Q13.6143-28.4795 13.6143-35.2451Q13.6143-42.0107 16.1958-48.0151Q18.7773-54.0195 23.3545-58.5967Q27.9316-63.1738 33.916-65.7754Q39.9004-68.377 46.666-68.377Q53.4717-68.377 59.4561-65.7754Q65.4404-63.1738 70.0376-58.5967Q74.6348-54.0195 77.2363-48.0151Q79.8379-42.0107 79.8379-35.2451Q79.8379-28.4795 77.2363-22.4751Q74.6348-16.4707 70.0576-11.8936Q65.4805-7.31641 59.4961-4.71484Q53.5117-2.11328 46.7061-2.11328Z"/>
  </g>
  <g id="Regular-S" transform="matrix(1 0 0 1 1403.58 696)">
   <path d="M11.377-32.7148Q16.5527-39.7461 23.4619-44.8975Q30.3711-50.0488 38.5742-52.8564Q46.7773-55.6641 55.957-55.6641Q67.041-55.6641 76.9531-51.416L76.2695-56.7871Q71.582-58.4961 66.4307-59.4238Q61.2793-60.3516 55.957-60.3516Q46.0938-60.3516 37.1338-57.2998Q28.1738-54.248 20.6787-48.6816Q13.1836-43.1152 7.61719-35.6445ZM76.1719-17.0898L80.6641-18.4082Q79.248-23.584 75.8301-27.5146Q72.4121-31.4453 67.9932-34.6191Q63.5742-37.793 58.9844-40.6006Q54.3945-43.4082 50.4395-46.1914Q46.4844-48.9746 44.043-52.1973Q41.6016-55.4199 41.6016-59.4238Q41.6016-62.9395 43.2861-65.5273Q44.9707-68.1152 48.1934-69.9219L45.7031-73.9258Q41.6992-71.6309 39.3066-67.8711Q36.9141-64.1113 36.9141-59.4238Q36.9141-54.4434 39.4043-50.5615Q41.8945-46.6797 45.9473-43.457Q50-40.2344 54.6875-37.3047Q59.375-34.375 63.8184-31.3721Q68.2617-28.3691 71.582-24.9023Q74.9023-21.4355 76.1719-17.0898ZM20.2148-8.10547L25.5859-7.8125Q23.3887-11.9141 23.0469-16.8701Q22.7051-21.8262 23.2422-27.2217Q23.7793-32.6172 24.3408-38.1348Q24.9023-43.6523 24.5605-48.877Q24.4141-50.7812 23.584-53.2959Q22.7539-55.8105 21.2646-57.8369Q19.7754-59.8633 17.627-60.4004L16.5527-55.7617Q17.3828-55.6152 18.1152-54.3213Q18.8477-53.0273 19.2871-51.3672Q19.7266-49.707 19.8242-48.4863Q20.1172-43.8965 19.6045-38.7939Q19.0918-33.6914 18.5547-28.3936Q18.0176-23.0957 18.2129-17.9443Q18.4082-12.793 20.2148-8.10547ZM51.2207 1.07422L54.9805-1.80664Q48.291-10.1074 43.7744-18.5059Q39.2578-26.9043 36.5723-34.7412Q33.8867-42.5781 32.7393-49.2432Q31.5918-55.9082 31.7383-60.791Q31.8848-65.6738 32.959-68.1641L27.7832-67.334Q26.8066-62.6953 27.3926-55.2002Q27.9785-47.7051 30.5908-38.4033Q33.2031-29.1016 38.2568-18.9697Q43.3105-8.83789 51.2207 1.07422ZM46.2402 4.15039Q54.3457 4.15039 61.4746 1.07422Q68.6035-2.00195 74.0479-7.4707Q79.4922-12.9395 82.5928-20.0684Q85.6934-27.1973 85.6934-35.2539Q85.6934-43.3105 82.5928-50.4395Q79.4922-57.5684 74.0234-63.0371Q68.5547-68.5059 61.4258-71.582Q54.2969-74.6582 46.1914-74.6582Q38.1348-74.6582 31.0059-71.582Q23.877-68.5059 18.457-63.0371Q13.0371-57.5684 9.93652-50.4395Q6.83594-43.3105 6.83594-35.2539Q6.83594-27.1973 9.93652-20.0684Q13.0371-12.9395 18.4814-7.4707Q23.9258-2.00195 31.0547 1.07422Q38.1836 4.15039 46.2402 4.15039ZM46.2402-1.70898Q39.4043-1.70898 33.3496-4.3457Q27.2949-6.98242 22.6562-11.6211Q18.0176-16.2598 15.3809-22.3389Q12.7441-28.418 12.7441-35.2539Q12.7441-42.0898 15.3564-48.1689Q17.9688-54.248 22.6074-58.8867Q27.2461-63.5254 33.3008-66.1621Q39.3555-68.7988 46.1914-68.7988Q53.0762-68.7988 59.1309-66.1621Q65.1855-63.5254 69.8486-58.8867Q74.5117-54.248 77.1484-48.1689Q79.7852-42.0898 79.7852-35.2539Q79.7852-28.418 77.1484-22.3389Q74.5117-16.2598 69.873-11.6211Q65.2344-6.98242 59.1797-4.3457Q53.125-1.70898 46.2402-1.70898Z"/>
  </g>
  <g id="Light-S" transform="matrix(1 0 0 1 1107.6 696)">
   <path d="M10.5293-32.4575Q15.6898-39.5795 22.6446-44.8293Q29.5993-50.0791 37.8932-52.9472Q46.1871-55.8154 55.4423-55.8154Q66.4658-55.8154 76.4384-51.5673L75.4977-56.1061Q70.8405-57.7998 65.7647-58.72Q60.689-59.6402 55.4423-59.6402Q45.7153-59.6402 36.8764-56.6188Q28.0375-53.5973 20.6333-48.0989Q13.2291-42.6005 7.73824-35.2206ZM75.7479-17.1959L79.4078-18.2416Q77.9765-23.2661 74.5888-27.1135Q71.2011-30.9608 66.8049-34.0969Q62.4087-37.233 57.8491-40.0255Q53.2895-42.8179 49.3724-45.6238Q45.4552-48.4296 43.0364-51.6825Q40.6176-54.9355 40.6176-58.9849Q40.6176-62.7729 42.5519-65.55Q44.4862-68.3271 48.057-70.1187L45.3094-73.0326Q41.4268-70.7982 39.1099-67.1597Q36.793-63.5211 36.793-58.9849Q36.793-54.1557 39.253-50.3647Q41.713-46.5736 45.7127-43.4116Q49.7124-40.2496 54.3468-37.3577Q58.9813-34.4658 63.3944-31.4705Q67.8075-28.4752 71.1278-25.0084Q74.4481-21.5416 75.7479-17.1959ZM20.1693-8.13573L24.6928-7.54013Q22.5108-11.687 22.1614-16.6506Q21.8119-21.6143 22.349-26.9871Q22.8861-32.3598 23.4402-37.832Q23.9942-43.3042 23.6674-48.453Q23.5362-50.206 22.7515-52.6375Q21.9668-55.069 20.5608-57.0498Q19.1549-59.0307 17.1122-59.5375L16.038-55.792Q17.0347-55.7213 17.873-54.3516Q18.7113-52.9818 19.2113-51.2082Q19.7113-49.4347 19.809-48.1684Q20.1172-43.5786 19.6045-38.4988Q19.0918-33.419 18.5547-28.1666Q18.0176-22.9141 18.2053-17.8233Q18.3929-12.7324 20.1693-8.13573ZM50.8878 0.937907L53.921-1.39796Q47.171-9.77453 42.6089-18.2259Q38.0468-26.6772 35.3537-34.5369Q32.6607-42.3965 31.5283-49.0691Q30.396-55.7416 30.5576-60.6169Q30.7192-65.4922 31.8237-67.9672L27.6469-67.5006Q26.519-63.21 26.9839-55.8436Q27.4488-48.4772 30.0006-39.1375Q32.5523-29.7979 37.6514-19.5071Q42.7505-9.21631 50.8878 0.937907ZM45.5137 3.42382Q53.4828 3.42382 60.4755 0.408173Q67.4683-2.60747 72.8142-7.9703Q78.1601-13.3331 81.1927-20.3257Q84.2252-27.3183 84.2252-35.2539Q84.2252-43.1895 81.1927-50.1821Q78.1601-57.1747 72.7974-62.5375Q67.4347-67.9003 60.442-70.916Q53.4492-73.9316 45.4801-73.9316Q37.5445-73.9316 30.5443-70.916Q23.5441-67.9003 18.2224-62.5375Q12.9008-57.1747 9.86837-50.1821Q6.83594-43.1895 6.83594-35.2539Q6.83594-27.3183 9.86837-20.3257Q12.9008-13.3331 18.2392-7.9703Q23.5776-2.60747 30.5779 0.408173Q37.5781 3.42382 45.5137 3.42382ZM45.5137-1.19425Q38.5414-1.19425 32.3884-3.86124Q26.2355-6.52822 21.5286-11.235Q16.8218-15.9419 14.1548-22.1118Q11.4878-28.2817 11.4878-35.2539Q11.4878-42.2262 14.1379-48.396Q16.788-54.5659 21.4948-59.2728Q26.2016-63.9796 32.3547-66.6466Q38.5078-69.3136 45.4801-69.3136Q52.4859-69.3136 58.6389-66.6466Q64.7919-63.9796 69.5156-59.2728Q74.2393-54.5659 76.9063-48.396Q79.5733-42.2262 79.5733-35.2539Q79.5733-28.2817 76.9063-22.1118Q74.2393-15.9419 69.5325-11.235Q64.8257-6.52822 58.6726-3.86124Q52.5195-1.19425 45.5137-1.19425Z"/>
  </g>
  <g id="Thin-S" transform="matrix(1 0 0 1 811.863 696)">
   <path d="M9.40827-32.1171Q14.5486-39.3592 21.5635-44.7392Q28.5784-50.1191 36.9924-53.0673Q45.4064-56.0155 54.7615-56.0155Q65.7049-56.0155 75.7576-51.7675L74.4769-55.2053Q69.8597-56.8789 64.884-57.7892Q59.9084-58.6995 54.7615-58.6995Q45.2148-58.6995 36.536-55.718Q27.8572-52.7365 20.5733-47.3281Q13.2893-41.9197 7.89834-34.6599ZM75.1872-17.3362L77.7462-18.0213Q76.2947-22.8457 72.9471-26.5829Q69.5994-30.3201 65.2333-33.4062Q60.8672-36.4923 56.3477-39.2648Q51.8281-42.0373 47.961-44.873Q44.094-47.7088 41.7051-51.0018Q39.3163-54.2947 39.3163-58.4043Q39.3163-62.5526 41.5809-65.5799Q43.8455-68.6073 47.8768-70.379L44.7888-71.8514Q41.0666-69.697 38.8498-66.2187Q36.6329-62.7404 36.6329-58.4043Q36.6329-53.7753 39.0529-50.1044Q41.4728-46.4334 45.4024-43.3516Q49.332-40.2698 53.8963-37.4278Q58.4607-34.5859 62.8337-31.6007Q67.2068-28.6154 70.5271-25.1487Q73.8474-21.6819 75.1872-17.3362ZM20.1091-8.17576L23.5115-7.1799Q21.3497-11.3866 20.9902-16.3604Q20.6307-21.3341 21.1678-26.6768Q21.7049-32.0194 22.249-37.4316Q22.7931-42.8437 22.4861-47.8923Q22.3751-49.4452 21.6504-51.7667Q20.9258-54.0882 19.63-56.0088Q18.3342-57.9295 16.4315-58.3963L15.3572-55.832Q16.5742-55.8615 17.5526-54.3916Q18.5311-52.9216 19.1111-50.998Q19.6911-49.0744 19.7888-47.748Q20.1172-43.1582 19.6045-38.1085Q19.0918-33.0588 18.5547-27.8664Q18.0176-22.674 18.1952-17.6632Q18.3728-12.6524 20.1091-8.17576ZM50.4475 0.757623L52.5198-0.857446Q45.6897-9.33424 41.0674-17.8555Q36.4451-26.3768 33.7421-34.2666Q31.0391-42.1564 29.9268-48.8389Q28.8145-55.5213 28.9961-60.3867Q29.1778-65.2521 30.3223-67.7069L27.4666-67.7209Q26.1386-63.8908 26.4434-56.6946Q26.7482-49.4983 29.2199-40.1086Q31.6916-30.7188 36.8508-20.2178Q42.0099-9.7168 50.4475 0.757623ZM44.5527 2.46287Q52.3416 2.46287 59.1542-0.472727Q65.9668-3.40832 71.1825-8.63106Q76.3983-13.8538 79.3409-20.6661Q82.2835-27.4784 82.2835-35.2539Q82.2835-43.0294 79.3409-49.8417Q76.3983-56.654 71.1759-61.8768Q65.9534-67.0995 59.1408-70.0351Q52.3282-72.9707 44.5393-72.9707Q36.7638-72.9707 29.9338-70.0351Q23.1038-67.0995 17.9121-61.8768Q12.7205-56.654 9.77823-49.8417Q6.83594-43.0294 6.83594-35.2539Q6.83594-27.4784 9.77823-20.6661Q12.7205-13.8538 17.9188-8.63106Q23.1172-3.40832 29.9472-0.472727Q36.7772 2.46287 44.5527 2.46287ZM44.5527-0.513483Q37.4002-0.513483 31.1172-3.22049Q24.8342-5.9275 20.0373-10.7245Q15.2403-15.5214 12.5333-21.8114Q9.82627-28.1014 9.82627-35.2539Q9.82627-42.4064 12.5263-48.6964Q15.2263-54.9864 20.0233-59.7833Q24.8202-64.5803 31.1035-67.2873Q37.3868-69.9943 44.5393-69.9943Q51.7052-69.9943 57.9882-67.2873Q64.2712-64.5803 69.0752-59.7833Q73.8791-54.9864 76.5861-48.6964Q79.2931-42.4064 79.2931-35.2539Q79.2931-28.1014 76.5861-21.8114Q73.8791-15.5214 69.0821-10.7245Q64.2852-5.9275 58.0019-3.22049Q51.7186-0.513483 44.5527-0.513483Z"/>
  </g>
  <g id="Ultralight-S" transform="matrix(1 0 0 1 515.649 696)">
   <path d="M8.83408-31.9427Q13.9641-39.2464 21.0098-44.693Q28.0556-50.1396 36.5311-53.1288Q45.0066-56.118 54.4128-56.118Q65.3152-56.118 75.4089-51.87L73.954-54.744Q69.3573-56.4072 64.4329-57.3124Q59.5085-58.2176 54.4128-58.2176Q44.9585-58.2176 36.3617-55.2567Q27.7649-52.2957 20.5425-46.9334Q13.3202-41.571 7.98035-34.3727ZM74.9001-17.408L76.8951-17.9085Q75.4333-22.6303 72.1062-26.3111Q68.779-29.9919 64.4283-33.0524Q60.0777-36.113 55.5786-38.8752Q51.0796-41.6374 47.2382-44.4885Q43.3968-47.3396 41.0233-50.6531Q38.6497-53.9665 38.6497-58.107Q38.6497-62.4397 41.0835-65.5952Q43.5173-68.7508 47.7844-70.5124L44.5221-71.2463Q40.8821-69.133 38.7165-65.7368Q36.5509-62.3405 36.5509-58.107Q36.5509-53.5805 38.9503-49.971Q41.3498-46.3615 45.2435-43.3208Q49.1371-40.2802 53.6655-37.4638Q58.194-34.6474 62.5465-31.6673Q66.8991-28.6873 70.2194-25.2205Q73.5397-21.7537 74.9001-17.408ZM20.0783-8.19626L22.9065-6.99539Q20.755-11.2328 20.3903-16.2117Q20.0256-21.1906 20.5627-26.5179Q21.0999-31.8451 21.6389-37.2265Q22.1779-42.6079 21.8811-47.6051Q21.7804-49.0555 21.0865-51.3206Q20.3926-53.5858 19.1532-55.4756Q17.9138-57.3654 16.0828-57.8117L15.0085-55.8525Q16.3383-55.9334 17.3885-54.4121Q18.4387-52.8908 19.0598-50.8904Q19.6808-48.8899 19.7784-47.5327Q20.1172-42.9428 19.6045-37.9086Q19.0918-32.8743 18.5547-27.7126Q18.0176-22.551 18.19-17.5812Q18.3624-12.6114 20.0783-8.19626ZM50.222 0.665283L51.8021-0.580597Q44.931-9.10873 40.2779-17.6659Q35.6247-26.223 32.9166-34.1282Q30.2086-42.0334 29.1065-48.7209Q28.0045-55.4085 28.1963-60.2688Q28.3882-65.1291 29.5532-67.5735L27.3743-67.8337Q25.9438-64.2395 26.1665-57.1304Q26.3893-50.0214 28.82-40.6059Q31.2508-31.1905 36.4407-20.5818Q41.6306-9.97314 50.222 0.665283ZM44.0605 1.97067Q51.757 1.97067 58.4774-0.92392Q65.1978-3.81851 70.3468-8.9695Q75.4959-14.1205 78.3924-20.8405Q81.2889-27.5604 81.2889-35.2539Q81.2889-42.9474 78.3924-49.6674Q75.4959-56.3873 70.3453-61.5383Q65.1947-66.6893 58.4743-69.5839Q51.754-72.4785 44.0575-72.4785Q36.364-72.4785 29.6211-69.5839Q22.8783-66.6893 17.7532-61.5383Q12.6282-56.3873 9.73206-49.6674Q6.83594-42.9474 6.83594-35.2539Q6.83594-27.5604 9.73206-20.8405Q12.6282-14.1205 17.7547-8.9695Q22.8813-3.81851 29.6242-0.92392Q36.367 1.97067 44.0605 1.97067ZM44.0605-0.164795Q36.8156-0.164795 30.4661-2.8923Q24.1165-5.61981 19.2734-10.463Q14.4302-15.3061 11.7027-21.6576Q8.97522-28.009 8.97522-35.2539Q8.97522-42.4988 11.7008-48.8503Q14.4264-55.2017 19.2696-60.0449Q24.1127-64.888 30.4626-67.6155Q36.8126-70.343 44.0575-70.343Q51.3054-70.343 57.655-67.6155Q64.0045-64.888 68.8496-60.0449Q73.6946-55.2017 76.4221-48.8503Q79.1496-42.4988 79.1496-35.2539Q79.1496-28.009 76.4221-21.6576Q73.6946-15.3061 68.8515-10.463Q64.0083-5.61981 57.6584-2.8923Q51.3084-0.164795 44.0605-0.164795Z"/>
  </g>
 </g>
</svg>
